<svg width="46" height="48" viewBox="0 0 46 48" fill="none" xmlns="http://www.w3.org/2000/svg">
<path d="M22.7015 0.25C27.1437 0.25 31.4862 1.62459 35.1797 4.19993C38.8733 6.77528 41.7521 10.4357 43.452 14.7184C45.152 19.001 45.5968 23.7135 44.7302 28.2599C43.8635 32.8064 41.7244 36.9825 38.5833 40.2603C35.4422 43.5381 31.4401 45.7703 27.0832 46.6747C22.7264 47.579 18.2104 47.1149 14.1063 45.3409C10.0022 43.567 6.49441 40.563 4.02644 36.7087C1.55848 32.8544 0.241207 28.323 0.241207 23.6875C0.246162 17.4731 2.6141 11.5147 6.82514 7.1204C11.0362 2.72613 16.7462 0.255172 22.7015 0.25ZM14.015 25.1875L25.2451 34.9531C25.4339 35.1175 25.6518 35.2415 25.8865 35.318C26.1212 35.3946 26.368 35.4221 26.6129 35.3991C26.8578 35.376 27.096 35.3029 27.3138 35.1838C27.5316 35.0647 27.7247 34.9021 27.8823 34.7051C28.0399 34.5081 28.1587 34.2807 28.232 34.0358C28.3053 33.7909 28.3317 33.5333 28.3096 33.2777C28.2876 33.0222 28.2175 32.7737 28.1034 32.5464C27.9893 32.3191 27.8334 32.1175 27.6446 31.9531L18.1402 23.6875L27.6446 15.4219C27.8334 15.2575 27.9893 15.0559 28.1034 14.8286C28.2175 14.6013 28.2876 14.3528 28.3096 14.0973C28.3317 13.8417 28.3053 13.5842 28.232 13.3392C28.1587 13.0943 28.0399 12.8669 27.8823 12.6699C27.7247 12.4729 27.5316 12.3103 27.3138 12.1912C27.096 12.0721 26.8578 11.999 26.6129 11.976C26.368 11.9529 26.1212 11.9804 25.8865 12.057C25.6518 12.1335 25.4339 12.2575 25.2451 12.4219L14.015 22.1875C13.8043 22.3708 13.6349 22.6002 13.5186 22.8594C13.4023 23.1186 13.342 23.4013 13.342 23.6875C13.342 23.9737 13.4023 24.2564 13.5186 24.5156C13.6349 24.7748 13.8043 25.0042 14.015 25.1875Z" fill="white"/>
</svg>
