<svg width="35" height="35" viewBox="0 0 35 35" fill="none" xmlns="http://www.w3.org/2000/svg">
<path d="M27.7839 7.96021H26.9336V7.23104C26.9336 6.42568 26.2814 5.77271 25.4753 5.77271C24.6692 5.77271 24.017 6.42568 24.017 7.23104V7.96021H23.2579C22.4518 7.96021 21.7996 8.61318 21.7996 9.41854C21.7996 10.2239 22.4518 10.8769 23.2579 10.8769H24.017V11.7271C24.017 12.5325 24.6692 13.1854 25.4753 13.1854C26.2814 13.1854 26.9336 12.5325 26.9336 11.7271V10.8769H27.7839C28.5899 10.8769 29.2422 10.2239 29.2422 9.41854C29.2422 8.61318 28.5899 7.96021 27.7839 7.96021Z" fill="white"/>
<path d="M31.76 4.45823C31.6746 4.34501 31.5721 4.23037 31.4681 4.11715L31.3613 3.99965C30.9198 3.51971 30.4114 3.09104 29.8887 2.7585C29.8816 2.75281 29.873 2.74782 29.8659 2.74284C29.8588 2.73857 29.8531 2.73501 29.8474 2.73073C28.5728 1.89832 27.076 1.45825 25.5208 1.45825C23.1781 1.45825 20.9664 2.47367 19.4753 4.21969C18.5335 5.2724 17.9066 6.57969 17.6428 8.04665C16.4897 8.16682 15.3097 8.33736 14.0963 8.60822L13.2945 8.78339C12.5083 8.95571 12.0099 9.73258 12.1822 10.5194C12.3303 11.2016 12.9342 11.6666 13.6049 11.6666C13.7075 11.6666 13.8129 11.6559 13.9183 11.6331L14.7257 11.4565C15.7299 11.2324 16.7001 11.086 17.6496 10.9758C17.7218 11.3538 17.8107 11.7223 17.9358 12.0589C18.1337 12.6692 18.4229 13.2609 18.7646 13.7708C19.1335 14.3718 19.6077 14.93 20.1503 15.4164C20.2059 15.4726 20.3141 15.583 20.4736 15.692C21.8778 16.859 23.6666 17.4999 25.5208 17.4999C26.0191 17.4999 26.5055 17.4396 26.9834 17.3521L26.1261 19.2879C25.7701 20.094 25.1036 20.6623 24.3117 20.8132L24.1437 20.8495C20.6032 21.5146 16.9973 21.5153 13.4483 20.8488C12.6194 20.6957 11.9059 20.0285 11.5812 19.0935C10.4576 15.9568 9.8879 12.6236 9.8879 9.18713V7.37917C9.8879 5.72288 8.61186 4.37492 7.04386 4.37492H5.83333C5.02726 4.37492 4.375 5.02789 4.375 5.83325C4.375 6.63861 5.02726 7.29158 5.83333 7.29158L6.97123 7.37917V9.18713C6.97123 12.9597 7.59786 16.6241 8.83118 20.0634C9.49341 21.9739 11.06 23.3738 12.9142 23.7164C14.861 24.0816 16.8406 24.2668 18.7974 24.2668C20.7556 24.2668 22.7352 24.0816 24.7176 23.7092L24.8899 23.6722C26.5918 23.3475 28.0516 22.1491 28.7935 20.4664L29.6808 18.4634C30.0581 17.6254 30.2914 16.7181 30.4362 15.8078C30.5489 15.7186 30.6609 15.6285 30.756 15.546C32.5262 14.0342 33.5417 11.8232 33.5417 9.47908C33.5417 8.22298 33.244 6.97542 32.6786 5.86529C32.3995 5.3234 32.0748 4.83065 31.76 4.45823ZM28.8562 13.3336C28.7024 13.4653 28.5429 13.6027 28.2951 13.7515C26.5306 14.9372 23.9073 14.7933 22.2837 13.4026C22.2481 13.3727 22.2111 13.3435 22.1726 13.3172C22.1712 13.315 22.1698 13.3136 22.167 13.3115C21.771 12.954 21.472 12.6058 21.2213 12.1985C20.9977 11.8638 20.8254 11.5135 20.6915 11.1026C20.5092 10.6106 20.4167 10.0637 20.4167 9.40361C20.438 8.17812 20.8767 7.02812 21.6699 6.13873C22.6284 5.01792 24.0326 4.37492 25.5208 4.37492C26.5078 4.37492 27.4534 4.6512 28.2524 5.17316C28.2581 5.17672 28.2638 5.18028 28.2694 5.18455C28.2837 5.19381 28.2994 5.20378 28.3136 5.21303C28.6283 5.41241 28.9402 5.6766 29.1937 5.94932L29.3205 6.09102C29.3603 6.13304 29.4002 6.17434 29.48 6.27545C29.7021 6.54034 29.9058 6.85223 30.0824 7.19474C30.437 7.89115 30.625 8.68085 30.625 9.47909C30.625 10.9688 29.9827 12.3715 28.8562 13.3336Z" fill="white"/>
<path d="M12.3958 29.1667C13.6039 29.1667 14.5833 28.1874 14.5833 26.9792C14.5833 25.7711 13.6039 24.7917 12.3958 24.7917C11.1876 24.7917 10.2083 25.7711 10.2083 26.9792C10.2083 28.1874 11.1876 29.1667 12.3958 29.1667Z" fill="white"/>
<path d="M24.0625 29.1667C25.2706 29.1667 26.25 28.1874 26.25 26.9792C26.25 25.7711 25.2706 24.7917 24.0625 24.7917C22.8544 24.7917 21.875 25.7711 21.875 26.9792C21.875 28.1874 22.8544 29.1667 24.0625 29.1667Z" fill="white"/>
</svg>
