<svg width="50" height="50" viewBox="0 0 50 50" fill="none" xmlns="http://www.w3.org/2000/svg">
<path d="M9.61924 13.6133C11.5431 11.1231 12.3243 7.93949 11.7872 4.84378C8.6915 4.79496 5.60556 6.17191 3.50596 8.87699C1.59189 11.3672 0.800877 14.5508 1.33799 17.6465C4.43369 17.7051 7.51963 16.3184 9.61924 13.6133Z" fill="#37B678"/>
<path d="M5.459 8.87699C7.0215 6.83597 9.28712 5.45902 11.8164 5.00003C11.8067 4.95121 11.7969 4.89261 11.7969 4.84378C8.70118 4.79496 5.61525 6.17191 3.51564 8.87699C1.59181 11.3672 0.800792 14.5508 1.3379 17.6465C1.98243 17.6563 2.62696 17.6075 3.2715 17.4903C2.78321 14.4434 3.57423 11.3282 5.459 8.87699Z" fill="#00A653"/>
<path d="M13.4082 49.2675H11.8164C6.36719 49.2675 1.94336 44.58 1.94336 38.8085C1.93359 38.0468 1.92383 32.3827 5.81055 29.5702C5.82031 29.5604 5.83008 29.5604 5.83984 29.5507C6.99219 28.7304 8.51563 28.6425 9.7461 29.3358C10.5371 29.7753 11.4453 29.9804 12.3535 29.9218C13.1152 29.8632 13.8477 29.619 14.4922 29.2186C15.498 28.5936 16.7578 28.496 17.8516 28.9745C18.2324 29.1405 18.5938 29.3358 18.9453 29.5604C23.1543 32.285 23.291 38.2128 23.291 38.8183C23.2813 44.58 18.8672 49.2675 13.4082 49.2675Z" fill="#E5303E"/>
<path d="M4.87305 38.8086C4.86328 38.0468 4.85352 32.3828 8.74024 29.5703C8.75 29.5605 8.75977 29.5605 8.76953 29.5507C8.97461 29.4043 9.18945 29.2773 9.42383 29.1796C8.25195 28.6621 6.88477 28.7988 5.83984 29.5507C5.83008 29.5605 5.82031 29.5605 5.81055 29.5703C1.92383 32.3828 1.93359 38.0468 1.94336 38.8086C1.94336 44.5898 6.35742 49.2675 11.8164 49.2675H13.4082C13.6328 49.2675 13.8574 49.2578 14.0723 49.248C8.93555 48.8769 4.87305 44.3457 4.87305 38.8086Z" fill="#B72732"/>
<path d="M41.6699 43.9941L40.1172 44.3554C34.8047 45.5761 29.4531 42.0019 28.1543 36.3671C27.9688 35.6249 26.6992 30.1074 29.8535 26.4941C29.8633 26.4843 29.8633 26.4746 29.8731 26.4746C30.8106 25.4199 32.2754 24.9902 33.6328 25.3906C34.502 25.6445 35.4297 25.6347 36.2988 25.371C37.0215 25.1464 37.6856 24.746 38.2227 24.1992C39.0625 23.3593 40.2734 22.9882 41.4453 23.2128C41.8555 23.291 42.2559 23.3984 42.6367 23.5449C47.3438 25.2538 48.7988 31.0058 48.9453 31.5917C50.2344 37.2265 46.9824 42.7831 41.6699 43.9941Z" fill="#E5303E"/>
<path d="M31.084 36.3671C30.8984 35.6249 29.6289 30.1073 32.7832 26.4941C32.793 26.4843 32.793 26.4745 32.8027 26.4745C33.1738 26.0546 33.6426 25.7226 34.1699 25.5077C33.9844 25.4784 33.8086 25.4394 33.6328 25.3905C32.2754 24.9901 30.8106 25.4198 29.8731 26.4745C29.8633 26.4843 29.8633 26.4941 29.8535 26.4941C26.6992 30.1073 27.9688 35.6249 28.1543 36.3671C29.3945 41.7773 34.3848 45.2831 39.4824 44.4823C35.5176 43.8476 32.0801 40.7226 31.084 36.3671Z" fill="#B72732"/>
<path d="M37.9199 28.4766C37.793 27.3438 37.6172 26.211 37.373 25.088C36.582 21.4454 34.7363 16.0743 30.4688 11.2208C28.2227 8.6622 25.5176 6.52352 22.5293 4.90243C20.9863 4.06259 19.375 3.33016 17.7051 2.79305C16.123 2.28524 14.4824 1.91415 12.9395 2.77352C12.2461 3.16415 11.6602 3.71102 11.2305 4.37509C11.2207 4.38485 11.2207 4.39462 11.2109 4.40438L5.83008 11.4259C5.73242 11.5528 5.68359 11.7091 5.68359 11.8751C5.68359 12.2755 6.01562 12.6075 6.41602 12.6075C6.64062 12.6075 6.85547 12.5001 7.00195 12.3243C7.49023 11.6895 7.97852 11.045 8.4668 10.4102C9.35547 9.2579 10.2344 8.09579 11.123 6.94344C11.4453 6.52352 11.7773 6.1036 12.0996 5.68368C12.5488 5.08798 12.998 4.43368 13.6621 4.06259C13.9746 3.8868 14.3066 3.76962 14.6582 3.70126C14.5703 8.58407 14.209 13.4669 13.5742 18.3106C12.9395 23.1544 12.0312 27.9591 10.8594 32.7052C10.8496 32.7638 10.8398 32.8224 10.8398 32.8809C10.8398 33.2813 11.1719 33.6134 11.5723 33.6134C11.9043 33.6134 12.1973 33.379 12.2852 33.0567C13.4766 28.2618 14.3945 23.3985 15.0391 18.5059C15.6738 13.6524 16.0352 8.77938 16.1328 3.8868C21.4062 5.40048 25.8594 8.19345 29.3945 12.2071C33.4473 16.8263 35.2051 21.9434 35.9668 25.42C36.2012 26.4845 36.377 27.5684 36.4941 28.6524C36.5332 29.0235 36.8457 29.3067 37.2168 29.3067C37.2461 29.3067 37.2656 29.3067 37.2949 29.3067C37.6758 29.2384 37.9687 28.877 37.9199 28.4766Z" fill="#00A653"/>
<path d="M35.9766 29.4238C35.4493 29.4238 34.9122 29.3554 34.4044 29.2284C34.0137 29.1308 33.7794 28.7304 33.877 28.3398C33.9747 27.9492 34.3751 27.7148 34.7657 27.8124C36.2794 28.2031 37.8809 27.8417 39.0723 26.8261C39.3848 26.5624 39.8438 26.6015 40.1075 26.914C40.3712 27.2265 40.3321 27.6855 40.0196 27.9492C39.2872 28.5742 38.418 29.0234 37.4805 29.2577C36.9825 29.3554 36.4844 29.4238 35.9766 29.4238ZM11.9337 33.9452C10.9278 33.9452 9.94147 33.7011 9.0528 33.2421C8.69147 33.0566 8.55475 32.6171 8.73054 32.2558C8.91608 31.8945 9.35554 31.7577 9.71686 31.9335C9.71686 31.9335 9.71686 31.9335 9.72663 31.9335C11.1133 32.6562 12.7637 32.6562 14.1407 31.9335C14.502 31.748 14.9415 31.8847 15.127 32.246C15.3126 32.6074 15.1758 33.0468 14.8145 33.2324C13.9551 33.6718 13.0079 33.9159 12.0411 33.9355C12.002 33.9452 11.963 33.9452 11.9337 33.9452Z" fill="#B72732"/>
</svg>
