<svg width="100" height="100" viewBox="0 0 100 100" fill="none" xmlns="http://www.w3.org/2000/svg">
<path d="M58.75 47.6562C58.1641 47.6562 57.6367 47.3047 57.4023 46.7773L39.3164 5.56641C38.6133 3.96484 37.0312 2.92969 35.293 2.92969H21.7383C20.9375 2.92969 20.2734 2.26562 20.2734 1.46484C20.2734 0.664062 20.9375 0 21.7383 0H35.293C38.1836 0 40.8203 1.71875 41.9922 4.375L60.0781 45.6055C60.4102 46.3477 60.0586 47.207 59.3164 47.5391C59.1406 47.6172 58.9453 47.6562 58.75 47.6562Z" fill="#EE4267"/>
<path d="M63.0078 28.2813L84.2969 48.0859C85.5859 49.3359 86.3281 51.0547 86.3281 52.8516V63.9063C86.3281 72.8906 83.2422 81.6016 77.5586 88.5742C72.3828 94.9023 64.6289 98.5742 56.4453 98.5547H43.5547C35.3711 98.5742 27.6172 94.9219 22.4414 88.5742C16.7578 81.582 13.6719 72.8906 13.6719 63.9063V52.8516C13.6719 51.0547 14.4141 49.3359 15.7031 48.0859L35.6445 27.832L63.0078 28.2813Z" fill="#13AD4C"/>
<path d="M49.4141 98.5352C41.2305 98.5547 33.4766 94.9023 28.3008 88.5547C22.6367 81.582 19.5312 72.8711 19.5312 63.8867V52.832C19.5312 51.0352 20.2734 49.3164 21.5625 48.0664L41.5039 27.832H35.6445L15.7031 48.0859C14.4141 49.3359 13.6719 51.0547 13.6719 52.8516V63.9063C13.6719 72.8906 16.7578 81.6016 22.4414 88.5742C27.6172 94.9023 35.3711 98.5742 43.5547 98.5547H49.4141V98.5352Z" fill="#099247"/>
<path d="M85.7617 50.1562L70.9766 45.8203C68.0078 44.9414 64.8438 45.0586 61.9531 46.1523L55.3125 48.6328C51.9141 49.9023 48.1445 49.8242 44.7852 48.418L39.9023 46.3672C36.9727 45.1367 33.7109 44.9219 30.6445 45.7617C25.1562 47.2852 19.668 48.7891 14.1797 50.3125C14.2383 50.1758 14.2969 50.0586 14.3555 49.9414C14.3945 49.8633 14.4336 49.7852 14.4727 49.707C14.4922 49.6875 14.4922 49.6484 14.5117 49.6289C14.5508 49.5508 14.6094 49.4727 14.6484 49.3945C14.707 49.3164 14.7461 49.2188 14.8047 49.1406C14.8633 49.043 14.9414 48.9648 15 48.8672C15.0391 48.8086 15.0781 48.7695 15.1367 48.7109C15.1758 48.6719 15.1953 48.6328 15.2344 48.5938C15.3711 48.418 15.5273 48.2617 15.7031 48.1055L35.6445 27.8516L63.1641 27.8711L84.2969 48.1055C84.5312 48.3398 84.7461 48.5742 84.9414 48.8281C85 48.9062 85.0586 48.9844 85.0977 49.043C85.1172 49.0625 85.1172 49.082 85.1367 49.082C85.1758 49.1406 85.2148 49.1992 85.2539 49.2773C85.2734 49.2969 85.293 49.3359 85.3125 49.375C85.3516 49.4336 85.3906 49.4922 85.4102 49.5508C85.4297 49.5898 85.4492 49.6094 85.4688 49.6484C85.5273 49.7266 85.5664 49.8242 85.6055 49.9219C85.6445 50 85.6836 50.0977 85.7227 50.1758C85.7422 50.1367 85.7422 50.1562 85.7617 50.1562Z" fill="#13AD4C"/>
<path d="M85.7617 50.1562L70.9766 45.8203C68.0078 44.9414 64.8438 45.0586 61.9531 46.1523L55.3125 48.6328C51.9141 49.9023 48.1445 49.8242 44.7852 48.418L39.9023 46.3672C36.9727 45.1367 33.7109 44.9219 30.6445 45.7617C25.1562 47.2852 19.668 48.7891 14.1797 50.3125C14.2383 50.1758 14.2969 50.0586 14.3555 49.9414C14.3945 49.8633 14.4336 49.7852 14.4727 49.707C14.4922 49.6875 14.4922 49.6484 14.5117 49.6289C14.5508 49.5508 14.6094 49.4727 14.6484 49.3945C14.707 49.3164 14.7461 49.2188 14.8047 49.1406C14.8633 49.043 14.9414 48.9648 15 48.8672C15.0391 48.8086 15.0781 48.7695 15.1367 48.7109C15.1758 48.6719 15.1953 48.6328 15.2344 48.5938C15.3711 48.418 15.5273 48.2617 15.7031 48.1055L35.6445 27.8516L63.1641 27.8711L84.2969 48.1055C84.5312 48.3398 84.7461 48.5742 84.9414 48.8281C85 48.9062 85.0586 48.9844 85.0977 49.043C85.1172 49.0625 85.1172 49.082 85.1367 49.082C85.1758 49.1406 85.2148 49.1992 85.2539 49.2773C85.2734 49.2969 85.293 49.3359 85.3125 49.375C85.3516 49.4336 85.3906 49.4922 85.4102 49.5508C85.4297 49.5898 85.4492 49.6094 85.4688 49.6484C85.5273 49.7266 85.5664 49.8242 85.6055 49.9219C85.6445 50 85.6836 50.0977 85.7227 50.1758C85.7422 50.1367 85.7422 50.1562 85.7617 50.1562Z" fill="#FDEB96"/>
<path d="M21.5625 48.0859L41.5039 27.8516H35.6445L15.7031 48.0859C15.0586 48.6914 14.5508 49.4336 14.1992 50.2344C16.6016 49.5703 18.9844 48.9062 21.3867 48.2422C21.4453 48.1836 21.5039 48.1445 21.5625 48.0859Z" fill="#FDDE47"/>
</svg>
