<svg width="65" height="65" viewBox="0 0 65 65" fill="none" xmlns="http://www.w3.org/2000/svg">
<path d="M57.4844 43.875C57.6875 43.2656 57.8906 42.8594 58.0938 42.4531C58.0938 42.25 58.2969 41.8438 58.2969 41.6406C58.5 41.2344 58.5 40.8281 58.7031 40.4219C58.9062 39.8125 59.1094 39 59.3125 38.3906C59.3125 38.1875 59.3125 37.7812 59.5156 37.5781C59.7188 36.9688 59.7188 36.3594 59.7188 35.9531V35.1406C59.7188 34.3281 59.9219 33.5156 59.9219 32.7031C59.9219 17.4688 47.7344 5.28125 32.5 5.28125C17.2656 5.28125 5.07812 17.2656 5.07812 32.5C5.07812 33.3125 5.07812 34.125 5.28125 34.9375V35.75C5.28125 36.3594 5.48438 36.9687 5.48438 37.375C5.48438 37.5781 5.48437 37.9844 5.6875 38.1875C5.89062 38.7969 6.09375 39.6094 6.29687 40.2187C6.5 40.625 6.5 41.0312 6.70312 41.4375C6.70312 41.6406 6.90625 42.0469 6.90625 42.25C7.10938 42.6562 7.3125 43.2656 7.51562 43.6719C9.75 48.75 13.4062 52.8125 17.875 55.6562C18.8906 56.2656 19.9062 56.875 21.125 57.4844C21.5312 57.6875 22.1406 57.8906 22.5469 58.0938C22.75 58.0938 23.1562 58.2969 23.3594 58.2969C23.7656 58.5 24.1719 58.5 24.5781 58.7031C25.1875 58.9062 26 59.1094 26.6094 59.3125C26.8125 59.3125 27.2188 59.3125 27.4219 59.5156C28.0312 59.7187 28.6406 59.7188 29.0469 59.7188H29.8594C30.6719 59.7188 31.4844 59.9219 32.2969 59.9219C33.1094 59.9219 33.9219 59.9219 34.7344 59.7188H35.5469C36.1562 59.7188 36.7656 59.5156 37.1719 59.5156C37.375 59.5156 37.7812 59.5156 37.9844 59.3125C38.5938 59.1094 39.4062 58.9062 40.0156 58.7031C40.4219 58.5 40.8281 58.5 41.2344 58.2969C41.4375 58.2969 41.8438 58.0938 42.0469 58.0938C42.4531 57.8906 43.0625 57.6875 43.4688 57.4844C44.6875 56.875 45.7031 56.4688 46.7188 55.6562C51.5938 52.8125 55.25 48.75 57.4844 43.875Z" fill="#01A6FF"/>
<path d="M40.625 57.8906C39.8125 57.8906 39 57.8906 38.1875 57.6875H37.375C36.7656 57.6875 36.1562 57.4844 35.75 57.4844C35.5469 57.4844 35.1406 57.4844 34.9375 57.2812C34.3281 57.0781 33.5156 56.875 32.9063 56.6719C32.5 56.4687 32.0938 56.4688 31.6875 56.2656C31.4844 56.2656 31.0781 56.0625 30.875 56.0625C30.4688 55.8594 29.8594 55.6562 29.4531 55.4531C28.2344 54.8437 27.2188 54.4375 26.2031 53.625C21.7344 50.7812 18.0781 46.7188 15.8438 41.8438C15.6406 41.4375 15.4375 40.8281 15.2344 40.4219C15.2344 40.2187 15.0312 39.8125 15.0312 39.6094C14.8281 39.2031 14.8281 38.7969 14.625 38.3906C14.4219 37.7812 14.2188 36.9688 14.0156 36.3594C14.0156 36.1562 14.0156 35.75 13.8125 35.5469C13.6094 34.9375 13.6094 34.3281 13.6094 33.9219V33.1094C13.6094 32.2969 13.4062 31.4844 13.4062 30.6719C13.4062 19.2969 20.3125 9.54688 30.0625 5.48438C16.0469 6.5 5.07812 18.2812 5.07812 32.5C5.07812 33.3125 5.07812 34.125 5.28125 34.9375V35.75C5.28125 36.3594 5.48438 36.9688 5.48438 37.375C5.48438 37.5781 5.48437 37.9844 5.6875 38.1875C5.89062 38.7969 6.09375 39.6094 6.29687 40.2187C6.5 40.625 6.5 41.0312 6.70312 41.4375C6.70312 41.6406 6.90625 42.0469 6.90625 42.25C7.10938 42.6562 7.3125 43.2656 7.51562 43.6719C9.75 48.75 13.4062 52.8125 17.875 55.6562C18.8906 56.2656 19.9062 56.875 21.125 57.4844C21.5312 57.6875 22.1406 57.8906 22.5469 58.0938C22.75 58.0938 23.1562 58.2969 23.3594 58.2969C23.7656 58.5 24.1719 58.5 24.5781 58.7031C25.1875 58.9062 26 59.1094 26.6094 59.3125C26.8125 59.3125 27.2188 59.3125 27.4219 59.5156C28.0312 59.7187 28.6406 59.7187 29.0469 59.7187H29.8594C30.6719 59.7187 31.4844 59.9219 32.2969 59.9219C33.1094 59.9219 33.9219 59.9219 34.7344 59.7187H35.5469C36.1562 59.7187 36.7656 59.5156 37.1719 59.5156C37.375 59.5156 37.7812 59.5156 37.9844 59.3125C38.5938 59.1094 39.4062 58.9062 40.0156 58.7031C40.4219 58.5 40.8281 58.5 41.2344 58.2969C41.4375 58.2969 41.8438 58.0938 42.0469 58.0938C42.25 58.0938 42.4531 57.8906 42.8594 57.6875C42.25 57.8906 41.4375 57.8906 40.625 57.8906Z" fill="#006EF4"/>
<path d="M10.3594 54.6406C9.54688 53.8281 9.54688 52.6094 10.3594 51.7969L18.8906 43.2656L21.7344 46.1094L13.2031 54.6406C12.3906 55.4531 11.1719 55.4531 10.3594 54.6406Z" fill="#8A6845"/>
<path d="M40.5684 40.1823C44.9312 35.8193 44.9311 28.7456 40.5681 24.3828C36.2052 20.02 29.1315 20.0201 24.7687 24.3831C20.4059 28.7461 20.406 35.8197 24.769 40.1825C29.132 44.5453 36.2056 44.5452 40.5684 40.1823Z" fill="#90CFF1"/>
<path d="M40.5684 40.1823C44.9312 35.8193 44.9311 28.7456 40.5681 24.3828C36.2052 20.02 29.1315 20.0201 24.7687 24.3831C20.4059 28.7461 20.406 35.8197 24.769 40.1825C29.132 44.5453 36.2056 44.5452 40.5684 40.1823Z" fill="#90CFF1"/>
<path d="M38.4141 38.0277C41.587 34.8546 41.5869 29.7101 38.4139 26.5372C35.2408 23.3642 30.0963 23.3643 26.9234 26.5374C23.7504 29.7104 23.7505 34.8549 26.9236 38.0279C30.0966 41.2008 35.2411 41.2007 38.4141 38.0277Z" fill="white"/>
<path d="M38.5938 19.5C38.1875 19.5 37.5781 19.0938 37.5781 18.6875C36.3594 9.95312 34.125 6.09375 32.5 6.09375C30.875 6.09375 28.6406 9.95312 27.4219 18.6875C27.4219 19.2969 26.8125 19.7031 26.2031 19.5C25.5938 19.5 25.1875 18.8906 25.3906 18.2812C26.2031 13 28.2344 4.0625 32.5 4.0625C36.7656 4.0625 38.7969 13 39.6094 18.4844C39.6094 18.8906 39.4062 19.5 38.5938 19.5ZM32.5 60.9375C28.2344 60.9375 26.2031 52 25.3906 46.5156C25.3906 45.9062 25.5938 45.5 26.2031 45.2969C26.8125 45.2969 27.2188 45.5 27.4219 46.1094C28.8438 54.8438 31.0781 58.7031 32.5 58.7031C33.9219 58.7031 36.3594 54.8438 37.5781 46.1094C37.5781 45.5 38.1875 45.0938 38.7969 45.2969C39.4062 45.2969 39.8125 45.9062 39.6094 46.5156C38.7969 52 36.7656 60.9375 32.5 60.9375ZM11.7813 56.2656C10.9688 56.2656 10.1563 56.0625 9.54688 55.4531C8.32812 54.2344 8.32812 52.4062 9.54688 51.1875L18.2812 42.4531C18.6875 42.0469 19.2969 42.0469 19.7031 42.4531L22.5469 45.2969C22.9531 45.7031 22.9531 46.3125 22.5469 46.7188L14.0156 55.25C13.4063 55.8594 12.5938 56.2656 11.7813 56.2656ZM11.1719 53.8281C11.5781 54.2344 12.1875 54.2344 12.5938 53.8281L20.5156 45.9062L19.0937 44.4844L11.1719 52.4062C10.7656 52.8125 10.7656 53.4219 11.1719 53.8281Z" fill="#004463"/>
<path d="M20.5156 45.5001C20.3125 45.5001 19.9062 45.5001 19.7031 45.297C19.2969 44.8907 19.2969 44.2814 19.7031 43.8751L23.9688 39.6095C24.375 39.2032 24.9844 39.2032 25.3906 39.6095C25.7969 40.0157 25.7969 40.6251 25.3906 41.0314L21.125 45.297C20.9219 45.5001 20.7188 45.5001 20.5156 45.5001ZM18.4844 39.6095C13 38.797 4.0625 36.7657 4.0625 32.5001C4.0625 28.2345 13 26.2032 18.4844 25.3907C19.0938 25.3907 19.5 25.5939 19.7031 26.2032C19.7031 26.8126 19.5 27.2189 18.8906 27.422C9.95312 28.6407 6.09375 30.8751 6.09375 32.5001C6.09375 34.1251 9.95312 36.3595 18.6875 37.5782C19.2969 37.5782 19.7031 38.1876 19.5 38.797C19.5 39.2032 19.0938 39.6095 18.4844 39.6095ZM46.5156 39.6095C46.1094 39.6095 45.5 39.2032 45.5 38.797C45.5 38.1876 45.7031 37.7814 46.3125 37.5782C55.0469 36.1564 58.9062 33.922 58.9062 32.5001C58.9062 31.0782 55.0469 28.6407 46.3125 27.422C45.7031 27.422 45.2969 26.8126 45.5 26.2032C45.5 25.5939 46.1094 25.1876 46.7188 25.3907C52 26.2032 61.1406 28.2345 61.1406 32.5001C61.1406 36.7657 52 38.797 46.5156 39.6095Z" fill="#004463"/>
<path d="M32.5 60.9375C27.2188 60.9375 21.9375 59.5156 17.4688 56.4688C17.0625 56.2656 16.8594 55.4531 17.0625 55.0469C17.2656 54.6406 18.0781 54.4375 18.4844 54.6406C22.75 57.2812 27.625 58.7031 32.5 58.7031C47.125 58.7031 58.9062 46.9219 58.9062 32.2969C58.9062 17.6719 47.125 6.09375 32.5 6.09375C17.875 6.09375 6.09375 17.875 6.09375 32.5C6.09375 37.375 7.51562 42.25 10.1562 46.5156C10.3594 46.9219 10.3594 47.5312 9.75 47.9375C9.34375 48.1406 8.73438 48.1406 8.32812 47.5312C5.48437 43.0625 4.0625 37.7812 4.0625 32.5C4.0625 16.8594 16.8594 4.0625 32.5 4.0625C48.1406 4.0625 60.9375 16.8594 60.9375 32.5C60.9375 48.1406 48.1406 60.9375 32.5 60.9375Z" fill="#004463"/>
<path d="M32.5 52.8125C29.25 52.8125 26 52.4062 22.75 51.5938C22.1406 51.3906 21.9375 50.9844 21.9375 50.375C22.1406 49.7656 22.5469 49.5625 23.1562 49.5625C26.2031 50.375 29.25 50.7812 32.2969 50.7812C46.9219 50.7812 58.7031 42.6562 58.7031 32.5C58.7031 22.3438 46.9219 14.2188 32.2969 14.2188C17.6719 14.2188 6.09375 22.3438 6.09375 32.5C6.09375 36.7656 8.32812 40.8281 12.1875 44.0781C12.5938 44.4844 12.5938 45.0938 12.3906 45.5C11.9844 45.9062 11.375 45.9062 10.9688 45.7031C6.5 42.0469 4.0625 37.375 4.0625 32.5C4.0625 21.3281 16.8594 12.1875 32.5 12.1875C48.1406 12.1875 60.9375 21.3281 60.9375 32.5C60.9375 43.6719 48.1406 52.8125 32.5 52.8125Z" fill="#004463"/>
<path d="M32.5 60.9375C27.625 60.9375 22.9531 58.5 19.2969 54.2344C18.8906 53.8281 18.8906 53.2188 19.5 52.8125C19.9063 52.4062 20.5156 52.4062 20.9219 53.0156C24.1719 56.875 28.2344 59.1094 32.5 59.1094C42.6562 59.1094 50.7812 47.3281 50.7812 32.7031C50.7812 18.0781 42.6562 6.09375 32.5 6.09375C22.3438 6.09375 14.2188 17.875 14.2188 32.5C14.2188 35.5469 14.625 38.7969 15.4375 41.6406C15.6406 42.25 15.2344 42.6562 14.625 42.8594C14.0156 43.0625 13.6094 42.6562 13.4062 42.0469C12.5937 39 12.1875 35.75 12.1875 32.5C12.1875 16.8594 21.3281 4.0625 32.5 4.0625C43.6719 4.0625 52.8125 16.8594 52.8125 32.5C52.8125 48.1406 43.6719 60.9375 32.5 60.9375Z" fill="#004463"/>
<path d="M32.7031 38.3905C28.4375 34.1249 28.4375 27.0155 32.7031 22.5468C33.1094 22.1405 33.7187 21.7343 34.3281 21.328C30.875 20.9218 27.4219 21.9374 24.7812 24.3749C20.5156 28.6405 20.5156 35.7499 24.7812 40.2186C28.6406 44.078 34.7344 44.4843 39 41.4374C36.7656 41.2343 34.5313 40.2186 32.7031 38.3905Z" fill="#70B7E6"/>
<path d="M32.7031 38.3906C28.8438 34.5312 28.4375 28.6406 31.2812 24.375C29.6562 24.5781 28.2344 25.3906 27.0156 26.6094C23.7656 29.8594 23.7656 34.9375 27.0156 38.1875C29.25 40.4219 32.2969 41.0312 35.1406 40.2187C34.125 39.6094 33.5156 39 32.7031 38.3906Z" fill="#D5E5F2"/>
<path d="M32.7031 44.4844C29.6563 44.4844 26.4062 43.2656 24.1719 40.8281C19.5 36.1562 19.5 28.4375 24.1719 23.5625C28.8438 18.8906 36.5625 18.8906 41.4375 23.5625C46.1094 28.2344 46.1094 35.9531 41.4375 40.8281C39 43.2656 35.75 44.4844 32.7031 44.4844ZM25.3906 39.6094C29.25 43.4688 35.75 43.4688 39.8125 39.6094C43.6719 35.5469 43.6719 29.25 39.8125 25.1875C35.9531 21.125 29.4531 21.3281 25.3906 25.1875C21.3281 29.0469 21.5313 35.5469 25.3906 39.6094Z" fill="#004463"/>
</svg>
