<svg width="30" height="30" viewBox="0 0 30 30" fill="none" xmlns="http://www.w3.org/2000/svg">
<path d="M21.2938 7.5H16.9688C16.9688 6.97785 16.7614 6.4771 16.3921 6.10788C16.0229 5.73867 15.5222 5.53125 15 5.53125C14.4779 5.53125 13.9771 5.73867 13.6079 6.10788C13.2387 6.4771 13.0313 6.97785 13.0313 7.5H8.70627C8.39299 7.5 8.09253 7.62445 7.871 7.84598C7.64948 8.06751 7.52502 8.36796 7.52502 8.68125C7.52502 8.99454 7.64948 9.29499 7.871 9.51652C8.09253 9.73805 8.39299 9.8625 8.70627 9.8625L9.37502 22.5812C9.39908 23.0859 9.61622 23.562 9.98152 23.911C10.3468 24.26 10.8323 24.4552 11.3375 24.4562H18.6438C19.149 24.4552 19.6345 24.26 19.9998 23.911C20.3651 23.562 20.5822 23.0859 20.6063 22.5812L21.2938 9.8875C21.6071 9.8875 21.9075 9.76305 22.129 9.54152C22.3506 9.31999 22.475 9.01954 22.475 8.70625C22.475 8.39296 22.3506 8.09251 22.129 7.87098C21.9075 7.64945 21.6071 7.525 21.2938 7.525V7.5ZM13.7938 20.4812C13.7938 20.6901 13.7108 20.8904 13.5631 21.0381C13.4154 21.1858 13.2151 21.2687 13.0063 21.2687C12.7974 21.2687 12.5971 21.1858 12.4494 21.0381C12.3017 20.8904 12.2188 20.6901 12.2188 20.4812V12.6375C12.2188 12.4286 12.3017 12.2283 12.4494 12.0807C12.5971 11.933 12.7974 11.85 13.0063 11.85C13.2151 11.85 13.4154 11.933 13.5631 12.0807C13.7108 12.2283 13.7938 12.4286 13.7938 12.6375V20.4812ZM17.725 20.4812C17.7348 20.5901 17.7217 20.6999 17.6867 20.8034C17.6517 20.907 17.5955 21.0022 17.5217 21.0828C17.448 21.1635 17.3582 21.2279 17.2581 21.272C17.1581 21.3161 17.05 21.3388 16.9406 21.3388C16.8313 21.3388 16.7232 21.3161 16.6232 21.272C16.5231 21.2279 16.4333 21.1635 16.3596 21.0828C16.2858 21.0022 16.2296 20.907 16.1946 20.8034C16.1596 20.6999 16.1465 20.5901 16.1563 20.4812V12.6375C16.1738 12.4416 16.264 12.2593 16.4092 12.1265C16.5543 11.9937 16.7439 11.9201 16.9406 11.9201C17.1374 11.9201 17.327 11.9937 17.4721 12.1265C17.6173 12.2593 17.7075 12.4416 17.725 12.6375V20.4812Z" fill="#E5303E"/>
</svg>
