<svg width="20" height="20" viewBox="0 0 20 20" fill="none" xmlns="http://www.w3.org/2000/svg">
<g clip-path="url(#clip0_229_1194)">
<path d="M15.8333 18.3332H4.16667C3.0616 18.3332 2.00179 17.8942 1.22039 17.1128C0.438987 16.3314 0 15.2716 0 14.1665L0 5.83317C0 4.7281 0.438987 3.66829 1.22039 2.88689C2.00179 2.10549 3.0616 1.6665 4.16667 1.6665H15.8333C16.3805 1.6665 16.9223 1.77428 17.4278 1.98367C17.9334 2.19307 18.3927 2.49998 18.7796 2.88689C19.1665 3.2738 19.4734 3.73313 19.6828 4.23866C19.8922 4.74418 20 5.286 20 5.83317V14.1665C20 14.7137 19.8922 15.2555 19.6828 15.761C19.4734 16.2665 19.1665 16.7259 18.7796 17.1128C18.3927 17.4997 17.9334 17.8066 17.4278 18.016C16.9223 18.2254 16.3805 18.3332 15.8333 18.3332ZM4.16667 3.33317C3.50363 3.33317 2.86774 3.59656 2.3989 4.0654C1.93006 4.53424 1.66667 5.17013 1.66667 5.83317V14.1665C1.66667 14.8295 1.93006 15.4654 2.3989 15.9343C2.86774 16.4031 3.50363 16.6665 4.16667 16.6665H15.8333C16.4964 16.6665 17.1323 16.4031 17.6011 15.9343C18.0699 15.4654 18.3333 14.8295 18.3333 14.1665V5.83317C18.3333 5.17013 18.0699 4.53424 17.6011 4.0654C17.1323 3.59656 16.4964 3.33317 15.8333 3.33317H4.16667Z" fill="white"/>
<path d="M9.99998 11.0665C9.4439 11.0665 8.89346 10.9551 8.38109 10.739C7.86872 10.5229 7.40479 10.2064 7.01665 9.80821L1.30831 3.97488C1.1525 3.81685 1.06584 3.6034 1.0674 3.38149C1.06897 3.15957 1.15862 2.94736 1.31665 2.79155C1.47467 2.63573 1.68812 2.54907 1.91004 2.55064C2.13196 2.5522 2.34417 2.64185 2.49998 2.79988L8.19998 8.63321C8.67828 9.10247 9.32159 9.36535 9.99165 9.36535C10.6617 9.36535 11.305 9.10247 11.7833 8.63321L17.4833 2.79988C17.5599 2.72109 17.6513 2.65815 17.7522 2.61467C17.8531 2.57119 17.9616 2.54802 18.0715 2.54647C18.1814 2.54492 18.2905 2.56503 18.3926 2.60565C18.4947 2.64627 18.5879 2.70661 18.6666 2.78321C18.7454 2.85982 18.8084 2.95119 18.8519 3.05212C18.8953 3.15304 18.9185 3.26154 18.9201 3.37143C18.9216 3.48131 18.9015 3.59042 18.8609 3.69253C18.8203 3.79464 18.7599 3.88775 18.6833 3.96655L12.975 9.79988C12.5885 10.1986 12.1263 10.516 11.6154 10.7336C11.1045 10.9511 10.5552 11.0643 9.99998 11.0665Z" fill="white"/>
</g>
<defs>
<clipPath id="clip0_229_1194">
<rect width="20" height="20" fill="white"/>
</clipPath>
</defs>
</svg>
