<svg width="20" height="20" viewBox="0 0 20 20" fill="none" xmlns="http://www.w3.org/2000/svg">
<path fill-rule="evenodd" clip-rule="evenodd" d="M10 20C12.6522 20 15.1957 18.9464 17.0711 17.0711C18.9464 15.1957 20 12.6522 20 10C20 7.34783 18.9464 4.8043 17.0711 2.92893C15.1957 1.05357 12.6522 0 10 0C7.34783 0 4.8043 1.05357 2.92893 2.92893C1.05357 4.8043 0 7.34783 0 10C0 12.6522 1.05357 15.1957 2.92893 17.0711C4.8043 18.9464 7.34783 20 10 20ZM4.5096 15.4752L5.6424 12.0752L10.8096 6.9344L10.816 6.9264H10.8128L11.8816 5.856C11.9636 5.7747 12.0609 5.71039 12.1679 5.66674C12.2748 5.62308 12.3893 5.60095 12.5048 5.6016C12.7312 5.6016 12.9576 5.6864 13.1288 5.856L14.1448 6.8736C14.3083 7.03983 14.3999 7.26365 14.3999 7.4968C14.3999 7.72995 14.3083 7.95376 14.1448 8.12L13.0752 9.1888L13.0688 9.1808L7.908 14.3424L4.5096 15.4752ZM5.7752 14.2096L7.2016 13.7344L6.2496 12.7824L5.7752 14.2096ZM7.8576 13.2592L12.2256 8.8936L11.0936 7.78L6.7264 12.128L7.8576 13.2592ZM12.7952 8.336L13.5784 7.5528C13.6152 7.5168 13.6152 7.4744 13.5784 7.4376L12.5624 6.42C12.5256 6.3832 12.484 6.3832 12.4472 6.42L11.656 7.212L12.7952 8.336Z" fill="black"/>
</svg>
