<svg width="30" height="30" viewBox="0 0 30 30" fill="none" xmlns="http://www.w3.org/2000/svg">
<path d="M15 1.87256C7.76128 1.87256 1.87256 7.76146 1.87256 14.9999C1.87256 22.2386 7.76128 28.1277 15 28.1277C22.2383 28.1277 28.1275 22.2386 28.1275 14.9999C28.1275 7.76146 22.2383 1.87256 15 1.87256ZM18.7102 10.1596C18.7102 10.2218 18.6855 10.2814 18.6415 10.3253C18.5976 10.3693 18.538 10.394 18.4758 10.394L16.9835 10.3949C15.9989 10.3949 15.8189 10.7783 15.8189 11.5335V13.1001H18.3783C18.4456 13.1001 18.5098 13.1291 18.5541 13.1797C18.5984 13.2304 18.619 13.2976 18.6108 13.3644L18.2464 16.1847C18.2391 16.2412 18.2114 16.2931 18.1687 16.3307C18.1259 16.3683 18.0708 16.3891 18.0139 16.389H15.8189V23.3919C15.8189 23.4541 15.7942 23.5137 15.7503 23.5577C15.7063 23.6016 15.6467 23.6263 15.5845 23.6263H12.6726C12.6105 23.6263 12.5509 23.6016 12.5069 23.5577C12.463 23.5137 12.4383 23.4541 12.4383 23.3919V16.389H10.2363C10.1741 16.389 10.1145 16.3644 10.0706 16.3204C10.0266 16.2764 10.0019 16.2168 10.0019 16.1547V13.3344C10.0019 13.2723 10.0266 13.2127 10.0706 13.1687C10.1145 13.1248 10.1741 13.1001 10.2363 13.1001H12.4383V11.2544C12.4383 8.80982 13.9177 7.29154 16.2996 7.29154C17.3236 7.29154 18.2285 7.36771 18.5065 7.40451C18.5629 7.41196 18.6146 7.43961 18.652 7.48234C18.6895 7.52507 18.7102 7.57995 18.7102 7.63678V10.1596Z" fill="white"/>
</svg>
