<svg width="100" height="100" viewBox="0 0 100 100" fill="none" xmlns="http://www.w3.org/2000/svg">
<path d="M53.897 42.0753C53.6103 42.0765 53.3293 41.9955 53.0871 41.842C52.845 41.6884 52.652 41.4687 52.5309 41.2088C51.13 38.1642 50.0801 34.97 49.4015 31.688C48.2732 25.9555 48.8141 21.2355 51.008 17.6481C50.4146 15.9283 50.252 14.0892 50.5344 12.292C51.0614 8.98682 53.1462 5.84443 56.1113 3.88605C58.8976 2.04604 62.386 1.21053 65.9311 1.53239C66.126 1.54737 66.316 1.60101 66.49 1.6902C66.664 1.77938 66.8185 1.90232 66.9445 2.05184C67.0705 2.20136 67.1654 2.37447 67.2238 2.56107C67.2822 2.74767 67.3028 2.94403 67.2845 3.13869C67.2662 3.33335 67.2093 3.52241 67.1171 3.69485C67.025 3.8673 66.8994 4.01966 66.7478 4.14306C66.5961 4.26647 66.4214 4.35844 66.2338 4.41361C66.0462 4.46878 65.8496 4.48604 65.6552 4.4644C62.7933 4.20456 59.998 4.86687 57.7825 6.33C55.4976 7.83904 53.8946 10.2382 53.4945 12.7478C53.4074 13.296 53.3764 13.8516 53.4021 14.4061C54.2048 13.5225 55.2241 12.8637 56.3593 12.4946C57.3946 12.1849 58.495 12.1646 59.541 12.436C60.3819 12.6525 61.1683 13.0423 61.8497 13.5805C62.531 14.1187 63.0924 14.7934 63.4976 15.5614C63.9701 16.5213 64.1846 17.5877 64.1198 18.6557C64.055 19.7236 63.7133 20.7563 63.1282 21.6521C62.6406 22.4307 61.9555 23.0661 61.1424 23.4938C60.3294 23.9215 59.4176 24.1261 58.4998 24.0867C56.8505 24.0257 55.1582 23.2545 53.7349 21.915C53.3801 21.5806 53.0499 21.221 52.747 20.839C50.0723 27.6438 53.9082 37.0532 55.2614 39.9965C55.342 40.1733 55.3865 40.3644 55.3925 40.5585C55.3984 40.7527 55.3655 40.9461 55.2958 41.1275C55.2262 41.3088 55.121 41.4745 54.9866 41.6147C54.8522 41.755 54.6912 41.867 54.5129 41.9444C54.3191 42.0307 54.1092 42.0753 53.897 42.0753ZM54.3877 17.9438C54.7612 18.6293 55.2402 19.2518 55.8072 19.7884C56.7003 20.6289 57.6967 21.1104 58.6126 21.1444C59.0113 21.1608 59.4071 21.0691 59.7579 20.8789C60.1087 20.6886 60.4015 20.407 60.6052 20.0639C60.9098 19.5981 61.09 19.062 61.1285 18.5068C61.167 17.9516 61.0625 17.3958 60.825 16.8924C60.6166 16.4978 60.3281 16.1512 59.9779 15.8747C59.6276 15.5981 59.2235 15.3979 58.7913 15.2868C58.2841 15.1545 57.7506 15.1615 57.2471 15.3069C56.0991 15.6568 55.1882 16.786 54.3877 17.9438Z" fill="#00A653"/>
<path d="M71.307 54.576C75.7197 54.576 79.2968 51.0605 79.2968 46.724C79.2968 42.3875 75.7197 38.8721 71.307 38.8721C66.8943 38.8721 63.3171 42.3875 63.3171 46.724C63.3171 51.0605 66.8943 54.576 71.307 54.576Z" fill="#803091"/>
<path d="M71.307 50.6698C69.5464 50.6798 67.8321 50.1064 66.4317 49.0392C65.0314 47.9721 64.0239 46.4712 63.5665 44.771C63.4006 45.4088 63.3168 46.0651 63.3171 46.7241C63.3171 51.0606 66.8943 54.576 71.307 54.576C75.7197 54.576 79.2969 51.0606 79.2969 46.7241C79.2972 46.0651 79.2134 45.4088 79.0475 44.771C78.5901 46.4712 77.5826 47.9721 76.1823 49.0392C74.7819 50.1064 73.0676 50.6798 71.307 50.6698Z" fill="#692B7C"/>
<path d="M55.8477 90.7188C55.8477 95.0352 52.2793 98.5352 47.877 98.5352C43.4766 98.5352 39.9082 95.0352 39.9082 90.7188C39.919 89.0096 40.4879 87.3508 41.5283 85.9948C42.5688 84.6388 44.0238 83.6599 45.6719 83.207C46.3892 83.0037 47.1314 82.9012 47.877 82.9024C52.2305 82.9024 55.7695 86.3262 55.8457 90.5781C55.8477 90.625 55.8477 90.6719 55.8477 90.7188Z" fill="#803091"/>
<path d="M55.5954 88.7704C55.1249 90.456 54.1156 91.9411 52.7216 92.999C51.3276 94.0569 49.6256 94.6293 47.8757 94.6288C46.1257 94.6284 44.424 94.055 43.0306 92.9963C41.6372 91.9376 40.6287 90.4519 40.1592 88.7661C39.9922 89.4035 39.9078 90.0598 39.9082 90.7187C39.9082 95.0351 43.4766 98.5351 47.877 98.5351C52.2793 98.5351 55.8477 95.0351 55.8477 90.7187C55.8477 90.6718 55.8477 90.6249 55.8457 90.578C55.8345 89.9677 55.7504 89.3609 55.5954 88.7704Z" fill="#692B7C"/>
<path d="M41.924 88.9293C46.3257 88.9293 49.8939 85.4297 49.8939 81.1127C49.8939 76.7958 46.3257 73.2961 41.924 73.2961C37.5224 73.2961 33.9541 76.7958 33.9541 81.1127C33.9541 85.4297 37.5224 88.9293 41.924 88.9293Z" fill="#803091"/>
<path d="M41.9242 85.0231C40.171 85.0342 38.4633 84.4651 37.0672 83.4046C35.671 82.3441 34.6648 80.8516 34.2052 79.1597C34.0382 79.7973 33.9539 80.4537 33.9543 81.1128C33.9543 85.4298 37.5226 88.9293 41.9242 88.9293C46.3259 88.9293 49.8941 85.4298 49.8941 81.1128C49.8945 80.4537 49.8102 79.7973 49.6433 79.1597C49.1837 80.8516 48.1774 82.3441 46.7813 83.4046C45.3851 84.4651 43.6774 85.0342 41.9242 85.0231Z" fill="#692B7C"/>
<path d="M61.6094 81.1132C61.6094 85.4296 58.041 88.9296 53.6387 88.9296C49.2363 88.9296 45.6699 85.4296 45.6699 81.1132C45.6699 77.0781 48.7852 73.7578 52.7871 73.3417C53.07 73.312 53.3542 73.297 53.6387 73.2968C55.4251 73.2846 57.1634 73.8752 58.5726 74.9732C59.9818 76.0712 60.9794 77.6124 61.4043 79.3476C61.5413 79.9261 61.6101 80.5187 61.6094 81.1132Z" fill="#803091"/>
<path d="M61.3571 79.1648C60.8868 80.8502 59.8777 82.3352 58.484 83.3931C57.0903 84.451 55.3886 85.0236 53.6389 85.0234C51.8892 85.0233 50.1876 84.4504 48.7941 83.3923C47.4006 82.3341 46.3918 80.849 45.9217 79.1636C45.7547 79.8 45.6701 80.4553 45.6699 81.1133C45.6699 85.4297 49.2363 88.9297 53.6387 88.9297C58.041 88.9297 61.6094 85.4297 61.6094 81.1133C61.6101 80.5187 61.5413 79.9262 61.4043 79.3476C61.3899 79.2862 61.373 79.2257 61.3571 79.1648Z" fill="#692B7C"/>
<path d="M60.5524 77.4398C64.9541 77.4398 68.5224 73.9402 68.5224 69.6232C68.5224 65.3063 64.9541 61.8066 60.5524 61.8066C56.1508 61.8066 52.5825 65.3063 52.5825 69.6232C52.5825 73.9402 56.1508 77.4398 60.5524 77.4398Z" fill="#803091"/>
<path d="M60.5524 73.5336C58.7992 73.5447 57.0915 72.9756 55.6953 71.9151C54.2992 70.8546 53.2929 69.3621 52.8333 67.6702C52.6664 68.3078 52.5821 68.9642 52.5825 69.6233C52.5825 73.9402 56.1508 77.4398 60.5524 77.4398C64.954 77.4398 68.5223 73.9402 68.5223 69.6233C68.5227 68.9642 68.4384 68.3078 68.2714 67.6702C67.8118 69.3621 66.8056 70.8546 65.4094 71.9151C64.0133 72.9756 62.3056 73.5447 60.5524 73.5336Z" fill="#692B7C"/>
<path d="M65.5456 66.0302C69.9473 66.0302 73.5155 62.5306 73.5155 58.2136C73.5155 53.8966 69.9473 50.397 65.5456 50.397C61.1439 50.397 57.5757 53.8966 57.5757 58.2136C57.5757 62.5306 61.1439 66.0302 65.5456 66.0302Z" fill="#803091"/>
<path d="M65.5456 62.1237C63.7923 62.1348 62.0847 61.5657 60.6885 60.5052C59.2924 59.4447 58.2861 57.9522 57.8265 56.2603C57.6595 56.8979 57.5752 57.5543 57.5757 58.2134C57.5757 62.5303 61.1439 66.0299 65.5456 66.0299C69.9472 66.0299 73.5154 62.5303 73.5154 58.2134C73.5159 57.5543 73.4316 56.8979 73.2646 56.2603C72.805 57.9522 71.7988 59.4447 70.4026 60.5052C69.0065 61.5657 67.2988 62.1348 65.5456 62.1237Z" fill="#692B7C"/>
<path d="M55.7514 66.0302C60.1531 66.0302 63.7213 62.5306 63.7213 58.2136C63.7213 53.8966 60.1531 50.397 55.7514 50.397C51.3497 50.397 47.7815 53.8966 47.7815 58.2136C47.7815 62.5306 51.3497 66.0302 55.7514 66.0302Z" fill="#803091"/>
<path d="M48.8376 77.4398C53.2393 77.4398 56.8075 73.9402 56.8075 69.6232C56.8075 65.3063 53.2393 61.8066 48.8376 61.8066C44.4359 61.8066 40.8677 65.3063 40.8677 69.6232C40.8677 73.9402 44.4359 77.4398 48.8376 77.4398Z" fill="#803091"/>
<path d="M48.8378 73.5336C47.0846 73.5447 45.3769 72.9756 43.9807 71.9151C42.5846 70.8546 41.5783 69.3621 41.1188 67.6702C40.9518 68.3078 40.8675 68.9642 40.8679 69.6233C40.8679 73.9402 44.4362 77.4398 48.8378 77.4398C53.2394 77.4398 56.8077 73.9402 56.8077 69.6233C56.8081 68.9642 56.7238 68.3078 56.5568 67.6702C56.0973 69.3621 55.091 70.8546 53.6949 71.9151C52.2987 72.9756 50.591 73.5447 48.8378 73.5336ZM55.7514 62.1237C53.9982 62.1348 52.2905 61.5657 50.8944 60.5052C49.4982 59.4447 48.492 57.9522 48.0324 56.2603C47.8654 56.8979 47.7811 57.5543 47.7816 58.2134C47.7816 62.5303 51.3498 66.0299 55.7514 66.0299C60.1531 66.0299 63.7213 62.5303 63.7213 58.2134C63.7218 57.5543 63.6375 56.8979 63.4705 56.2603C63.0109 57.9522 62.0046 59.4447 60.6085 60.5052C59.2123 61.5657 57.5047 62.1348 55.7514 62.1237Z" fill="#692B7C"/>
<path d="M37.3151 77.4398C41.7168 77.4398 45.2851 73.9402 45.2851 69.6232C45.2851 65.3063 41.7168 61.8066 37.3151 61.8066C32.9135 61.8066 29.3452 65.3063 29.3452 69.6232C29.3452 73.9402 32.9135 77.4398 37.3151 77.4398Z" fill="#803091"/>
<path d="M45.0341 67.6702C44.5646 69.3565 43.5557 70.8427 42.1618 71.9015C40.7679 72.9603 39.0656 73.5336 37.3151 73.5336C35.5646 73.5336 33.8623 72.9603 32.4684 71.9015C31.0744 70.8427 30.0656 69.3565 29.596 67.6702C29.4291 68.3078 29.3448 68.9642 29.3452 69.6233C29.3452 73.9402 32.9134 77.4398 37.3151 77.4398C41.7167 77.4398 45.285 73.9402 45.285 69.6233C45.2854 68.9642 45.2011 68.3078 45.0341 67.6702Z" fill="#692B7C"/>
<path d="M32.7058 66.0302C37.1074 66.0302 40.6757 62.5306 40.6757 58.2136C40.6757 53.8966 37.1074 50.397 32.7058 50.397C28.3041 50.397 24.7358 53.8966 24.7358 58.2136C24.7358 62.5306 28.3041 66.0302 32.7058 66.0302Z" fill="#803091"/>
<path d="M32.706 62.1237C30.9527 62.1348 29.2451 61.5657 27.8489 60.5052C26.4527 59.4447 25.4465 57.9522 24.9869 56.2603C24.8199 56.8979 24.7356 57.5543 24.7361 58.2134C24.7361 62.5303 28.3043 66.0299 32.706 66.0299C37.1076 66.0299 40.6758 62.5303 40.6758 58.2134C40.6763 57.5543 40.592 56.8979 40.425 56.2603C39.9654 57.9522 38.9592 59.4447 37.563 60.5052C36.1669 61.5657 34.4592 62.1348 32.706 62.1237Z" fill="#692B7C"/>
<path d="M44.2287 66.0302C48.6304 66.0302 52.1986 62.5306 52.1986 58.2136C52.1986 53.8966 48.6304 50.397 44.2287 50.397C39.827 50.397 36.2588 53.8966 36.2588 58.2136C36.2588 62.5306 39.827 66.0302 44.2287 66.0302Z" fill="#803091"/>
<path d="M44.2287 62.1237C42.4754 62.1348 40.7677 61.5657 39.3716 60.5052C37.9754 59.4447 36.9692 57.9522 36.5096 56.2603C36.3426 56.8979 36.2583 57.5543 36.2588 58.2134C36.2588 62.5303 39.827 66.0299 44.2287 66.0299C48.6303 66.0299 52.1985 62.5303 52.1985 58.2134C52.199 57.5543 52.1147 56.8979 51.9477 56.2603C51.4881 57.9522 50.4819 59.4447 49.0857 60.5052C47.6896 61.5657 45.9819 62.1348 44.2287 62.1237Z" fill="#692B7C"/>
<path d="M63.4333 54.5407C67.835 54.5407 71.4032 51.0411 71.4032 46.7241C71.4032 42.4071 67.835 38.9075 63.4333 38.9075C59.0316 38.9075 55.4634 42.4071 55.4634 46.7241C55.4634 51.0411 59.0316 54.5407 63.4333 54.5407Z" fill="#803091"/>
<path d="M63.4333 50.6344C61.68 50.6455 59.9723 50.0765 58.5762 49.0159C57.18 47.9554 56.1738 46.463 55.7142 44.771C55.5472 45.4086 55.4629 46.065 55.4634 46.7241C55.4634 51.0411 59.0316 54.5407 63.4333 54.5407C67.8349 54.5407 71.4031 51.0411 71.4031 46.7241C71.4036 46.065 71.3193 45.4086 71.1523 44.771C70.6927 46.463 69.6865 47.9554 68.2903 49.0159C66.8942 50.0765 65.1865 50.6455 63.4333 50.6344Z" fill="#692B7C"/>
<path d="M28.673 54.5407C33.0747 54.5407 36.643 51.0411 36.643 46.7241C36.643 42.4071 33.0747 38.9075 28.673 38.9075C24.2714 38.9075 20.7031 42.4071 20.7031 46.7241C20.7031 51.0411 24.2714 54.5407 28.673 54.5407Z" fill="#803091"/>
<path d="M28.673 50.6344C26.9198 50.6455 25.2121 50.0765 23.8159 49.0159C22.4198 47.9554 21.4135 46.463 20.954 44.771C20.787 45.4086 20.7027 46.065 20.7031 46.7241C20.7031 51.0411 24.2714 54.5407 28.673 54.5407C33.0746 54.5407 36.6429 51.0411 36.6429 46.7241C36.6433 46.065 36.559 45.4086 36.392 44.771C35.9325 46.463 34.9262 47.9554 33.5301 49.0159C32.1339 50.0765 30.4262 50.6455 28.673 50.6344Z" fill="#692B7C"/>
<path d="M40.3876 54.5407C44.7893 54.5407 48.3576 51.0411 48.3576 46.7241C48.3576 42.4071 44.7893 38.9075 40.3876 38.9075C35.986 38.9075 32.4177 42.4071 32.4177 46.7241C32.4177 51.0411 35.986 54.5407 40.3876 54.5407Z" fill="#803091"/>
<path d="M40.3878 50.6344C38.6346 50.6455 36.9269 50.0765 35.5308 49.0159C34.1346 47.9554 33.1284 46.463 32.6688 44.771C32.5018 45.4086 32.4175 46.065 32.418 46.7241C32.418 51.0411 35.9862 54.5407 40.3878 54.5407C44.7895 54.5407 48.3577 51.0411 48.3577 46.7241C48.3582 46.065 48.2739 45.4086 48.1069 44.771C47.6473 46.463 46.6411 47.9554 45.2449 49.0159C43.8488 50.0765 42.1411 50.6455 40.3878 50.6344Z" fill="#692B7C"/>
<path d="M51.9106 54.5407C56.3123 54.5407 59.8805 51.0411 59.8805 46.7241C59.8805 42.4071 56.3123 38.9075 51.9106 38.9075C47.5089 38.9075 43.9407 42.4071 43.9407 46.7241C43.9407 51.0411 47.5089 54.5407 51.9106 54.5407Z" fill="#803091"/>
<path d="M51.9105 50.6344C50.1573 50.6455 48.4496 50.0765 47.0535 49.0159C45.6573 47.9554 44.6511 46.463 44.1915 44.771C44.0245 45.4086 43.9402 46.065 43.9407 46.7241C43.9407 51.0411 47.5089 54.5407 51.9105 54.5407C56.3122 54.5407 59.8804 51.0411 59.8804 46.7241C59.8809 46.065 59.7966 45.4086 59.6296 44.771C59.17 46.463 58.1638 47.9554 56.7676 49.0159C55.3715 50.0765 53.6638 50.6455 51.9105 50.6344Z" fill="#692B7C"/>
<path d="M34.4344 43.0865C38.8471 43.0865 42.4243 39.571 42.4243 35.2345C42.4243 30.898 38.8471 27.3826 34.4344 27.3826C30.0218 27.3826 26.4446 30.898 26.4446 35.2345C26.4446 39.571 30.0218 43.0865 34.4344 43.0865Z" fill="#803091"/>
<path d="M34.4344 39.1803C32.6738 39.1903 30.9595 38.6169 29.5592 37.5497C28.1588 36.4826 27.1513 34.9817 26.694 33.2815C26.528 33.9193 26.4442 34.5756 26.4446 35.2346C26.4446 39.5711 30.0218 43.0865 34.4344 43.0865C38.8471 43.0865 42.4243 39.5711 42.4243 35.2346C42.4247 34.5756 42.3409 33.9193 42.1749 33.2815C41.7176 34.9817 40.7101 36.4826 39.3097 37.5497C37.9094 38.6169 36.195 39.1903 34.4344 39.1803Z" fill="#692B7C"/>
<path d="M65.5458 42.9884C69.9033 42.9884 73.4358 39.5169 73.4358 35.2347C73.4358 30.9524 69.9033 27.481 65.5458 27.481C61.1883 27.481 57.6558 30.9524 57.6558 35.2347C57.6558 39.5169 61.1883 42.9884 65.5458 42.9884Z" fill="#803091"/>
<path d="M65.5457 39.0821C63.8115 39.0919 62.1226 38.5285 60.7415 37.4795C59.3604 36.4306 58.3645 34.9548 57.9086 33.2815C57.7404 33.9189 57.6554 34.5754 57.6558 35.2346C57.6558 39.5169 61.1882 42.9884 65.5457 42.9884C69.9033 42.9884 73.4357 39.5169 73.4357 35.2346C73.4361 34.5754 73.3511 33.9189 73.1829 33.2815C72.727 34.9548 71.7311 36.4306 70.35 37.4795C68.9689 38.5285 67.28 39.0919 65.5457 39.0821Z" fill="#692B7C"/>
<path d="M55.7513 43.0865C60.164 43.0865 63.7412 39.571 63.7412 35.2345C63.7412 30.898 60.164 27.3826 55.7513 27.3826C51.3386 27.3826 47.7615 30.898 47.7615 35.2345C47.7615 39.571 51.3386 43.0865 55.7513 43.0865Z" fill="#803091"/>
<path d="M55.7513 39.1803C53.9907 39.1903 52.2764 38.6169 50.876 37.5497C49.4757 36.4826 48.4682 34.9817 48.0109 33.2815C47.8449 33.9193 47.7611 34.5756 47.7615 35.2346C47.7615 39.5711 51.3387 43.0865 55.7513 43.0865C60.164 43.0865 63.7412 39.5711 63.7412 35.2346C63.7416 34.5756 63.6578 33.9193 63.4918 33.2815C63.0345 34.9817 62.027 36.4826 60.6266 37.5497C59.2263 38.6169 57.5119 39.1903 55.7513 39.1803Z" fill="#692B7C"/>
<path d="M46.4818 43.3839C50.8945 43.3839 54.4716 39.8843 54.4716 35.5673C54.4716 31.2503 50.8945 27.7507 46.4818 27.7507C42.0691 27.7507 38.4919 31.2503 38.4919 35.5673C38.4919 39.8843 42.0691 43.3839 46.4818 43.3839Z" fill="#803091"/>
<path d="M46.4818 39.4777C44.726 39.4902 43.0152 38.9221 41.6157 37.8616C40.2162 36.8012 39.2064 35.308 38.7434 33.6143C38.576 34.2518 38.4915 34.9082 38.4919 35.5674C38.4919 39.8843 42.0691 43.3839 46.4818 43.3839C50.8945 43.3839 54.4716 39.8843 54.4716 35.5674C54.4721 34.9082 54.3876 34.2518 54.2202 33.6143C53.7572 35.308 52.7474 36.8012 51.3479 37.8616C49.9484 38.9221 48.2376 39.4902 46.4818 39.4777Z" fill="#692B7C"/>
</svg>
