<svg width="29" height="30" viewBox="0 0 29 30" fill="none" xmlns="http://www.w3.org/2000/svg">
<path d="M14.7958 12.2727V18.0818H22.7588C22.4091 19.95 21.3598 21.5318 19.7861 22.5955L24.5881 26.3728C27.3859 23.7547 29 19.9092 29 15.341C29 14.2774 28.9059 13.2546 28.7309 12.2729L14.7958 12.2727Z" fill="#4285F4"/>
<path d="M6.50372 17.855L5.42069 18.6955L1.5871 21.7227C4.02172 26.6181 9.01166 29.9999 14.7955 29.9999C18.7904 29.9999 22.1396 28.6636 24.5878 26.3727L19.7858 22.5954C18.4676 23.4954 16.7862 24.0409 14.7955 24.0409C10.9486 24.0409 7.68009 21.4091 6.50977 17.8636L6.50372 17.855Z" fill="#34A853"/>
<path d="M1.5871 8.27734C0.578332 10.2954 0 12.5727 0 15C0 17.4272 0.578332 19.7045 1.5871 21.7226C1.5871 21.7361 6.51024 17.8499 6.51024 17.8499C6.21432 16.9499 6.03941 15.9954 6.03941 14.9998C6.03941 14.0042 6.21432 13.0497 6.51024 12.1498L1.5871 8.27734Z" fill="#FBBC05"/>
<path d="M14.7958 5.97271C16.9749 5.97271 18.9118 6.73633 20.4587 8.20907L24.6957 3.91368C22.1266 1.48645 18.7908 0 14.7958 0C9.01197 0 4.02172 3.36817 1.5871 8.27727L6.51009 12.15C7.68025 8.60451 10.9489 5.97271 14.7958 5.97271Z" fill="#EA4335"/>
</svg>
