<svg width="32" height="32" viewBox="0 0 32 32" fill="none" xmlns="http://www.w3.org/2000/svg">
<path d="M16 29.7142C15.6905 29.7142 15.4286 29.6071 15.2143 29.3928L4.07143 18.6428C3.95238 18.5476 3.78869 18.3928 3.58036 18.1785C3.37202 17.9642 3.04167 17.5743 2.58929 17.0089C2.1369 16.4434 1.73214 15.863 1.375 15.2678C1.01786 14.6725 0.699405 13.9523 0.419643 13.1071C0.139881 12.2618 0 11.4404 0 10.6428C0 8.02374 0.755952 5.97612 2.26786 4.49993C3.77976 3.02374 5.86905 2.28564 8.53571 2.28564C9.27381 2.28564 10.0268 2.41362 10.7946 2.66957C11.5625 2.92553 12.2768 3.27076 12.9375 3.70529C13.5982 4.13981 14.1667 4.54755 14.6429 4.9285C15.119 5.30945 15.5714 5.71422 16 6.14279C16.4286 5.71422 16.881 5.30945 17.3571 4.9285C17.8333 4.54755 18.4018 4.13981 19.0625 3.70529C19.7232 3.27076 20.4375 2.92553 21.2054 2.66957C21.9732 2.41362 22.7262 2.28564 23.4643 2.28564C26.131 2.28564 28.2202 3.02374 29.7321 4.49993C31.244 5.97612 32 8.02374 32 10.6428C32 13.2737 30.6369 15.9523 27.9107 18.6785L16.7857 29.3928C16.5714 29.6071 16.3095 29.7142 16 29.7142Z" fill="white"/>
</svg>
