<svg width="550" height="435" viewBox="0 0 550 435" fill="none" xmlns="http://www.w3.org/2000/svg">
<path d="M118.417 391.708H468.46C468.46 391.708 513.583 300.294 453.419 224.42C393.255 148.545 193.62 58.0375 151.233 166.593C108.844 275.149 45.9454 316.55 118.417 391.708Z" fill="#F4F6F9"/>
<path d="M141.428 393.149C134.151 368.094 160.135 365.383 159.14 353.219C158.102 340.447 156.018 333.152 177.379 311.789C191.752 297.417 190.443 280.645 188.052 271.201C176.677 267.115 185.289 304.085 171.128 299.281C155.754 294.069 147.413 279.995 144.291 292.504C141.162 305.013 161.222 322.704 149.24 329.496C137.251 336.28 133.084 310.481 125.268 318.303C117.445 326.118 136.995 343.576 136.468 357.65C135.948 371.723 106.503 348.525 101.817 368.33C98.5209 382.236 116.808 389.848 127.995 393.149H141.428Z" fill="#838BC5"/>
<path d="M171.969 393.149C174.625 388.743 179.412 378.041 169.302 370.158C156.274 359.996 189.106 352.701 193.28 339.665C197.447 326.637 179.208 323.253 183.375 317.258C187.542 311.262 207.871 285.989 191.452 273.218C190.158 272.21 189.032 271.551 188.052 271.201C190.443 280.647 191.752 297.416 177.38 311.789C156.019 333.152 158.102 340.447 159.14 353.219C160.137 365.385 134.151 368.094 141.428 393.149H171.969Z" fill="#5361A0"/>
<path d="M132.56 374.745C134.738 375.647 137.698 377.018 138.473 378.571C138.494 378.613 138.535 378.634 138.564 378.671C138.826 384.999 138.135 390.292 137.639 393.149H138.959C139.906 387.562 141.395 373.851 136.326 360.72C136.32 360.692 136.325 360.665 136.315 360.639C135.672 358.806 138.085 353.406 140.214 349.511C145.002 347.788 148.264 346.161 152.189 341.799C156.362 337.161 147.862 327.731 142.76 332.524C138.604 336.428 138.929 345.455 139.192 348.671C137.976 350.868 135.896 354.921 135.18 358.039C133.827 355.104 132.127 352.226 129.975 349.511C128.01 347.031 126.493 344.575 125.317 342.174C124.697 339.131 123.95 336.633 122.512 334.049C121.019 326.831 122.284 320.739 123.478 317.129C127.189 315.247 129.777 313.444 132.651 309.413C135.889 304.877 127.392 297.363 123.346 302.131C119.644 306.496 121.611 316.016 121.97 317.597C120.987 320.875 120.104 325.675 120.75 331.314C120.411 330.852 120.066 330.389 119.673 329.907C115.729 325.073 105.109 332.032 109.065 337.806C112.364 342.621 121.687 343.62 124.694 343.818C125.826 345.954 127.218 348.127 128.955 350.317C135.451 358.512 137.821 368.227 138.441 376.541C137.009 375.275 134.815 374.268 133.025 373.529C130.425 369.203 128.198 366.35 123.183 363.36C117.824 360.164 110.221 370.332 115.911 374.408C120.614 377.775 129.58 375.604 132.56 374.745Z" fill="#C1E7F6"/>
<path d="M148.74 393.149H199.185C200.863 389.888 202.756 382.878 192.331 377.379C184.376 373.183 198.246 365.448 193.917 357.256C189.588 349.063 180.692 359.574 176.948 352.308C173.204 345.042 165.32 328.658 162.075 338.859C158.828 349.062 174.596 355.4 164.239 362.974C153.881 370.549 141.052 374.413 153.728 377.197C165.619 379.807 145.637 384.213 148.74 393.149Z" fill="#C1E7F6"/>
<path d="M232.711 393.149C236.608 383.022 213.866 378.053 227.237 375.117C241.377 372.013 227.064 367.702 215.51 359.252C203.956 350.802 221.546 343.731 217.924 332.349C214.303 320.966 205.507 339.247 201.33 347.353C197.153 355.458 187.228 343.731 182.399 352.872C177.57 362.012 193.043 370.642 184.169 375.323C172.281 381.593 174.748 389.623 176.644 393.151H232.711V393.149Z" fill="#5361A0"/>
<path d="M201.82 384.362C202.519 385.491 203.42 387.092 203.263 388.056C203.258 388.082 203.27 388.105 203.271 388.131C201.893 390.223 200.469 391.923 199.337 393.149H200.327C202.886 390.28 206.548 385.346 208.158 379.19C208.163 379.176 208.175 379.164 208.179 379.15C208.489 378.1 211.369 376.427 213.623 375.347C216.377 376.136 218.405 376.466 221.634 375.764C225.067 375.019 224.286 367.911 220.378 368.421C217.194 368.838 214.371 373.071 213.433 374.627C212.155 375.23 209.87 376.398 208.518 377.588C208.865 375.8 209.036 373.926 208.945 371.978C208.896 370.898 208.925 369.882 209.007 368.914C211.461 369.575 213.425 369.814 216.409 369.165C219.842 368.42 219.061 361.312 215.151 361.823C213.066 362.096 211.139 364.002 209.793 365.725C210.198 364.657 210.485 363.622 210.621 362.455C212.314 358.664 214.897 356.296 216.631 355.04C218.946 355.402 220.722 355.428 223.362 354.533C226.335 353.526 224.924 347.295 221.507 348.143C218.378 348.919 216.144 353.918 215.788 354.759C214.26 355.933 212.277 357.838 210.717 360.627C210.714 360.306 210.709 359.98 210.688 359.63C210.476 356.123 203.334 355.807 203.239 359.748C203.161 363.036 207.095 366.56 208.404 367.64C208.217 368.987 208.139 370.441 208.211 372.013C208.23 372.424 208.234 372.83 208.231 373.236C208.064 372.081 207.725 370.894 207.118 369.495C205.722 366.272 198.9 368.416 200.159 372.151C201.171 375.155 205.748 377.086 207.509 377.731C207.509 377.731 207.913 380.063 203.915 387.121C203.678 386.071 203.006 384.887 202.432 383.961C202.668 381.128 202.588 379.092 201.281 376.074C199.884 372.849 193.063 374.994 194.322 378.73C195.363 381.814 200.175 383.773 201.82 384.362Z" fill="#838BC5"/>
<path d="M386.475 393.149C379.198 368.094 405.182 365.383 404.186 353.219C403.149 340.447 401.065 333.152 422.426 311.789C436.799 297.417 435.49 280.645 433.099 271.201C421.724 267.115 430.336 304.085 416.175 299.281C400.801 294.069 392.46 279.995 389.338 292.504C386.209 305.013 406.269 322.704 394.286 329.496C382.298 336.28 378.131 310.481 370.315 318.303C362.492 326.118 382.042 343.576 381.515 357.65C380.995 371.723 351.55 348.525 346.863 368.33C343.568 382.236 361.855 389.848 373.042 393.149H386.475Z" fill="#838BC5"/>
<path d="M417.016 393.149C419.672 388.743 424.458 378.041 414.348 370.158C401.32 359.996 434.153 352.701 438.327 339.665C442.494 326.637 424.254 323.253 428.421 317.258C432.588 311.262 452.918 285.989 436.499 273.218C435.205 272.21 434.079 271.551 433.099 271.201C435.49 280.647 436.798 297.416 422.426 311.789C401.066 333.152 403.148 340.447 404.186 353.219C405.183 365.385 379.197 368.094 386.475 393.149H417.016Z" fill="#5361A0"/>
<path d="M377.607 374.745C379.785 375.647 382.745 377.018 383.519 378.571C383.541 378.613 383.582 378.634 383.611 378.671C383.873 384.999 383.182 390.292 382.686 393.149H384.006C384.952 387.562 386.442 373.851 381.373 360.72C381.367 360.692 381.372 360.665 381.361 360.639C380.719 358.806 383.132 353.406 385.261 349.511C390.049 347.788 393.311 346.161 397.236 341.799C401.409 337.161 392.907 327.731 387.807 332.524C383.651 336.428 383.975 345.455 384.239 348.671C383.023 350.868 380.943 354.921 380.227 358.039C378.873 355.104 377.174 352.226 375.022 349.511C373.056 347.031 371.54 344.575 370.364 342.174C369.743 339.131 368.997 336.633 367.559 334.049C366.066 326.831 367.331 320.739 368.525 317.129C372.236 315.247 374.824 313.444 377.698 309.413C380.936 304.877 372.438 297.363 368.393 302.131C364.691 306.496 366.658 316.016 367.017 317.597C366.034 320.875 365.151 325.675 365.796 331.314C365.458 330.852 365.113 330.389 364.72 329.907C360.776 325.073 350.156 332.032 354.112 337.806C357.41 342.621 366.734 343.62 369.741 343.818C370.872 345.954 372.265 348.127 374.002 350.317C380.499 358.512 382.868 368.227 383.488 376.541C382.056 375.275 379.862 374.268 378.072 373.529C375.472 369.203 373.245 366.35 368.229 363.36C362.871 360.164 355.268 370.332 360.958 374.408C365.66 377.775 374.627 375.604 377.607 374.745Z" fill="#C1E7F6"/>
<path d="M393.787 393.149H444.232C445.91 389.888 447.803 382.878 437.377 377.379C429.423 373.183 443.293 365.448 438.964 357.256C434.635 349.063 425.739 359.574 421.995 352.308C418.25 345.042 410.367 328.658 407.122 338.859C403.875 349.062 419.643 355.4 409.285 362.974C398.928 370.549 386.099 374.413 398.775 377.197C410.666 379.807 390.684 384.213 393.787 393.149Z" fill="#C1E7F6"/>
<path d="M477.757 393.149C481.655 383.022 458.913 378.053 472.283 375.117C486.424 372.013 472.111 367.702 460.557 359.252C449.003 350.802 466.592 343.731 462.971 332.349C459.35 320.966 450.554 339.247 446.377 347.353C442.2 355.458 432.274 343.731 427.445 352.872C422.617 362.012 438.089 370.642 429.216 375.323C417.328 381.593 419.795 389.623 421.691 393.151H477.757V393.149Z" fill="#5361A0"/>
<path d="M446.866 384.362C447.566 385.491 448.467 387.092 448.31 388.056C448.305 388.082 448.317 388.105 448.318 388.131C446.94 390.223 445.516 391.923 444.384 393.149H445.374C447.933 390.28 451.595 385.346 453.205 379.19C453.21 379.176 453.222 379.164 453.226 379.15C453.536 378.1 456.416 376.427 458.67 375.347C461.424 376.136 463.452 376.466 466.681 375.764C470.114 375.019 469.333 367.911 465.425 368.421C462.24 368.838 459.418 373.071 458.48 374.627C457.202 375.23 454.917 376.398 453.565 377.588C453.912 375.8 454.083 373.926 453.992 371.978C453.943 370.898 453.972 369.882 454.054 368.914C456.507 369.575 458.472 369.814 461.456 369.165C464.889 368.42 464.108 361.312 460.198 361.823C458.113 362.096 456.186 364.002 454.84 365.725C455.245 364.657 455.532 363.622 455.668 362.455C457.361 358.664 459.943 356.296 461.677 355.04C463.993 355.402 465.769 355.428 468.409 354.533C471.382 353.526 469.971 347.295 466.554 348.143C463.424 348.919 461.191 353.918 460.835 354.759C459.307 355.933 457.324 357.838 455.763 360.627C455.761 360.306 455.756 359.98 455.735 359.63C455.523 356.123 448.38 355.807 448.286 359.748C448.208 363.036 452.142 366.56 453.451 367.64C453.264 368.987 453.186 370.441 453.258 372.013C453.277 372.424 453.281 372.83 453.278 373.236C453.11 372.081 452.772 370.894 452.165 369.495C450.769 366.272 443.947 368.416 445.206 372.151C446.218 375.155 450.795 377.086 452.556 377.731C452.556 377.731 452.96 380.063 448.962 387.121C448.725 386.071 448.053 384.887 447.479 383.961C447.715 381.128 447.635 379.092 446.328 376.074C444.931 372.849 438.11 374.994 439.369 378.73C440.41 381.814 445.222 383.773 446.866 384.362Z" fill="#838BC5"/>
<path d="M92.553 246.93C99.7309 244.807 103.829 237.267 101.706 230.088C99.5829 222.91 92.0432 218.812 84.8653 220.935C77.6875 223.058 73.5896 230.598 75.7125 237.776C77.8354 244.955 85.3752 249.053 92.553 246.93Z" fill="#C8D9FB"/>
<path d="M85.4108 231.259L80.4204 231.432L80.7486 240.901L85.739 240.728L85.4108 231.259Z" fill="white"/>
<path d="M97.622 233.916L97.5743 233.918L97.5193 232.287C97.4903 231.421 96.7638 230.744 95.8982 230.773L91.4997 230.923C91.4997 230.923 93.2047 228.367 93.1497 226.768C93.1005 225.336 92.9716 223.443 90.8599 223.515C90.8599 223.515 90.1088 224.015 90.1826 226.164C90.2506 228.148 86.2559 231.231 86.2559 231.231L86.5916 241.02C86.5916 241.02 87.5151 241.821 88.9234 241.773L95.2889 241.554C96.1906 241.523 96.8955 240.768 96.8651 239.867L96.8318 238.875C97.3615 238.856 97.7769 238.412 97.7581 237.882L97.719 236.73C98.0374 236.72 98.2864 236.452 98.2748 236.135L98.2184 234.472C98.2068 234.154 97.9405 233.905 97.622 233.916Z" fill="white"/>
<path d="M445.58 199.909C436.981 289.784 415.687 392.735 415.687 392.735H170.053C170.053 392.735 105.636 105.355 148.8 73.1166C219.121 20.607 403.746 37.4883 436.924 73.1166C443.698 80.3928 447.259 95.8715 448.541 116.273C450.001 139.41 448.55 168.881 445.58 199.909Z" fill="#C8D9FB"/>
<path d="M481.166 394.459H101.859C101.135 394.459 100.549 393.873 100.549 393.149C100.549 392.426 101.135 391.839 101.859 391.839H481.166C481.89 391.839 482.476 392.426 482.476 393.149C482.476 393.873 481.89 394.459 481.166 394.459Z" fill="#C8D9FB"/>
<path d="M283.812 185.816C283.812 185.816 283.488 234.064 256.451 266.829C239.032 287.939 178.912 300.577 164.34 290.364C127.149 264.299 56.52 127.403 56.52 127.403L69.3177 124.892L179.533 228.368L283.812 185.816Z" fill="white"/>
<path d="M102.358 156.204C108.904 162.095 115.403 168.037 121.903 173.976L131.634 182.906L141.343 191.861L151.034 200.834L160.714 209.818L170.374 218.825C173.594 221.827 176.815 224.828 180.024 227.843L179.267 227.701L190.261 223.294L195.758 221.089L201.261 218.901L212.267 214.524L223.283 210.17C230.625 207.265 237.981 204.39 245.336 201.517C252.696 198.654 260.057 195.795 267.439 192.986C260.17 196.073 252.88 199.112 245.59 202.145C238.295 205.169 230.999 208.191 223.691 211.183L212.73 215.674L201.76 220.141L196.275 222.375L190.783 224.593L179.802 229.031C179.537 229.138 179.245 229.075 179.048 228.892L179.045 228.889C175.822 225.89 172.612 222.878 169.401 219.866L159.766 210.833L150.153 201.776L140.551 192.708L130.965 183.623L121.402 174.513C115.038 168.426 108.674 162.341 102.358 156.204Z" fill="#838BC5"/>
<path opacity="0.35" d="M265.125 195.94C257.638 201.785 252.023 209.727 247.476 217.98C242.746 226.566 239.314 235.661 235.752 244.763C232.536 252.982 227.776 261.003 218.832 263.701C213.399 265.34 207.876 264.583 202.305 264.671C199.411 264.718 196.521 264.991 193.713 265.71C190.487 266.536 187.637 267.993 184.698 269.507C174.463 274.781 160.906 272.948 152.886 264.589C148.78 260.309 145.925 255.026 142.87 249.993C139.291 244.099 134.786 238.968 130.093 233.94C125.296 228.8 120.197 223.902 116.084 218.176C112.325 212.945 109.246 207.269 106.392 201.506C104.919 198.53 103.949 195.264 102.06 192.533C84.2835 166.827 97.964 154.459 99.5112 153.386C101.708 151.863 70.7592 124.61 70.7592 124.61L56.5215 127.405C56.5215 127.405 127.15 264.299 164.342 290.364C178.914 300.577 239.033 287.939 256.452 266.829C280.22 238.029 283.344 197.263 283.753 187.823C276.999 188.875 270.632 191.641 265.125 195.94Z" fill="#ACC3EA"/>
<path d="M425.855 392.3H230.719C230.719 392.3 219.298 174.983 324.64 174.983C418.648 174.983 425.855 392.3 425.855 392.3Z" fill="white"/>
<path opacity="0.35" d="M379.625 258.811C377.604 261.601 375.44 264.34 372.935 266.711C370.409 269.102 367.598 271.173 364.683 273.063C358.936 276.792 352.837 279.952 347.031 283.591C341.754 286.898 336.319 290.424 330.222 291.993C324.073 293.576 317.88 292.501 312.147 289.951C305.998 287.215 300.352 283.245 295.502 278.597C290.627 273.925 286.706 268.478 283.127 262.777C279.326 256.721 276.055 250.336 273.24 243.768C268.053 231.661 264.321 218.865 262.328 205.835C260.04 214.084 262.087 245.353 263.777 252.459C271.07 283.136 291.27 308.85 307.634 315.881C309.879 316.847 304.576 391.454 306.89 392.293H343.843C345.442 391.321 343.38 314.159 345.186 313.607C382.017 302.359 386.07 266.69 385.793 249.305C383.865 252.558 381.842 255.749 379.625 258.811Z" fill="#ACC3EA"/>
<path d="M337.69 60.7236C332.099 56.0122 312.966 51.5903 309.279 69.0202C308.949 70.582 307.305 74.0051 303.247 73.3769C289.17 71.1986 284.91 84.0213 285.13 95.1824C285.281 102.8 289.135 109.878 290.071 117.439C290.711 122.607 289.97 127.862 290.497 133.043C291.153 139.478 293.817 145.693 298.026 150.604C299.775 152.645 301.862 154.511 304.409 155.371C311.171 157.649 317.972 152.251 322.673 146.881C331.55 136.744 338.768 125.159 343.984 112.735C344.617 111.229 345.221 109.712 345.792 108.18C346.313 106.789 346.645 105.123 347.413 103.847C348.532 101.988 351.732 101.965 353.599 101.243C358.764 99.2424 364.767 96.2998 366.349 91.0109C375.473 60.4732 340.697 63.2595 337.69 60.7236Z" fill="#324177"/>
<path d="M353.465 90.1845C353.567 90.1845 353.672 90.1686 353.774 90.1324C354.071 90.0297 361.068 87.5473 363.892 82.5552C364.148 82.1036 363.988 81.5289 363.535 81.2742C363.085 81.018 362.509 81.1772 362.255 81.6302C359.782 86 353.222 88.3347 353.155 88.3579C352.664 88.5301 352.405 89.0657 352.576 89.5549C352.712 89.9428 353.075 90.1845 353.465 90.1845Z" fill="#5361A0"/>
<path d="M343.41 90.1076C343.746 90.1076 344.071 89.9267 344.241 89.6083C344.336 89.4288 346.598 85.114 348.373 75.9417C348.473 75.4308 348.139 74.9387 347.629 74.8402C347.118 74.7375 346.626 75.0747 346.528 75.5842C344.812 84.441 342.602 88.6834 342.581 88.7268C342.337 89.1856 342.511 89.7545 342.97 89.9977C343.11 90.0715 343.261 90.1076 343.41 90.1076Z" fill="#5361A0"/>
<path d="M331.38 88.8166C331.86 88.8166 332.27 88.4504 332.316 87.9641C332.339 87.7108 332.869 81.6504 330.777 71.5735C330.672 71.064 330.177 70.7354 329.666 70.844C329.156 70.9496 328.831 71.4476 328.936 71.9556C330.964 81.7272 330.449 87.7311 330.443 87.7904C330.397 88.3071 330.776 88.7645 331.294 88.8123C331.322 88.8152 331.351 88.8166 331.38 88.8166Z" fill="#5361A0"/>
<path d="M315.924 91.6578C315.998 91.6578 316.073 91.6491 316.147 91.6318C316.651 91.5087 316.962 91.0007 316.839 90.4955C316.739 90.0845 314.345 80.3824 310.086 76.4382C309.705 76.0835 309.111 76.1067 308.757 76.4888C308.404 76.8695 308.427 77.4644 308.808 77.8176C312.652 81.3782 314.989 90.8444 315.012 90.9399C315.117 91.3698 315.502 91.6578 315.924 91.6578Z" fill="#5361A0"/>
<path d="M302.84 97.313C303.047 97.313 303.254 97.2449 303.428 97.106C303.833 96.7803 303.898 96.1898 303.573 95.7845C303.37 95.5312 298.55 89.5779 294.292 88.3418C293.794 88.1927 293.273 88.4837 293.128 88.983C292.984 89.4824 293.27 90.0035 293.77 90.1468C297.463 91.2193 302.063 96.9033 302.108 96.9612C302.292 97.1928 302.564 97.313 302.84 97.313Z" fill="#5361A0"/>
<path d="M292.364 124.665C293.9 120.524 298.467 117.737 302.852 118.266C302.886 113.206 303.242 108.093 304.745 103.262C308.713 90.4983 348.578 91.6143 350.25 95.0621C350.712 96.0159 357.886 120.511 358.846 129.382C359.807 138.252 358.428 147.971 352.337 154.492C347.555 159.613 339.555 161.596 332.164 160.762C334.508 168.315 337.493 178.528 339.383 184.194C334.802 187.77 308.31 184.368 302.522 183.872C303.852 174.845 305.813 145.389 307.143 136.364C303.898 139.359 298.628 138.334 296.144 136.353C292.69 133.6 290.828 128.804 292.364 124.665Z" fill="#EAC8AC"/>
<path opacity="0.1" d="M322.208 185.604C322.543 184.995 322.87 184.396 322.936 183.682C323.018 182.783 322.636 181.999 322.543 181.123C322.475 180.481 322.732 180.295 323.274 180.046C325.848 178.865 329.13 177.233 329.653 174.103C330.23 170.64 326.461 168.383 324.182 166.533C322.8 165.411 321.86 164.214 321.031 162.648C320.297 161.266 319.335 159.678 319.355 158.056C320.762 158.477 322.125 159.031 323.528 159.473C325.169 159.991 326.891 160.361 328.582 160.677C329.789 160.903 331.018 161.01 332.254 161.052C334.584 168.574 337.516 178.597 339.384 184.195C337.17 185.923 329.842 186.02 322.208 185.604Z" fill="#231F20"/>
<path d="M297.903 129.822C298.134 129.822 298.362 129.738 298.543 129.57C298.924 129.217 298.946 128.622 298.592 128.241C297.974 127.576 297.709 126.934 297.782 126.28C297.931 124.943 299.42 123.909 299.436 123.898C299.865 123.605 299.976 123.022 299.685 122.592C299.396 122.164 298.81 122.051 298.383 122.34C298.293 122.401 296.168 123.854 295.913 126.057C295.773 127.274 296.21 128.44 297.213 129.521C297.398 129.722 297.65 129.822 297.903 129.822Z" fill="#324177"/>
<path d="M344.951 133.329C347.461 133.329 350.153 131.141 350.495 130.854C350.872 130.537 350.94 129.984 350.654 129.585C348.118 126.054 341.752 116.099 342.754 112.466C343.947 108.14 350.143 105.896 350.205 105.873C350.694 105.699 350.95 105.162 350.777 104.673C350.605 104.182 350.068 103.928 349.577 104.098C349.285 104.203 342.395 106.686 340.94 111.965C339.668 116.582 346.468 126.866 348.596 129.931C347.47 130.711 345.568 131.757 344.378 131.364C343.88 131.199 343.352 131.465 343.188 131.957C343.023 132.451 343.29 132.983 343.782 133.147C344.161 133.274 344.555 133.329 344.951 133.329Z" fill="#324177"/>
<path d="M322.265 113.668C323.046 114.454 326.127 112.66 328.098 110.7C330.07 108.741 330.187 107.36 329.405 106.572C328.624 105.786 327.242 105.894 325.27 107.852C323.297 109.813 321.484 112.88 322.265 113.668Z" fill="#324177"/>
<path opacity="0.05" d="M328.362 124.863C328.523 126.086 330.29 126.859 332.307 126.593C334.325 126.327 335.83 125.119 335.668 123.898C335.506 122.676 333.74 121.902 331.723 122.168C329.706 122.436 328.201 123.642 328.362 124.863Z" fill="#231F20"/>
<path opacity="0.05" d="M347.461 120.925C347.622 122.148 349.389 122.921 351.406 122.654C353.424 122.388 354.929 121.181 354.767 119.959C354.605 118.738 352.839 117.963 350.822 118.23C348.806 118.497 347.3 119.703 347.461 120.925Z" fill="#231F20"/>
<path d="M327.694 116.016C327.694 117.209 328.661 118.177 329.855 118.177C331.049 118.177 332.016 117.211 332.016 116.016C332.016 114.824 331.049 113.855 329.855 113.855C328.661 113.855 327.694 114.824 327.694 116.016Z" fill="#324177"/>
<path d="M348.541 116.753C349.734 116.753 350.702 115.786 350.702 114.592C350.702 113.399 349.734 112.431 348.541 112.431C347.347 112.431 346.38 113.399 346.38 114.592C346.38 115.786 347.347 116.753 348.541 116.753Z" fill="#324177"/>
<path d="M347.209 138.675C345.552 139.267 345.199 140.685 340.171 138.675C335.144 136.664 333.3 135.078 332.462 137.715C331.624 140.351 341.511 148.838 347.209 144.648C352.906 140.458 348.325 138.275 347.209 138.675Z" fill="white"/>
<path opacity="0.05" d="M343.424 149.171C344.343 149.171 345.326 148.979 346.374 148.484C346.843 148.261 347.043 147.701 346.823 147.232C346.6 146.763 346.043 146.56 345.571 146.783C343.284 147.863 341.378 146.974 339.538 146.113L339.318 146.012C338.849 145.793 338.289 145.996 338.069 146.468C337.849 146.938 338.053 147.497 338.525 147.717L338.741 147.818C340.076 148.443 341.632 149.171 343.424 149.171Z" fill="#231F20"/>
<path d="M305.784 192.248L297.563 194.269L307.634 182.323L319.511 184.936L330.948 182.474L341.24 194.055L332.316 191.782L328.5 205.769L341.43 392.297H300.391L311.262 205.02L305.784 192.248Z" fill="#838BC5"/>
<path d="M330.948 182.474L343.966 197.913C343.966 197.913 360.684 188.402 355.782 183.158C350.88 177.916 335.341 171.192 335.341 171.192L337.609 179.975L330.948 182.474Z" fill="url(#paint0_radial_229_974)"/>
<path d="M307.634 182.323L294.616 197.762C294.616 197.762 282.105 186.897 287.008 181.653C291.91 176.409 304.014 169.549 304.014 169.549L302.94 180.563L307.634 182.323Z" fill="url(#paint1_radial_229_974)"/>
<path d="M250.137 155.125C255.097 155.125 261.269 142.118 261.269 142.118L319.429 235.832C319.429 235.832 346.902 198.336 362.356 190.196C380.842 194.742 419.216 262.237 334.768 307.012C275.055 338.67 259.109 202.454 250.137 155.125Z" fill="white"/>
<path d="M261.564 138.835C261.564 138.835 260.748 137.941 258.739 135.93C256.728 133.92 255.867 128.608 254.431 128.967C252.996 129.326 251.632 136.416 253.857 139.547C256.083 142.678 260.729 140.879 261.564 138.835Z" fill="#E5B0A3"/>
<path d="M255.749 82.8574H45.6616V154.528H255.749V82.8574Z" fill="#ACC3EA"/>
<path d="M94.4074 118.985C94.4074 120.189 94.4074 121.017 94.2945 122.936C94.0311 127.49 91.0582 130.766 84.3221 130.766C77.285 130.766 74.3874 127.078 74.1978 121.431L74.1602 120.302H80.9353L81.0091 121.431C81.2349 124.818 82.5911 125.797 84.5103 125.797C86.3919 125.797 87.3703 124.592 87.5584 122.523C87.6337 121.657 87.6337 120.829 87.6337 120.039V104.271H94.4074V118.985Z" fill="white"/>
<path d="M124.973 117.254C124.973 125.572 119.78 130.766 111.688 130.766C103.597 130.766 98.4023 125.572 98.4023 117.254C98.4023 108.899 103.595 103.744 111.688 103.744C119.779 103.744 124.973 108.899 124.973 117.254ZM118.047 117.254C118.047 111.722 115.601 108.711 111.688 108.711C107.774 108.711 105.328 111.722 105.328 117.254C105.328 122.75 107.774 125.798 111.688 125.798C115.601 125.797 118.047 122.75 118.047 117.254Z" fill="white"/>
<path d="M129.046 130.239V104.271H135.82V130.239H129.046Z" fill="white"/>
<path d="M156.86 130.239L147.413 113.078C147.639 115.712 147.639 118.008 147.639 119.513V130.239H140.864V104.271H149.295L159.154 122.184C158.966 119.55 158.928 116.878 158.928 115.372V104.271H165.702V130.239H156.86Z" fill="white"/>
<path d="M199.961 118.834C199.961 120.152 199.961 120.942 199.85 122.485C199.547 126.85 196.461 130.766 188.446 130.766C180.43 130.766 177.345 126.85 177.042 122.485C176.931 120.942 176.931 120.152 176.931 118.834V104.271H183.704V120.076C183.704 120.793 183.704 121.169 183.742 121.619C183.93 124.33 185.473 125.798 188.446 125.798C191.419 125.798 192.962 124.33 193.15 121.619C193.187 121.169 193.187 120.793 193.187 120.076V104.271H199.961V118.834Z" fill="white"/>
<path d="M223.79 112.286H217.017C216.716 110.141 215.587 108.711 213.367 108.711C211.824 108.711 210.77 109.464 210.77 111.044C210.77 112.7 211.974 113.716 216.264 114.733C221.984 116.086 224.317 118.947 224.317 122.936C224.317 128.13 219.35 130.766 214.118 130.766C207.532 130.766 203.092 128.13 202.678 122.298H209.451C209.903 124.744 211.897 125.798 213.93 125.798C215.811 125.798 217.241 124.82 217.241 123.39C217.241 122.035 216.263 120.868 213.064 120.078C207.156 118.61 203.692 116.766 203.692 111.573C203.692 106.568 208.36 103.745 213.516 103.745C220.367 103.744 223.227 107.469 223.79 112.286Z" fill="white"/>
<path d="M56.2448 107.592C56.666 105.673 53.0794 104.142 50.7535 103.301C52.9984 103.341 55.6818 102.344 54.809 100.645C52.9651 97.0521 42.1315 93.6782 39.6797 95.6148C37.2278 97.5515 40.3411 101.449 40.3411 101.449C39.4524 101.884 38.3669 102.5 37.9993 103.073C35.572 106.851 39.3091 108.908 39.3091 108.908C36.1973 112.131 39.8128 115.196 39.8128 115.196C36.2711 118.875 40.5148 121.396 40.5148 121.396C40.5148 121.396 49.1339 124.349 52.8985 122.106C56.6631 119.863 45.2289 116.173 45.2289 116.173C45.2289 116.173 54.3603 117.685 55.0985 115.178C56.3823 110.82 46.3173 109.65 46.3173 109.65C46.3173 109.65 55.3793 111.532 56.2448 107.592Z" fill="#EAC8AC"/>
<path opacity="0.5" d="M51.3196 105.013C51.3066 105.183 50.8564 108.792 50.8564 108.792C50.8564 108.792 54.3012 109.687 54.8251 107.925C55.3288 106.232 51.3196 105.013 51.3196 105.013Z" fill="white"/>
<path opacity="0.5" d="M51.8519 99.2695C51.8273 99.3868 50.9502 102.19 50.9502 102.19C50.9502 102.19 53.143 102.205 53.5772 101.098C53.968 100.1 51.8519 99.2695 51.8519 99.2695Z" fill="white"/>
<path opacity="0.5" d="M51.3409 112.207C51.3062 112.373 50.6636 115.525 50.6636 115.525C50.6636 115.525 53.5105 116.471 54.0823 114.893C54.6221 113.405 51.3409 112.207 51.3409 112.207Z" fill="white"/>
<path opacity="0.5" d="M50.3035 119.196C50.2774 119.321 49.6377 121.744 49.6377 121.744C49.6377 121.744 52.5209 122.391 52.6974 121.431C52.9855 119.858 50.3035 119.196 50.3035 119.196Z" fill="white"/>
<path d="M261.564 138.835C261.564 138.835 241.341 137.376 240.644 141.109C240.317 142.855 247.096 143.946 252.424 144.538C245.885 144.052 240.13 144.364 240.673 146.35C241.091 147.877 246.879 148.735 252.156 149.536C248.488 149.317 240.936 149.091 240.913 150.694C240.872 153.413 248.373 153.977 253.446 154.247C250.415 154.292 242.627 154.372 242.589 155.838C242.556 157.136 244.023 158.326 250.403 158.643C254.127 158.827 253.973 159.535 255.682 159.286C257 159.095 258.388 159.043 259.376 158.364C264.13 155.104 264.314 140.405 261.564 138.835Z" fill="#EAC8AC"/>
<path opacity="0.2" d="M243.094 156.079C243.229 155.403 245.372 155.02 245.582 155.147C245.582 155.147 245.569 156.917 245.43 157.217C245.29 157.518 242.959 156.755 243.094 156.079Z" fill="white"/>
<path opacity="0.2" d="M241.347 150.999C241.48 150.323 243.625 149.94 243.836 150.067C243.836 150.067 243.823 151.837 243.683 152.137C243.544 152.438 241.212 151.675 241.347 150.999Z" fill="white"/>
<path opacity="0.2" d="M241.288 145.91C241.422 145.234 243.566 144.85 243.776 144.978C243.776 144.978 243.763 146.748 243.622 147.048C243.485 147.349 241.153 146.586 241.288 145.91Z" fill="white"/>
<path opacity="0.2" d="M241.347 140.911C241.48 140.235 243.625 139.851 243.835 139.98C243.835 139.98 243.822 141.75 243.683 142.05C243.544 142.349 241.212 141.586 241.347 140.911Z" fill="white"/>
<path opacity="0.1" d="M252.64 154.254L259.134 153.338C259.134 153.338 260.45 155.48 258.565 157.549C258.565 157.549 261.943 156.117 262.084 148.638C262.223 141.158 261.39 140.175 261.39 140.175C261.39 140.175 261.333 142.501 259.717 143.774C259.357 144.059 252.524 144.52 252.948 144.538C253.371 144.555 259.463 145.085 259.463 145.085L259.38 148.25L253.016 149.456L259.428 149.501L259.248 152.196L252.64 154.254Z" fill="#231F20"/>
<path d="M174.437 341.723V340.953C175.201 340.953 175.969 340.949 176.744 340.942L176.751 341.712C175.974 341.719 175.202 341.723 174.437 341.723ZM172.121 341.713C171.344 341.706 170.572 341.693 169.805 341.679L169.821 340.909C170.585 340.924 171.354 340.936 172.128 340.943L172.121 341.713ZM179.067 341.677L179.051 340.907C179.815 340.891 180.584 340.872 181.358 340.849L181.381 341.619C180.604 341.642 179.832 341.661 179.067 341.677ZM167.491 341.619C166.714 341.595 165.944 341.567 165.176 341.535L165.208 340.765C165.971 340.797 166.74 340.826 167.514 340.849L167.491 341.619ZM183.695 341.541L183.665 340.771C184.429 340.741 185.198 340.709 185.971 340.671L186.007 341.441C185.233 341.477 184.461 341.511 183.695 341.541ZM162.864 341.424C162.086 341.382 161.316 341.337 160.552 341.286L160.603 340.518C161.364 340.567 162.131 340.613 162.905 340.654L162.864 341.424ZM188.32 341.32L188.276 340.551C189.039 340.508 189.808 340.461 190.581 340.411L190.63 341.179C189.855 341.23 189.085 341.278 188.32 341.32ZM158.241 341.123C157.465 341.063 156.696 340.998 155.932 340.93L156.002 340.163C156.761 340.231 157.527 340.295 158.3 340.356L158.241 341.123ZM192.94 341.02L192.883 340.251C193.646 340.195 194.413 340.136 195.185 340.073L195.247 340.842C194.474 340.904 193.704 340.964 192.94 341.02ZM153.628 340.709C152.854 340.629 152.086 340.545 151.325 340.457L151.413 339.691C152.17 339.78 152.935 339.862 153.706 339.942L153.628 340.709ZM197.554 340.644L197.485 339.877C198.247 339.809 199.013 339.736 199.783 339.661L199.857 340.428C199.085 340.503 198.317 340.576 197.554 340.644ZM202.161 340.194L202.08 339.428C202.841 339.348 203.607 339.264 204.375 339.177L204.462 339.943C203.691 340.03 202.924 340.114 202.161 340.194ZM149.027 340.175C148.255 340.075 147.49 339.969 146.731 339.861L146.841 339.098C147.595 339.206 148.358 339.311 149.125 339.41L149.027 340.175ZM206.761 339.675L206.67 338.91C207.429 338.818 208.194 338.724 208.961 338.626L209.059 339.39C208.288 339.489 207.522 339.584 206.761 339.675ZM144.44 339.515C143.67 339.393 142.909 339.266 142.155 339.134L142.288 338.374C143.039 338.504 143.796 338.63 144.562 338.753L144.44 339.515ZM211.352 339.089L211.249 338.325C212.007 338.222 212.77 338.118 213.536 338.009L213.644 338.772C212.876 338.881 212.112 338.988 211.352 339.089ZM139.875 338.72C139.109 338.574 138.351 338.425 137.601 338.27L137.757 337.516C138.504 337.669 139.257 337.82 140.018 337.964L139.875 338.72ZM215.934 338.439L215.82 337.676C216.577 337.564 217.338 337.448 218.102 337.329L218.221 338.09C217.457 338.211 216.694 338.326 215.934 338.439ZM135.337 337.782C134.576 337.611 133.825 337.436 133.08 337.257L133.26 336.508C134 336.686 134.748 336.862 135.505 337.031L135.337 337.782ZM220.508 337.73L220.385 336.969C221.142 336.847 221.9 336.721 222.663 336.592L222.79 337.352C222.026 337.481 221.265 337.606 220.508 337.73ZM225.071 336.96L224.94 336.2C225.694 336.068 226.452 335.934 227.214 335.795L227.351 336.553C226.587 336.692 225.828 336.827 225.071 336.96ZM130.832 336.692C130.078 336.495 129.331 336.293 128.594 336.086L128.803 335.343C129.535 335.549 130.276 335.75 131.027 335.945L130.832 336.692ZM229.625 336.134L229.483 335.377L230.285 335.226L230.428 335.983L229.625 336.134ZM126.368 335.439C125.621 335.213 124.883 334.983 124.155 334.748L124.392 334.016C125.116 334.249 125.849 334.478 126.591 334.702L126.368 335.439ZM121.955 334.013C121.217 333.757 120.49 333.496 119.772 333.23L120.04 332.508C120.752 332.771 121.475 333.03 122.207 333.285L121.955 334.013ZM117.606 332.399C116.879 332.111 116.164 331.817 115.459 331.519L115.759 330.81C116.458 331.107 117.169 331.398 117.889 331.683L117.606 332.399ZM113.335 330.588C112.622 330.266 111.922 329.937 111.233 329.604L111.569 328.911C112.252 329.242 112.947 329.567 113.653 329.886L113.335 330.588ZM109.157 328.563C108.463 328.203 107.78 327.838 107.111 327.468L107.484 326.793C108.147 327.161 108.823 327.523 109.512 327.88L109.157 328.563ZM105.098 326.313C104.423 325.913 103.763 325.508 103.119 325.097L103.533 324.447C104.171 324.852 104.824 325.255 105.491 325.65L105.098 326.313ZM101.178 323.819C100.53 323.376 99.8972 322.929 99.2821 322.476L99.738 321.855C100.347 322.302 100.973 322.745 101.612 323.182L101.178 323.819ZM97.4323 321.067C96.8157 320.581 96.218 320.087 95.6361 319.591L96.1369 319.006C96.7101 319.497 97.3021 319.983 97.91 320.464L97.4323 321.067ZM93.9008 318.044C93.3247 317.51 92.7675 316.97 92.229 316.425L92.7776 315.883C93.3088 316.418 93.8573 316.951 94.4261 317.478L93.9008 318.044ZM90.6282 314.736C90.1028 314.154 89.5905 313.562 89.1071 312.973L89.7019 312.484C90.1781 313.063 90.6818 313.648 91.1985 314.22L90.6282 314.736ZM87.6727 311.137C87.2067 310.507 86.758 309.864 86.3368 309.227L86.9794 308.803C87.3934 309.43 87.8348 310.061 88.2922 310.679L87.6727 311.137ZM85.1094 307.244C84.7158 306.567 84.3423 305.877 83.9979 305.193L84.6868 304.847C85.024 305.516 85.3902 306.194 85.7752 306.858L85.1094 307.244ZM83.0151 303.076C82.7082 302.354 82.4246 301.62 82.1742 300.897L82.9022 300.644C83.1483 301.35 83.4247 302.068 83.7243 302.775L83.0151 303.076ZM81.4867 298.664C81.284 297.91 81.1075 297.143 80.9642 296.384L81.7211 296.241C81.8615 296.981 82.0323 297.728 82.2306 298.463L81.4867 298.664ZM80.6197 294.071C80.5357 293.293 80.4822 292.507 80.4634 291.737L81.2334 291.716C81.2522 292.466 81.3043 293.23 81.3854 293.989L80.6197 294.071ZM81.2725 289.44L80.5039 289.393C80.5502 288.613 80.6327 287.829 80.7471 287.062L81.5098 287.176C81.3984 287.92 81.3188 288.683 81.2725 289.44ZM81.9455 284.944L81.1972 284.762C81.381 284.003 81.6025 283.246 81.8543 282.511L82.5838 282.76C82.3392 283.472 82.125 284.207 81.9455 284.944ZM83.416 280.642L82.7126 280.328C83.0296 279.619 83.3827 278.914 83.7648 278.232L84.4379 278.609C84.0673 279.269 83.7229 279.953 83.416 280.642ZM85.6377 276.672L85.0009 276.238C85.4351 275.601 85.9069 274.968 86.4034 274.36L87.0011 274.847C86.5177 275.439 86.0589 276.052 85.6377 276.672ZM88.5122 273.143L87.9579 272.608C88.4934 272.052 89.0622 271.508 89.6484 270.988L90.1593 271.565C89.5876 272.071 89.0347 272.602 88.5122 273.143ZM91.9236 270.118L91.4576 269.504C92.0684 269.04 92.711 268.587 93.3681 268.158L93.7893 268.804C93.1467 269.222 92.52 269.665 91.9236 270.118ZM95.7432 267.618L95.3669 266.947C95.9792 266.604 96.6146 266.269 97.2572 265.957L97.4352 265.87L97.7725 266.563L97.593 266.65C96.9648 266.957 96.3425 267.282 95.7432 267.618ZM99.8509 265.544L99.5108 264.852C100.198 264.515 100.889 264.173 101.583 263.829L101.926 264.519C101.23 264.864 100.538 265.205 99.8509 265.544ZM103.996 263.487L103.65 262.798C104.336 262.454 105.025 262.108 105.714 261.759L106.063 262.447C105.373 262.795 104.684 263.143 103.996 263.487ZM108.127 261.396L107.775 260.71C108.458 260.359 109.143 260.006 109.829 259.65L110.184 260.335C109.496 260.691 108.81 261.044 108.127 261.396ZM112.236 259.261L111.877 258.579C112.557 258.222 113.236 257.861 113.918 257.496L114.281 258.177C113.598 258.541 112.916 258.903 112.236 259.261ZM116.319 257.078L115.951 256.401C116.627 256.035 117.302 255.664 117.978 255.291L118.35 255.965C117.672 256.34 116.996 256.711 116.319 257.078ZM120.372 254.838L119.994 254.166C120.664 253.79 121.334 253.409 122.003 253.025L122.386 253.694C121.716 254.079 121.045 254.46 120.372 254.838ZM124.395 252.53L124.006 251.865C124.672 251.475 125.335 251.083 125.998 250.686L126.393 251.348C125.73 251.746 125.063 252.14 124.395 252.53ZM128.379 250.149L127.976 249.492C128.633 249.091 129.289 248.686 129.942 248.278L130.35 248.931C129.696 249.34 129.039 249.747 128.379 250.149ZM132.308 247.692L131.891 247.043C132.538 246.628 133.184 246.209 133.826 245.788L134.249 246.432C133.606 246.855 132.958 247.276 132.308 247.692ZM136.177 245.148L135.746 244.51C136.382 244.08 137.016 243.648 137.646 243.21L138.086 243.843C137.454 244.281 136.817 244.717 136.177 245.148ZM139.976 242.511L139.529 241.885C140.153 241.439 140.774 240.989 141.39 240.534L141.848 241.155C141.227 241.612 140.603 242.064 139.976 242.511ZM143.702 239.767L143.236 239.153C143.849 238.687 144.457 238.217 145.061 237.743L145.537 238.35C144.931 238.826 144.32 239.299 143.702 239.767ZM147.348 236.901L146.861 236.303C147.459 235.817 148.051 235.326 148.636 234.833L149.134 235.422C148.545 235.918 147.948 236.412 147.348 236.901ZM150.892 233.909L150.384 233.33C150.963 232.822 151.535 232.31 152.101 231.793L152.62 232.362C152.052 232.882 151.474 233.397 150.892 233.909ZM154.317 230.778L153.784 230.221C154.341 229.69 154.891 229.154 155.434 228.613L155.978 229.159C155.433 229.703 154.878 230.243 154.317 230.778ZM157.602 227.5L157.045 226.967C157.578 226.412 158.1 225.85 158.615 225.284L159.186 225.802C158.666 226.373 158.138 226.938 157.602 227.5ZM160.724 224.064L160.141 223.562C160.643 222.978 161.135 222.391 161.619 221.797L162.217 222.284C161.727 222.883 161.231 223.475 160.724 224.064ZM163.655 220.46L163.043 219.991C163.51 219.381 163.966 218.765 164.412 218.144L165.039 218.593C164.589 219.222 164.127 219.843 163.655 220.46ZM166.363 216.685L165.724 216.256C166.15 215.618 166.566 214.974 166.968 214.326L167.622 214.732C167.214 215.388 166.795 216.039 166.363 216.685ZM168.812 212.735L168.144 212.353C168.524 211.687 168.892 211.015 169.246 210.338L169.93 210.695C169.571 211.382 169.197 212.062 168.812 212.735ZM170.966 208.614L170.27 208.284C170.597 207.595 170.909 206.899 171.209 206.197L171.918 206.498C171.614 207.21 171.297 207.916 170.966 208.614ZM172.784 204.343L172.063 204.071C172.332 203.356 172.587 202.635 172.827 201.908L173.56 202.148C173.315 202.887 173.057 203.618 172.784 204.343ZM174.238 199.919L173.496 199.71C173.703 198.976 173.892 198.236 174.068 197.491L174.817 197.667C174.644 198.418 174.448 199.177 174.238 199.919ZM175.299 195.392L174.542 195.25C174.683 194.503 174.807 193.742 174.914 192.989L175.677 193.096C175.567 193.86 175.441 194.633 175.299 195.392ZM175.949 190.786L175.182 190.714C175.254 189.958 175.311 189.195 175.35 188.428L176.12 188.469C176.081 189.246 176.023 190.019 175.949 190.786ZM176.189 186.143L175.419 186.137L175.421 185.725C175.421 185.102 175.409 184.474 175.388 183.843L176.158 183.815C176.181 184.455 176.191 185.092 176.191 185.723L176.189 186.143ZM175.259 181.55C175.201 180.793 175.126 180.032 175.036 179.265L175.802 179.175C175.893 179.952 175.968 180.724 176.027 181.491L175.259 181.55ZM174.723 176.989C174.606 176.241 174.473 175.487 174.324 174.727L175.081 174.579C175.231 175.348 175.366 176.111 175.486 176.869L174.723 176.989ZM173.842 172.481C173.67 171.742 173.481 171 173.28 170.252L174.024 170.05C174.228 170.807 174.418 171.559 174.592 172.304L173.842 172.481ZM172.645 168.044C172.423 167.319 172.187 166.591 171.938 165.856L172.668 165.607C172.92 166.348 173.159 167.086 173.382 167.818L172.645 168.044ZM171.164 163.689C170.898 162.978 170.62 162.265 170.328 161.545L171.041 161.254C171.336 161.98 171.617 162.7 171.885 163.418L171.164 163.689Z" fill="#838BC5"/>
<path d="M489.934 334.822H489.836L489.845 334.052H489.933C490.66 334.052 491.376 333.984 492.065 333.851L492.211 334.607C491.476 334.75 490.709 334.822 489.934 334.822ZM487.472 334.588C486.707 334.443 485.937 334.23 485.187 333.955L485.452 333.232C486.164 333.492 486.892 333.693 487.616 333.831L487.472 334.588ZM494.497 333.903L494.19 333.197C494.873 332.9 495.517 332.525 496.105 332.084L496.568 332.701C495.932 333.178 495.236 333.583 494.497 333.903ZM483.032 332.976C482.349 332.602 481.68 332.171 481.045 331.696L481.506 331.079C482.114 331.532 482.751 331.944 483.402 332.301L483.032 332.976ZM498.302 331.045L497.708 330.554C498.171 329.992 498.581 329.367 498.924 328.694L499.61 329.044C499.242 329.768 498.802 330.441 498.302 331.045ZM479.251 330.163C478.697 329.623 478.164 329.036 477.668 328.418L478.269 327.936C478.746 328.529 479.257 329.094 479.788 329.61L479.251 330.163ZM500.478 326.828L499.737 326.614C499.871 326.154 499.982 325.669 500.067 325.177C500.112 324.918 500.154 324.66 500.189 324.405L500.952 324.512C500.914 324.776 500.874 325.042 500.826 325.31C500.736 325.83 500.619 326.342 500.478 326.828ZM476.302 326.503C475.892 325.853 475.506 325.162 475.155 324.452L475.846 324.112C476.184 324.798 476.558 325.465 476.953 326.093L476.302 326.503ZM501.159 322.171L500.389 322.144C500.396 321.924 500.4 321.706 500.4 321.49C500.4 320.949 500.377 320.408 500.331 319.884L501.098 319.817C501.146 320.364 501.17 320.929 501.17 321.492C501.17 321.716 501.166 321.942 501.159 322.171ZM499.991 317.659C499.829 316.928 499.616 316.204 499.358 315.505L500.082 315.237C500.351 315.968 500.575 316.727 500.745 317.492L499.991 317.659ZM498.439 313.456C498.092 312.803 497.692 312.157 497.254 311.536L497.883 311.092C498.341 311.739 498.758 312.412 499.119 313.094L498.439 313.456ZM495.844 309.772C495.353 309.225 494.816 308.682 494.248 308.161L494.767 307.592C495.355 308.129 495.911 308.691 496.417 309.257L495.844 309.772ZM492.505 306.702C491.92 306.253 491.293 305.809 490.645 305.382L491.068 304.738C491.732 305.175 492.375 305.629 492.974 306.091L492.505 306.702ZM488.694 304.191C488.05 303.823 487.37 303.461 486.673 303.112L487.018 302.423C487.727 302.778 488.419 303.147 489.076 303.52L488.694 304.191ZM484.597 302.137C483.906 301.831 483.198 301.536 482.476 301.252L482.758 300.536C483.489 300.824 484.207 301.122 484.908 301.432L484.597 302.137ZM480.322 300.451C479.606 300.199 478.878 299.955 478.14 299.721L478.373 298.987C479.12 299.223 479.855 299.469 480.579 299.724L480.322 300.451ZM471.473 297.906C470.729 297.732 469.978 297.566 469.223 297.407L469.382 296.652C470.143 296.813 470.899 296.981 471.648 297.156L471.473 297.906ZM475.687 298.987C474.943 298.813 474.191 298.647 473.436 298.488L473.595 297.734C474.356 297.894 475.112 298.062 475.862 298.237L475.687 298.987ZM466.962 296.952C466.209 296.809 465.452 296.671 464.692 296.54L464.823 295.78C465.587 295.911 466.348 296.05 467.105 296.194L466.962 296.952ZM462.416 296.166C461.654 296.047 460.89 295.935 460.126 295.827L460.233 295.065C461.002 295.173 461.769 295.286 462.534 295.405L462.416 296.166ZM457.833 295.522C457.07 295.426 456.305 295.335 455.542 295.25L455.627 294.484C456.395 294.571 457.162 294.661 457.929 294.758L457.833 295.522ZM453.251 295.008C452.482 294.931 451.715 294.859 450.951 294.793L451.019 294.025C451.786 294.093 452.556 294.164 453.328 294.243L453.251 295.008ZM448.648 294.603C447.875 294.544 447.107 294.489 446.344 294.438L446.395 293.669C447.162 293.72 447.932 293.775 448.708 293.834L448.648 294.603ZM414.026 294.351L413.971 293.582C413.971 293.582 414.797 293.523 416.289 293.448L416.328 294.218C414.848 294.292 414.027 294.351 414.026 294.351ZM444.038 294.298C443.263 294.254 442.493 294.215 441.731 294.18L441.766 293.41C442.53 293.445 443.303 293.484 444.08 293.529L444.038 294.298ZM418.634 294.114L418.604 293.344C419.307 293.316 420.08 293.289 420.918 293.263L420.941 294.033C420.106 294.057 419.335 294.085 418.634 294.114ZM439.421 294.083C438.641 294.054 437.87 294.03 437.111 294.008L437.133 293.238C437.894 293.26 438.667 293.284 439.45 293.313L439.421 294.083ZM423.25 293.97L423.232 293.2C423.969 293.184 424.742 293.17 425.547 293.158L425.557 293.928C424.755 293.94 423.985 293.954 423.25 293.97ZM434.8 293.954C434.015 293.94 433.244 293.928 432.488 293.92L432.497 293.15C433.255 293.158 434.028 293.17 434.816 293.184L434.8 293.954ZM427.867 293.907L427.863 293.137C428.385 293.134 428.918 293.132 429.46 293.132L430.173 293.134L430.175 293.904L429.46 293.902C428.919 293.902 428.388 293.904 427.867 293.907Z" fill="#838BC5"/>
<path d="M473.674 305.303L476.408 320.745C476.46 321.035 476.264 321.316 475.973 321.367L452.023 325.609C451.732 325.661 451.451 325.465 451.401 325.174L448.667 309.733C448.614 309.442 448.811 309.161 449.102 309.11L473.052 304.868C473.343 304.816 473.624 305.012 473.674 305.303Z" fill="#C8D9FB"/>
<path opacity="0.3" d="M448.649 309.637L461.257 314.722C461.641 314.877 462.061 314.92 462.469 314.848C462.877 314.775 463.255 314.59 463.563 314.314L473.658 305.208L462.842 313.998C462.559 314.23 462.175 314.296 461.829 314.178L448.649 309.637Z" fill="url(#paint2_radial_229_974)"/>
<path opacity="0.3" d="M476.306 320.155L463.698 315.071C463.314 314.916 462.895 314.872 462.486 314.945C462.078 315.017 461.701 315.202 461.392 315.479L451.297 324.585L462.113 315.794C462.397 315.563 462.78 315.495 463.126 315.615L476.306 320.155Z" fill="url(#paint3_radial_229_974)"/>
<path d="M462.79 316.625C462.655 317.094 462.347 317.377 461.881 317.437C461.14 317.547 460.722 317.023 460.646 315.984L460.574 314.9C460.497 313.849 460.84 313.214 461.583 313.114C462.027 313.046 462.353 313.227 462.561 313.613L462.516 312.991L463.527 312.811L463.75 315.91C463.76 316.093 463.838 316.167 464.007 316.136C464.596 316.032 464.618 314.681 464.428 313.608C464.195 312.292 463.404 311.497 461.94 311.758C460.066 312.089 459.352 313.758 459.777 316.159C460.076 317.854 461.043 318.769 462.716 318.472C463.495 318.335 464.133 318.07 464.768 317.371L464.864 318.397C464.25 318.983 463.589 319.231 462.81 319.368C460.441 319.788 459.164 318.461 458.778 316.282C458.318 313.681 459.224 311.316 461.823 310.856C464.045 310.462 464.996 311.727 465.298 313.432C465.757 316.023 464.651 317.012 463.841 317.155C463.302 317.251 462.919 317.112 462.79 316.625ZM461.657 315.751C461.69 316.245 461.904 316.413 462.233 316.366C462.551 316.321 462.738 316.093 462.705 315.599L462.632 314.58C462.602 314.162 462.359 314.02 462.075 314.071C461.746 314.118 461.557 314.336 461.593 314.841L461.657 315.751Z" fill="#ACC3EA"/>
<path d="M447.843 171.934L382.507 173.841C380.101 173.841 378.152 171.887 378.152 169.486V110.153C378.152 107.746 380.099 105.798 382.507 105.798H487.296C487.769 105.798 488.216 105.87 488.644 106.015C489.827 124.778 444.158 128.038 447.843 171.934Z" fill="#ACC3EA"/>
<path d="M493.48 96.3203H388.691C386.285 96.3203 384.335 98.27 384.335 100.676V160.007C384.335 162.413 386.285 164.362 388.691 164.362H493.48C495.886 164.362 497.835 162.413 497.835 160.007V100.676C497.835 98.27 495.886 96.3203 493.48 96.3203Z" fill="white"/>
<path d="M486.46 136.855H395.709C394.383 136.855 393.306 137.931 393.306 139.258C393.306 140.585 394.382 141.661 395.709 141.661H486.46C487.786 141.661 488.863 140.585 488.863 139.258C488.863 137.931 487.787 136.855 486.46 136.855Z" fill="#ACC3EA"/>
<path d="M486.122 126.658H464.848C463.521 126.658 462.446 127.734 462.446 129.061V129.11C462.446 130.437 463.521 131.513 464.848 131.513H486.122C487.448 131.513 488.524 130.437 488.524 129.11V129.061C488.524 127.734 487.448 126.658 486.122 126.658Z" fill="#ACC3EA"/>
<path d="M444.811 146.983H395.71C394.383 146.983 393.308 148.058 393.308 149.386V149.435C393.308 150.762 394.383 151.838 395.71 151.838H444.811C446.137 151.838 447.213 150.762 447.213 149.435V149.386C447.212 148.058 446.137 146.983 444.811 146.983Z" fill="#ACC3EA"/>
<path d="M465.397 146.983H452.331C451.004 146.983 449.929 148.058 449.929 149.386V149.435C449.929 150.762 451.004 151.838 452.331 151.838H465.397C466.723 151.838 467.799 150.762 467.799 149.435V149.386C467.798 148.058 466.723 146.983 465.397 146.983Z" fill="#ACC3EA"/>
<path d="M395.709 131.511H455.779C457.106 131.511 458.182 130.436 458.182 129.109V129.059C458.182 127.732 457.106 126.657 455.779 126.657H395.709C394.383 126.657 393.306 127.732 393.306 129.059V129.11C393.308 130.437 394.383 131.511 395.709 131.511Z" fill="#ACC3EA"/>
<path d="M401.032 113.743C401.032 114.129 401.032 114.396 400.996 115.012C400.911 116.476 399.955 117.528 397.792 117.528C395.531 117.528 394.6 116.342 394.539 114.529L394.528 114.166H396.705L396.729 114.529C396.802 115.617 397.237 115.931 397.854 115.931C398.459 115.931 398.773 115.545 398.834 114.879C398.858 114.601 398.858 114.335 398.858 114.082V109.016H401.035V113.743H401.032Z" fill="#ACC3EA"/>
<path d="M410.853 113.187C410.853 115.859 409.184 117.528 406.584 117.528C403.985 117.528 402.316 115.859 402.316 113.187C402.316 110.502 403.985 108.846 406.584 108.846C409.184 108.846 410.853 110.502 410.853 113.187ZM408.628 113.187C408.628 111.41 407.842 110.443 406.584 110.443C405.326 110.443 404.541 111.41 404.541 113.187C404.541 114.953 405.326 115.931 406.584 115.931C407.842 115.931 408.628 114.951 408.628 113.187Z" fill="#ACC3EA"/>
<path d="M419.114 114.843C419.114 116.403 417.845 117.176 416.72 117.309C416.296 117.359 416.018 117.359 415.487 117.359H412.163V109.016H415.584C416.031 109.016 416.225 109.016 416.648 109.063C418.027 109.233 418.8 110.103 418.8 111.191C418.8 111.952 418.401 112.533 417.579 112.824C418.629 113.126 419.114 113.827 419.114 114.843ZM414.338 112.304H415.318C415.512 112.304 415.693 112.293 415.849 112.268C416.249 112.207 416.526 112.002 416.526 111.507C416.526 111.035 416.273 110.806 415.862 110.745C415.704 110.721 415.512 110.709 415.318 110.709H414.338V112.304ZM416.841 114.771C416.841 114.215 416.441 113.924 415.994 113.888C415.836 113.876 415.644 113.876 415.45 113.876H414.337V115.665H415.509C415.703 115.665 415.895 115.665 416.053 115.654C416.441 115.629 416.841 115.315 416.841 114.771Z" fill="#ACC3EA"/>
<path d="M424.618 115.193L423.916 117.359H421.606L424.617 109.016H427.277L430.288 117.359H427.918L427.216 115.193H424.618ZM425.15 113.501H426.697L425.923 110.938L425.15 113.501Z" fill="#ACC3EA"/>
<path d="M432.491 117.359L429.48 109.016H431.851L433.846 115.678L435.853 109.016H438.163L435.153 117.359H432.491Z" fill="#ACC3EA"/>
<path d="M440.233 115.193L439.531 117.359H437.222L440.233 109.016H442.893L445.903 117.359H443.534L442.832 115.193H440.233ZM440.764 113.501H442.311L441.537 110.938L440.764 113.501Z" fill="#ACC3EA"/>
<path d="M446.691 117.359V109.016H448.868V117.359H446.691Z" fill="#ACC3EA"/>
<path d="M456.885 117.359H450.487V109.016H452.664V115.52H456.883V117.359H456.885Z" fill="#ACC3EA"/>
<path d="M460.176 115.193L459.474 117.359H457.164L460.175 109.016H462.835L465.845 117.359H463.476L462.774 115.193H460.176ZM460.707 113.501H462.254L461.48 110.938L460.707 113.501Z" fill="#ACC3EA"/>
<path d="M473.587 114.843C473.587 116.403 472.318 117.176 471.194 117.309C470.769 117.359 470.492 117.359 469.96 117.359H466.636V109.016H470.057C470.505 109.016 470.699 109.016 471.121 109.063C472.5 109.233 473.273 110.103 473.273 111.191C473.273 111.952 472.874 112.533 472.052 112.824C473.104 113.126 473.587 113.827 473.587 114.843ZM468.811 112.304H469.791C469.985 112.304 470.166 112.293 470.322 112.268C470.722 112.207 471 112.002 471 111.507C471 111.035 470.746 110.806 470.335 110.745C470.179 110.721 469.985 110.709 469.791 110.709H468.811V112.304ZM471.314 114.771C471.314 114.215 470.914 113.924 470.467 113.888C470.309 113.876 470.117 113.876 469.923 113.876H468.81V115.665H469.982C470.176 115.665 470.368 115.665 470.526 115.654C470.916 115.629 471.314 115.315 471.314 114.771Z" fill="#ACC3EA"/>
<path d="M481.267 117.359H474.871V109.016H477.048V115.52H481.267V117.359Z" fill="#ACC3EA"/>
<path d="M488.863 117.359H482.467V109.016H488.743V110.709H484.644V112.329H488.501V114.022H484.644V115.667H488.863V117.359Z" fill="#ACC3EA"/>
<path d="M443.214 69.3217C445.211 58.2789 437.877 47.7086 426.835 45.7123C415.792 43.716 405.222 51.0497 403.226 62.0926C401.23 73.1354 408.563 83.7057 419.606 85.702C430.648 87.6983 441.218 80.3646 443.214 69.3217Z" fill="#C8D9FB"/>
<path d="M427.998 75.7836L435.483 75.8052L435.524 61.6002L428.039 61.5786L427.998 75.7836Z" fill="white"/>
<path d="M409.889 66.1328H409.962L409.969 63.6852C409.972 62.3869 411.028 61.3375 412.327 61.3404L418.925 61.3592C418.925 61.3592 416.249 57.6089 416.256 55.2091C416.262 53.0626 416.366 50.2184 419.533 50.2271C419.533 50.2271 420.682 50.9392 420.672 54.1655C420.664 57.1414 426.793 61.5734 426.793 61.5734L426.75 76.2575C426.75 76.2575 425.402 77.5009 423.291 77.4951L413.742 77.4676C412.39 77.4632 411.298 76.3646 411.302 75.0127L411.306 73.5262C410.51 73.5233 409.869 72.8778 409.871 72.0817L409.875 70.3535C409.397 70.352 409.012 69.9641 409.014 69.4879L409.021 66.9926C409.024 66.5164 409.412 66.1314 409.889 66.1328Z" fill="white"/>
<defs>
<radialGradient id="paint0_radial_229_974" cx="0" cy="0" r="1" gradientUnits="userSpaceOnUse" gradientTransform="translate(321.877 164.764) rotate(180) scale(46.9917 46.9935)">
<stop stop-color="white"/>
<stop offset="1" stop-color="#C1E7F6"/>
</radialGradient>
<radialGradient id="paint1_radial_229_974" cx="0" cy="0" r="1" gradientUnits="userSpaceOnUse" gradientTransform="translate(321.877 164.764) rotate(180) scale(46.9919 46.9936)">
<stop stop-color="white"/>
<stop offset="1" stop-color="#C1E7F6"/>
</radialGradient>
<radialGradient id="paint2_radial_229_974" cx="0" cy="0" r="1" gradientUnits="userSpaceOnUse" gradientTransform="translate(461.136 307.463) rotate(21.6858) scale(8.99168 8.99194)">
<stop stop-color="#BFB0F9"/>
<stop offset="1" stop-color="#EFDBFF"/>
</radialGradient>
<radialGradient id="paint3_radial_229_974" cx="0" cy="0" r="1" gradientUnits="userSpaceOnUse" gradientTransform="translate(463.807 322.35) rotate(21.6858) scale(8.99168 8.99193)">
<stop stop-color="#BFB0F9"/>
<stop offset="1" stop-color="#EFDBFF"/>
</radialGradient>
</defs>
</svg>
