<svg width="65" height="65" viewBox="0 0 65 65" fill="none" xmlns="http://www.w3.org/2000/svg">
<path d="M32.5002 64.3228C34.7625 64.3228 36.5965 62.4888 36.5965 60.2265C36.5965 57.9641 34.7625 56.1301 32.5002 56.1301C30.2378 56.1301 28.4038 57.9641 28.4038 60.2265C28.4038 62.4888 30.2378 64.3228 32.5002 64.3228Z" fill="#4E5583"/>
<path d="M50.3951 27.4963C50.3975 30.5799 49.6018 33.6116 48.0855 36.2966C46.5692 38.9815 44.3838 41.2284 41.742 42.8187C41.3323 43.063 40.9924 43.4088 40.7552 43.8227C40.518 44.2366 40.3915 44.7047 40.3878 45.1817V47.5718H24.5982V45.1885C24.5956 44.7094 24.4696 44.2391 24.2324 43.8229C23.9953 43.4066 23.6549 43.0584 23.2441 42.8119C20.5686 41.1951 18.3633 38.9055 16.8478 36.1713C15.3324 33.437 14.5596 30.3535 14.6065 27.2277C14.6534 24.102 15.5183 21.043 17.1151 18.3555C18.7119 15.6679 20.9848 13.4455 23.7076 11.9096C26.4304 10.3737 29.5081 9.57787 32.6341 9.60133C35.7601 9.62479 38.8255 10.4667 41.5249 12.0433C44.2244 13.6199 46.4637 15.8762 48.02 18.5874C49.5763 21.2986 50.3951 24.3702 50.3951 27.4963Z" fill="#FFB050"/>
<path d="M50.3953 27.4963C50.3976 30.5799 49.602 33.6116 48.0856 36.2966C46.5693 38.9816 44.384 41.2285 41.7421 42.8187C41.3324 43.0631 40.9925 43.4089 40.7553 43.8228C40.5181 44.2367 40.3916 44.7047 40.388 45.1818V47.5719H33.2244V45.1885C33.2224 44.7093 33.0967 44.2387 32.8595 43.8224C32.6222 43.406 32.2815 43.058 31.8703 42.812C28.866 40.9965 26.4614 38.3382 24.9555 35.1674C23.4495 31.9967 22.9086 28.4532 23.3999 24.9776C25.6275 8.89008 50.3953 9.47915 50.3953 27.4963Z" fill="#FFDD78"/>
<path d="M40.4018 51.9458V57.227C40.4062 57.6244 40.3317 58.0186 40.1826 58.3869C40.0334 58.7551 39.8126 59.0901 39.5329 59.3723C39.2532 59.6545 38.9202 59.8784 38.5533 60.0308C38.1864 60.1833 37.7928 60.2613 37.3955 60.2604H27.6049C27.2104 60.2613 26.8196 60.1843 26.455 60.034C26.0903 59.8837 25.7588 59.6629 25.4796 59.3843C25.2003 59.1056 24.9788 58.7747 24.8276 58.4103C24.6764 58.046 24.5986 57.6554 24.5986 57.2609V51.9797L40.4018 51.9458Z" fill="#4E5583"/>
<path d="M40.4017 51.9458V57.227C40.4061 57.6244 40.3317 58.0186 40.1825 58.3869C40.0333 58.7551 39.8125 59.0901 39.5328 59.3723C39.2531 59.6545 38.9201 59.8784 38.5532 60.0308C38.1863 60.1833 37.7927 60.2613 37.3954 60.2604H32.2157C31.8213 60.2613 31.4305 60.1843 31.0658 60.034C30.7011 59.8837 30.3696 59.6629 30.0904 59.3843C29.8111 59.1056 29.5896 58.7747 29.4384 58.4103C29.2873 58.046 29.2095 57.6554 29.2095 57.2609V51.9797L40.4017 51.9458Z" fill="#5D78A1"/>
<path d="M32.2154 57.552C32.1364 57.552 32.0606 57.5206 32.0047 57.4647C31.9489 57.4088 31.9175 57.3331 31.9175 57.2541V55.4801C31.9193 55.2604 32.0078 55.0503 32.1638 54.8956C32.3198 54.7409 32.5306 54.654 32.7503 54.6541H36.8602C37.0799 54.654 37.2907 54.7409 37.4467 54.8956C37.6027 55.0503 37.6912 55.2604 37.693 55.4801V57.227C37.693 57.3042 37.6623 57.3782 37.6077 57.4328C37.5531 57.4874 37.4791 57.5181 37.4019 57.5181L32.2154 57.552Z" fill="#7696C9"/>
<path d="M40.4018 47.5718H24.5986V51.9525H40.4018V47.5718Z" fill="#B8B6DC"/>
<path d="M40.4016 47.5718H30.7261V51.9525H40.4016V47.5718Z" fill="#DBD9DC"/>
<path d="M40.4016 47.5718H30.7261V48.9192H40.4016V47.5718Z" fill="#FFEDFF"/>
<path d="M43.5703 24.6459H41.8437C41.6664 24.6457 41.4934 24.591 41.3481 24.4893C41.2028 24.3876 41.0922 24.2437 41.0312 24.0772C40.9285 23.7816 40.8087 23.4922 40.6724 23.2105C40.5981 23.0489 40.5745 22.8686 40.6047 22.6934C40.6349 22.5181 40.7175 22.3561 40.8416 22.2288L42.0672 20.9897C42.2296 20.8272 42.3209 20.6068 42.3209 20.3769C42.3209 20.1471 42.2296 19.9267 42.0672 19.7642L39.8192 17.5095C39.6556 17.3466 39.434 17.2551 39.2031 17.2551C38.9722 17.2551 38.7506 17.3466 38.5869 17.5095L37.3682 18.7418C37.2421 18.8682 37.0796 18.9518 36.9035 18.981C36.7273 19.0101 36.5465 18.9833 36.3864 18.9043C36.1156 18.7756 35.8244 18.6538 35.5333 18.5454C35.3638 18.4882 35.2168 18.3787 35.1134 18.2328C35.01 18.0868 34.9555 17.9118 34.9578 17.7329V16.0267C34.9569 15.9129 34.9336 15.8003 34.8892 15.6955C34.8448 15.5907 34.7803 15.4957 34.6992 15.4158C34.6181 15.336 34.522 15.2729 34.4165 15.2301C34.311 15.1874 34.1982 15.1659 34.0843 15.1668H30.9156C30.8018 15.1659 30.6889 15.1874 30.5834 15.2301C30.4779 15.2729 30.3819 15.336 30.3008 15.4158C30.2197 15.4957 30.1551 15.5907 30.1107 15.6955C30.0663 15.8003 30.043 15.9129 30.0422 16.0267V17.7532C30.0444 17.9321 29.9899 18.1071 29.8865 18.2531C29.7831 18.399 29.6361 18.5085 29.4666 18.5657C29.1755 18.6741 28.8843 18.7959 28.6135 18.9246C28.4534 19.0036 28.2726 19.0305 28.0965 19.0013C27.9203 18.9722 27.7578 18.8885 27.6317 18.7621L26.4062 17.5298C26.2425 17.3669 26.021 17.2754 25.7901 17.2754C25.5591 17.2754 25.3376 17.3669 25.1739 17.5298L22.926 19.7845C22.7635 19.947 22.6722 20.1674 22.6722 20.3972C22.6722 20.6271 22.7635 20.8475 22.926 21.01L24.1515 22.2288C24.2756 22.3561 24.3582 22.5181 24.3884 22.6934C24.4186 22.8686 24.3951 23.0489 24.3208 23.2105C24.1844 23.4922 24.0646 23.7816 23.9619 24.0772C23.901 24.2437 23.7904 24.3876 23.6451 24.4893C23.4998 24.591 23.3268 24.6457 23.1494 24.6459H21.4297C21.1998 24.6459 20.9794 24.7372 20.8168 24.8998C20.6543 25.0623 20.563 25.2828 20.563 25.5126V28.6881C20.563 28.918 20.6543 29.1384 20.8168 29.301C20.9794 29.4635 21.1998 29.5548 21.4297 29.5548H23.1562C23.3341 29.5565 23.5073 29.6126 23.6525 29.7154C23.7977 29.8183 23.908 29.963 23.9687 30.1303C24.0702 30.422 24.1901 30.7069 24.3276 30.9834C24.4015 31.1462 24.4248 31.3275 24.3947 31.5037C24.3645 31.6799 24.2822 31.843 24.1583 31.972L22.9328 33.1772C22.8525 33.2571 22.7889 33.3521 22.7454 33.4566C22.7019 33.5612 22.6796 33.6733 22.6796 33.7866C22.6796 33.8998 22.7019 34.0119 22.7454 34.1165C22.7889 34.2211 22.8525 34.316 22.9328 34.3959L25.1807 36.6439C25.2608 36.7262 25.3566 36.7916 25.4624 36.8363C25.5683 36.8809 25.682 36.9039 25.7968 36.9039C25.9117 36.9039 26.0254 36.8809 26.1312 36.8363C26.2371 36.7916 26.3329 36.7262 26.413 36.6439L27.6317 35.4251C27.7581 35.2993 27.9202 35.2156 28.0959 35.1853C28.2716 35.155 28.4523 35.1796 28.6135 35.2558C28.8914 35.3883 29.1762 35.5058 29.4666 35.6079C29.6356 35.666 29.782 35.7757 29.8852 35.9215C29.9885 36.0673 30.0434 36.2418 30.0422 36.4204V38.147C30.0422 38.3786 30.1342 38.6008 30.298 38.7646C30.4618 38.9284 30.6839 39.0204 30.9156 39.0204H34.0843C34.316 39.0204 34.5382 38.9284 34.702 38.7646C34.8658 38.6008 34.9578 38.3786 34.9578 38.147V36.4407C34.9566 36.2621 35.0115 36.0876 35.1147 35.9418C35.218 35.796 35.3644 35.6864 35.5333 35.6282C35.8237 35.5261 36.1085 35.4086 36.3864 35.2761C36.5476 35.2 36.7284 35.1753 36.9041 35.2056C37.0798 35.2359 37.2418 35.3196 37.3682 35.4454L38.5869 36.6642C38.6671 36.7465 38.7629 36.8119 38.8687 36.8566C38.9745 36.9012 39.0882 36.9242 39.2031 36.9242C39.318 36.9242 39.4317 36.9012 39.5375 36.8566C39.6433 36.8119 39.7391 36.7465 39.8192 36.6642L42.0672 34.4163C42.1474 34.3364 42.2111 34.2414 42.2545 34.1368C42.298 34.0322 42.3203 33.9201 42.3203 33.8069C42.3203 33.6936 42.298 33.5815 42.2545 33.4769C42.2111 33.3724 42.1474 33.2774 42.0672 33.1975L40.8416 31.972C40.7178 31.843 40.6354 31.6799 40.6053 31.5037C40.5751 31.3275 40.5985 31.1462 40.6724 30.9834C40.8099 30.7069 40.9297 30.422 41.0312 30.1303C41.0919 29.963 41.2022 29.8183 41.3474 29.7154C41.4926 29.6126 41.6658 29.5565 41.8437 29.5548H43.5703C43.6841 29.5548 43.7968 29.5324 43.9019 29.4888C44.0071 29.4453 44.1026 29.3814 44.1831 29.301C44.2636 29.2205 44.3274 29.1249 44.371 29.0198C44.4145 28.9146 44.4369 28.8019 44.4369 28.6881V25.5126C44.4369 25.3988 44.4145 25.2861 44.371 25.181C44.3274 25.0758 44.2636 24.9803 44.1831 24.8998C44.1026 24.8193 44.0071 24.7555 43.9019 24.7119C43.7968 24.6684 43.6841 24.6459 43.5703 24.6459ZM32.6489 31.7553H32.351C31.6253 31.757 30.9096 31.5856 30.2635 31.2552C29.6173 30.9249 29.0592 30.4453 28.6355 29.8561C28.2118 29.2669 27.9347 28.5851 27.8273 27.8674C27.7198 27.1497 27.7851 26.4167 28.0177 25.7293C28.321 24.7942 28.925 23.9856 29.7358 23.4296C30.5465 22.8736 31.5184 22.6014 32.5 22.6553C33.4816 22.6014 34.4534 22.8736 35.2642 23.4296C36.0749 23.9856 36.679 24.7942 36.9823 25.7293C37.2148 26.4167 37.2801 27.1497 37.1727 27.8674C37.0652 28.5851 36.7882 29.2669 36.3645 29.8561C35.9408 30.4453 35.3827 30.9249 34.7365 31.2552C34.0903 31.5856 33.3746 31.757 32.6489 31.7553Z" fill="#5D78A1"/>
<path d="M31.3966 37.6865V36.4406C31.3961 35.9831 31.254 35.537 30.9897 35.1635C30.7254 34.7901 30.3519 34.5077 29.9205 34.3552C29.4003 34.0766 28.8291 33.9062 28.2413 33.8542C27.1242 33.8542 26.6231 34.5312 25.7971 35.3776L24.2398 33.8203L25.1132 32.9469C25.4361 32.6214 25.6513 32.2048 25.73 31.7533C25.8087 31.3017 25.747 30.8368 25.5533 30.4214C25.4374 30.1885 25.3356 29.9488 25.2486 29.7036C25.0954 29.2703 24.8123 28.8948 24.4379 28.6282C24.0635 28.3616 23.616 28.217 23.1564 28.2141H21.9174V26H23.1564C23.6121 25.9996 24.0566 25.8591 24.4297 25.5974C24.8027 25.3358 25.0863 24.9658 25.2419 24.5375C25.3307 24.281 25.4347 24.0301 25.5533 23.7859C25.7464 23.3764 25.8097 22.9175 25.7346 22.471C25.6596 22.0244 25.4499 21.6115 25.1335 21.2875L24.233 20.3937L25.7971 18.8297L26.6705 19.7167C26.9946 20.0418 27.4117 20.2582 27.8642 20.3358C28.3167 20.4134 28.7821 20.3485 29.196 20.15C29.4388 20.0335 29.6874 19.9296 29.9408 19.8385C30.37 19.6852 30.7408 19.402 31.0017 19.0283C31.2626 18.6546 31.4006 18.2089 31.3966 17.7531V16.5208H33.6038V17.7531C33.6019 18.2157 33.7453 18.6671 34.0138 19.0437C34.2823 19.4203 34.6623 19.7031 35.1002 19.8521C35.612 20.1356 36.1767 20.3107 36.7591 20.3667C37.883 20.3667 38.3841 19.6896 39.2033 18.8297L40.7674 20.3937L39.8872 21.274C39.5623 21.5997 39.3463 22.0179 39.2687 22.4713C39.1911 22.9248 39.2558 23.3911 39.4538 23.8062C39.5654 24.0254 39.6626 24.2516 39.745 24.4833C39.8974 24.919 40.1811 25.2968 40.5569 25.5647C40.9328 25.8327 41.3824 25.9776 41.8439 25.9797H43.083V28.1802H41.8439C41.3885 28.1816 40.9445 28.3225 40.5716 28.584C40.1987 28.8455 39.915 29.215 39.7585 29.6427C39.6715 29.8923 39.5697 30.1364 39.4538 30.374C39.2576 30.7826 39.1908 31.2413 39.2621 31.689C39.3335 32.1366 39.5398 32.5518 39.8533 32.8792L40.7606 33.7865L39.2033 35.3438L38.3231 34.4703C38.0006 34.1449 37.5846 33.9282 37.1331 33.8505C36.6816 33.7728 36.2171 33.838 35.8044 34.037C35.5945 34.1318 35.3439 34.2401 35.0934 34.3281C34.659 34.4796 34.2824 34.7623 34.0155 35.1371C33.7487 35.5118 33.6048 35.9602 33.6038 36.4203V37.6661L31.3966 37.6865ZM32.2835 21.2943C27.2663 21.2943 24.8356 26.975 27.5913 30.7125C28.1411 31.4525 28.8556 32.0544 29.6782 32.4704C30.5009 32.8864 31.4091 33.1052 32.3309 33.1094C36.9216 33.1094 39.4064 29.0875 38.2622 25.3568C37.8797 24.131 37.101 23.067 36.0483 22.3317C34.9956 21.5964 33.7285 21.2315 32.446 21.2943H32.2835ZM47.6466 12.7292C47.5121 12.7299 47.3804 12.6907 47.2683 12.6163C47.1563 12.542 47.0689 12.4359 47.0173 12.3117C46.9657 12.1875 46.9523 12.0508 46.9788 11.9189C47.0052 11.7871 47.0703 11.6661 47.1658 11.5714L50.7814 7.96927C50.911 7.85835 51.0776 7.80038 51.248 7.80697C51.4184 7.81355 51.58 7.88419 51.7006 8.00477C51.8212 8.12536 51.8919 8.28701 51.8984 8.45741C51.905 8.62782 51.8471 8.79443 51.7361 8.92396L48.134 12.5328C48.07 12.5964 47.9938 12.6465 47.9101 12.6802C47.8264 12.7139 47.7368 12.7306 47.6466 12.7292ZM13.745 46.6307C13.6111 46.6302 13.4803 46.5899 13.3693 46.515C13.2583 46.4402 13.1719 46.3341 13.1212 46.2102C13.0705 46.0862 13.0576 45.95 13.0843 45.8188C13.111 45.6876 13.176 45.5672 13.271 45.4729L16.8731 41.8641C16.9361 41.8006 17.0109 41.7502 17.0935 41.7159C17.176 41.6815 17.2645 41.6638 17.3538 41.6638C17.4432 41.6638 17.5317 41.6815 17.6142 41.7159C17.6967 41.7502 17.7716 41.8006 17.8346 41.8641C17.9607 41.9909 18.0315 42.1625 18.0315 42.3414C18.0315 42.5203 17.9607 42.6919 17.8346 42.8187L14.2189 46.4276C14.0939 46.5552 13.9236 46.6282 13.745 46.6307ZM51.2554 46.6307C51.1658 46.6304 51.0772 46.6122 50.9947 46.5773C50.9122 46.5425 50.8374 46.4916 50.7747 46.4276L47.1523 42.812C47.0891 42.7488 47.0391 42.6739 47.0049 42.5914C46.9707 42.5089 46.9532 42.4205 46.9532 42.3312C46.9532 42.242 46.9707 42.1536 47.0049 42.0711C47.0391 41.9886 47.0891 41.9137 47.1523 41.8505C47.2154 41.7874 47.2904 41.7373 47.3728 41.7031C47.4553 41.669 47.5437 41.6514 47.633 41.6514C47.7223 41.6514 47.8107 41.669 47.8932 41.7031C47.9757 41.7373 48.0506 41.7874 48.1137 41.8505L51.7294 45.4729C51.8244 45.5672 51.8894 45.6876 51.9161 45.8188C51.9428 45.95 51.9299 46.0862 51.8792 46.2102C51.8284 46.3341 51.7421 46.4402 51.6311 46.515C51.5201 46.5899 51.3893 46.6302 51.2554 46.6307ZM17.3538 12.7292C17.2647 12.7297 17.1764 12.7126 17.0939 12.6789C17.0114 12.6452 16.9364 12.5956 16.8731 12.5328L13.271 8.92396C13.1961 8.86487 13.1345 8.79062 13.0903 8.70606C13.0461 8.6215 13.0202 8.52855 13.0144 8.4333C13.0086 8.33805 13.0231 8.24266 13.0567 8.15337C13.0904 8.06409 13.1426 7.98292 13.2098 7.91521C13.277 7.84749 13.3578 7.79476 13.4469 7.76045C13.5359 7.72615 13.6312 7.71105 13.7265 7.71616C13.8218 7.72126 13.9149 7.74645 13.9998 7.79007C14.0846 7.83369 14.1593 7.89476 14.2189 7.96927L17.8278 11.5714C17.9229 11.6657 17.9879 11.786 18.0145 11.9173C18.0412 12.0485 18.0283 12.1847 17.9776 12.3086C17.9269 12.4325 17.8405 12.5386 17.7295 12.6135C17.6185 12.6883 17.4878 12.7286 17.3538 12.7292ZM59.0215 27.8755H53.9163C53.7368 27.8755 53.5645 27.8042 53.4376 27.6772C53.3106 27.5502 53.2393 27.378 53.2393 27.1984C53.2393 27.0189 53.3106 26.8466 53.4376 26.7197C53.5645 26.5927 53.7368 26.5214 53.9163 26.5214H59.0215C59.2011 26.5214 59.3733 26.5927 59.5003 26.7197C59.6273 26.8466 59.6986 27.0189 59.6986 27.1984C59.6986 27.378 59.6273 27.5502 59.5003 27.6772C59.3733 27.8042 59.2011 27.8755 59.0215 27.8755ZM11.0841 27.8755H5.97884C5.79927 27.8755 5.62705 27.8042 5.50007 27.6772C5.37309 27.5502 5.30176 27.378 5.30176 27.1984C5.30176 27.0189 5.37309 26.8466 5.50007 26.7197C5.62705 26.5927 5.79927 26.5214 5.97884 26.5214H11.0841C11.2636 26.5214 11.4358 26.5927 11.5628 26.7197C11.6898 26.8466 11.7611 27.0189 11.7611 27.1984C11.7611 27.378 11.6898 27.5502 11.5628 27.6772C11.4358 27.8042 11.2636 27.8755 11.0841 27.8755ZM32.5002 6.45937C32.3206 6.45937 32.1484 6.38804 32.0214 6.26106C31.8944 6.13408 31.8231 5.96186 31.8231 5.78229V0.677083C31.8231 0.49751 31.8944 0.325291 32.0214 0.198313C32.1484 0.0713354 32.3206 0 32.5002 0C32.6798 0 32.852 0.0713354 32.979 0.198313C33.1059 0.325291 33.1773 0.49751 33.1773 0.677083V5.78229C33.1773 5.96186 33.1059 6.13408 32.979 6.26106C32.852 6.38804 32.6798 6.45937 32.5002 6.45937ZM24.1044 8.16562C23.9793 8.16525 23.8568 8.13025 23.7505 8.06452C23.6441 7.99879 23.558 7.90489 23.5018 7.79323L22.1476 5.0375C22.1076 4.95792 22.0836 4.87124 22.0771 4.7824C22.0706 4.69357 22.0817 4.60432 22.1096 4.51976C22.1376 4.4352 22.182 4.35697 22.2402 4.28955C22.2984 4.22213 22.3693 4.16683 22.4489 4.12682C22.5285 4.08681 22.6152 4.06286 22.704 4.05635C22.7928 4.04984 22.8821 4.06089 22.9666 4.08887C23.0512 4.11685 23.1294 4.16121 23.1968 4.21942C23.2643 4.27763 23.3196 4.34855 23.3596 4.42812L24.7137 7.18385C24.7659 7.28744 24.7907 7.4027 24.7855 7.51858C24.7804 7.63446 24.7455 7.74707 24.6844 7.84563C24.6232 7.94418 24.5377 8.02537 24.4362 8.0814C24.3346 8.13743 24.2204 8.16644 24.1044 8.16562ZM12.4314 20.3734C12.1877 20.3734 12.3163 20.3734 9.20176 18.7214C9.12336 18.6788 9.05413 18.6212 8.99805 18.5519C8.94197 18.4825 8.90015 18.4028 8.87498 18.3172C8.84982 18.2317 8.8418 18.142 8.8514 18.0533C8.861 17.9646 8.88803 17.8787 8.93092 17.8005C8.97344 17.7221 9.03104 17.6529 9.10039 17.5968C9.16974 17.5407 9.24949 17.4989 9.33506 17.4737C9.42062 17.4486 9.51032 17.4406 9.59899 17.4502C9.68766 17.4598 9.77356 17.4868 9.85176 17.5297L12.7564 19.1005C12.8893 19.1722 12.9944 19.2863 13.055 19.4246C13.1156 19.5629 13.1283 19.7176 13.0909 19.8639C13.0535 20.0102 12.9684 20.1398 12.8489 20.2321C12.7294 20.3245 12.5824 20.3742 12.4314 20.3734ZM9.71634 37.524C9.56584 37.5265 9.41876 37.4789 9.29835 37.3886C9.17794 37.2982 9.09107 37.1704 9.05146 37.0251C9.01186 36.8799 9.02177 36.7256 9.07965 36.5867C9.13752 36.4477 9.24005 36.332 9.37103 36.2578L12.2622 34.5312C12.4169 34.4503 12.597 34.4323 12.7647 34.4809C12.9324 34.5296 13.0748 34.6412 13.1622 34.7924C13.2496 34.9436 13.2752 35.1227 13.2337 35.2923C13.1921 35.4619 13.0866 35.6089 12.9393 35.7026C9.85176 37.551 9.97363 37.524 9.71634 37.524ZM41.0111 8.16562C40.8957 8.16528 40.7823 8.13543 40.6817 8.07892C40.581 8.0224 40.4965 7.9411 40.4361 7.84274C40.3758 7.74437 40.3415 7.6322 40.3367 7.51688C40.3319 7.40156 40.3566 7.28693 40.4085 7.18385L41.7627 4.42812C41.8023 4.34771 41.8574 4.27595 41.925 4.21702C41.9925 4.15808 42.071 4.11314 42.1561 4.0848C42.2411 4.05645 42.3309 4.04528 42.4203 4.05191C42.5097 4.05854 42.5968 4.08285 42.6768 4.12344C42.7566 4.16362 42.8277 4.21921 42.8859 4.287C42.9442 4.35479 42.9884 4.43344 43.0161 4.51842C43.0438 4.60339 43.0544 4.69301 43.0473 4.7821C43.0402 4.87119 43.0155 4.95799 42.9747 5.0375L41.6205 7.79323C41.5637 7.90592 41.4766 8.0005 41.3689 8.0663C41.2612 8.1321 41.1373 8.1665 41.0111 8.16562ZM52.684 20.3734C52.533 20.3742 52.3861 20.3245 52.2666 20.2321C52.1471 20.1398 52.0619 20.0102 52.0246 19.8639C51.9872 19.7176 51.9999 19.5629 52.0605 19.4246C52.1211 19.2863 52.2262 19.1722 52.3591 19.1005L55.2705 17.5297C55.4278 17.4452 55.6121 17.4262 55.7833 17.477C55.9545 17.5277 56.0987 17.644 56.1846 17.8005C56.2275 17.8787 56.2545 17.9646 56.2641 18.0533C56.2737 18.142 56.2657 18.2317 56.2405 18.3172C56.2153 18.4028 56.1735 18.4825 56.1174 18.5519C56.0614 18.6212 55.9921 18.6788 55.9137 18.7214C52.7179 20.4479 52.921 20.3734 52.684 20.3734ZM55.3992 37.524C55.1351 37.524 55.2502 37.524 52.1695 35.7297C52.0151 35.6381 51.9033 35.4889 51.8589 35.315C51.8145 35.141 51.8409 34.9565 51.9325 34.8021C51.975 34.7237 52.0326 34.6545 52.102 34.5984C52.1713 34.5423 52.2511 34.5005 52.3366 34.4753C52.4222 34.4501 52.5119 34.4421 52.6006 34.4517C52.6892 34.4613 52.7751 34.4884 52.8533 34.5312L55.7445 36.2307C55.8927 36.2957 56.0127 36.4115 56.0829 36.5573C56.153 36.7031 56.1686 36.8692 56.1269 37.0256C56.0851 37.1819 55.9888 37.3181 55.8553 37.4095C55.7218 37.5009 55.56 37.5415 55.3992 37.524Z" fill="#4E5A8D"/>
<path d="M24.5983 55.9542C24.4187 55.965 24.2422 55.904 24.1077 55.7846C23.9731 55.6652 23.8914 55.4973 23.8806 55.3177C23.8698 55.1381 23.9308 54.9616 24.0502 54.827C24.1696 54.6925 24.3375 54.6108 24.5171 54.6L40.3202 52.6636C40.4998 52.642 40.6806 52.6927 40.8228 52.8044C40.965 52.9162 41.057 53.0798 41.0785 53.2594C41.1001 53.439 41.0494 53.6197 40.9377 53.762C40.8259 53.9042 40.6623 53.9962 40.4827 54.0177C23.9009 56.0422 24.666 55.9542 24.5983 55.9542ZM24.8556 58.9063C24.676 58.917 24.4995 58.856 24.3649 58.7367C24.2303 58.6173 24.1487 58.4494 24.1379 58.2698C24.1271 58.0902 24.1881 57.9137 24.3075 57.7791C24.4269 57.6445 24.5948 57.5629 24.7744 57.5521L40.3473 55.6427C40.525 55.6217 40.7038 55.6718 40.8446 55.7822C40.9854 55.8926 41.0768 56.0542 41.0988 56.2318C41.1102 56.3203 41.104 56.4102 41.0805 56.4963C41.057 56.5824 41.0167 56.663 40.962 56.7334C40.9073 56.8039 40.8391 56.8629 40.7615 56.9069C40.6839 56.951 40.5984 56.9792 40.5098 56.9901C23.8061 59.0281 24.9233 58.9063 24.8556 58.9063Z" fill="#3F416F"/>
</svg>
