<svg width="100" height="100" viewBox="0 0 100 100" fill="none" xmlns="http://www.w3.org/2000/svg">
<path d="M98.2422 63.4766C98.2422 83.0547 83.2012 98.9258 64.6484 98.9258C59.6381 98.928 54.6971 97.7546 50.2227 95.5C49.8965 95.3359 49.5736 95.1667 49.2539 94.9922C38.4453 89.1016 31.0547 77.1992 31.0547 63.4766C31.0547 54.1621 34.459 45.6875 40.0273 39.3613C40.0957 39.2832 40.166 39.2051 40.2363 39.127C44.8926 33.9316 51.0215 30.2227 57.918 28.7422C58.5258 28.6088 59.0697 28.2713 59.4591 27.786C59.8485 27.3006 60.0601 26.6965 60.0586 26.0742C60.0588 25.5563 60.2646 25.0596 60.6309 24.6934C60.9971 24.3271 61.4938 24.1213 62.0117 24.1211H67.2852C67.8031 24.1213 68.2998 24.3271 68.666 24.6934C69.0323 25.0596 69.2381 25.5563 69.2383 26.0742C69.2368 26.6965 69.4483 27.3006 69.8378 27.786C70.2272 28.2713 70.7711 28.6088 71.3789 28.7422C86.707 32.0313 98.2422 46.332 98.2422 63.4766Z" fill="#B28966"/>
<path d="M66.8945 68.75C66.8958 74.3219 65.3342 79.7824 62.3871 84.5111C59.4399 89.2398 55.2255 93.0469 50.2227 95.5C49.8965 95.3359 49.5736 95.1667 49.2539 94.9922C38.4453 89.1016 31.0547 77.1992 31.0547 63.4766C31.0547 54.1621 34.459 45.6875 40.0273 39.3613C40.0957 39.2832 40.166 39.2051 40.2363 39.127C47.5538 39.9005 54.3261 43.3548 59.2483 48.8244C64.1704 54.294 66.8941 61.3917 66.8945 68.75Z" fill="#8B6847"/>
<path d="M31.25 98.5352C47.6999 98.5352 61.0352 85.1999 61.0352 68.75C61.0352 52.3001 47.6999 38.9648 31.25 38.9648C14.8001 38.9648 1.46484 52.3001 1.46484 68.75C1.46484 85.1999 14.8001 98.5352 31.25 98.5352Z" fill="#ACD037"/>
<path d="M31.25 79.3945C38.2075 79.3945 43.8477 74.6288 43.8477 68.75C43.8477 62.8712 38.2075 58.1055 31.25 58.1055C24.2925 58.1055 18.6523 62.8712 18.6523 68.75C18.6523 74.6288 24.2925 79.3945 31.25 79.3945Z" fill="#E0E0E2"/>
<path d="M31.2499 51.7578C30.8614 51.7578 30.4889 51.6034 30.2141 51.3287C29.9394 51.054 29.7851 50.6814 29.7851 50.2929V47.7539C29.7851 47.3654 29.9394 46.9928 30.2141 46.7181C30.4889 46.4433 30.8614 46.289 31.2499 46.289C31.6384 46.289 32.011 46.4433 32.2857 46.7181C32.5605 46.9928 32.7148 47.3654 32.7148 47.7539V50.2929C32.7148 50.6814 32.5605 51.054 32.2857 51.3287C32.011 51.6034 31.6384 51.7578 31.2499 51.7578ZM31.2499 91.2109C30.8614 91.2109 30.4889 91.0565 30.2141 90.7818C29.9394 90.5071 29.7851 90.1345 29.7851 89.746V87.207C29.7851 86.8185 29.9394 86.4459 30.2141 86.1712C30.4889 85.8965 30.8614 85.7421 31.2499 85.7421C31.6384 85.7421 32.011 85.8965 32.2857 86.1712C32.5605 86.4459 32.7148 86.8185 32.7148 87.207V89.746C32.7148 90.1345 32.5605 90.5071 32.2857 90.7818C32.011 91.0565 31.6384 91.2109 31.2499 91.2109ZM12.7929 70.2148H10.2539C9.86535 70.2148 9.49276 70.0605 9.21805 69.7857C8.94334 69.511 8.78901 69.1384 8.78901 68.7499C8.78901 68.3614 8.94334 67.9889 9.21805 67.7141C9.49276 67.4394 9.86535 67.2851 10.2539 67.2851H12.7929C13.1814 67.2851 13.554 67.4394 13.8287 67.7141C14.1034 67.9889 14.2578 68.3614 14.2578 68.7499C14.2578 69.1384 14.1034 69.511 13.8287 69.7857C13.554 70.0605 13.1814 70.2148 12.7929 70.2148ZM52.246 70.2148H49.707C49.3185 70.2148 48.9459 70.0605 48.6712 69.7857C48.3965 69.511 48.2421 69.1384 48.2421 68.7499C48.2421 68.3614 48.3965 67.9889 48.6712 67.7141C48.9459 67.4394 49.3185 67.2851 49.707 67.2851H52.246C52.6345 67.2851 53.0071 67.4394 53.2818 67.7141C53.5566 67.9889 53.7109 68.3614 53.7109 68.7499C53.7109 69.1384 53.5566 69.511 53.2818 69.7857C53.0071 70.0605 52.6345 70.2148 52.246 70.2148ZM19.5799 58.5448C19.3875 58.545 19.197 58.5072 19.0192 58.4336C18.8415 58.36 18.68 58.2519 18.5441 58.1157L16.7488 56.3203C16.4745 56.0455 16.3206 55.6731 16.3208 55.2849C16.321 54.8966 16.4754 54.5244 16.7499 54.2499C17.0244 53.9754 17.3966 53.821 17.7849 53.8208C18.1731 53.8206 18.5455 53.9745 18.8203 54.2488L20.6157 56.0441C20.8206 56.249 20.9601 56.51 21.0166 56.7942C21.0731 57.0783 21.0441 57.3728 20.9332 57.6405C20.8224 57.9082 20.6346 58.1369 20.3937 58.2979C20.1528 58.4588 19.8696 58.5448 19.5799 58.5448ZM44.7154 83.6802C44.5229 83.6804 44.3324 83.6427 44.1546 83.569C43.9769 83.4954 43.8154 83.3874 43.6796 83.2511L41.8842 81.4557C41.61 81.1809 41.456 80.8085 41.4563 80.4203C41.4565 80.0321 41.6108 79.6598 41.8853 79.3853C42.1598 79.1108 42.5321 78.9565 42.9203 78.9563C43.3085 78.956 43.6809 79.11 43.9557 79.3842L45.7511 81.1796C45.956 81.3844 46.0955 81.6454 46.152 81.9296C46.2085 82.2137 46.1795 82.5083 46.0687 82.7759C45.9578 83.0436 45.77 83.2724 45.5292 83.4333C45.2883 83.5943 45.0051 83.6802 44.7154 83.6802ZM17.7845 83.6802C17.4948 83.6802 17.2116 83.5943 16.9707 83.4333C16.7298 83.2724 16.5421 83.0436 16.4312 82.7759C16.3204 82.5083 16.2914 82.2137 16.3479 81.9296C16.4044 81.6454 16.5439 81.3844 16.7488 81.1796L18.5441 79.3842C18.819 79.11 19.1914 78.956 19.5796 78.9563C19.9678 78.9565 20.3401 79.1108 20.6146 79.3853C20.8891 79.6598 21.0434 80.0321 21.0436 80.4203C21.0438 80.8085 20.8899 81.1809 20.6157 81.4557L18.8203 83.2511C18.6845 83.3874 18.523 83.4954 18.3452 83.569C18.1675 83.6427 17.9769 83.6804 17.7845 83.6802ZM42.92 58.5448C42.6302 58.5448 42.347 58.4588 42.1062 58.2979C41.8653 58.1369 41.6775 57.9082 41.5667 57.6405C41.4558 57.3728 41.4268 57.0783 41.4833 56.7942C41.5398 56.51 41.6793 56.249 41.8842 56.0441L43.6796 54.2488C43.9544 53.9745 44.3268 53.8206 44.715 53.8208C45.1032 53.821 45.4755 53.9754 45.75 54.2499C46.0245 54.5244 46.1788 54.8966 46.1791 55.2849C46.1793 55.6731 46.0254 56.0455 45.7511 56.3203L43.9557 58.1157C43.8199 58.2519 43.6584 58.36 43.4807 58.4336C43.3029 58.5072 43.1124 58.545 42.92 58.5448ZM40.5851 91.1804C40.3017 91.1805 40.0244 91.0984 39.7867 90.944C39.5491 90.7897 39.3612 90.5698 39.246 90.3109L38.2133 87.9913C38.135 87.8155 38.0922 87.6261 38.0872 87.4338C38.0821 87.2415 38.115 87.0501 38.184 86.8705C38.3232 86.5079 38.6008 86.2153 38.9557 86.0573C39.3106 85.8993 39.7138 85.8888 40.0765 86.028C40.4392 86.1672 40.7317 86.4448 40.8897 86.7998L41.9224 89.1194C42.0215 89.3424 42.0634 89.5866 42.0442 89.8299C42.0251 90.0732 41.9454 90.3078 41.8126 90.5125C41.6798 90.7172 41.4979 90.8855 41.2836 91.0022C41.0692 91.1188 40.8291 91.18 40.5851 91.1804ZM22.9493 51.5696C22.6659 51.5697 22.3886 51.4876 22.1509 51.3333C21.9132 51.179 21.7254 50.959 21.6102 50.7001L20.5775 48.3805C20.4195 48.0256 20.4089 47.6225 20.5481 47.2598C20.6874 46.8971 20.965 46.6046 21.3199 46.4466C21.6748 46.2885 22.078 46.278 22.4406 46.4172C22.8033 46.5565 23.0958 46.8341 23.2539 47.189L24.2866 49.5086C24.3857 49.7316 24.4276 49.9758 24.4084 50.2191C24.3892 50.4624 24.3096 50.697 24.1768 50.9018C24.044 51.1065 23.8621 51.2748 23.6477 51.3914C23.4334 51.508 23.1933 51.5693 22.9493 51.5696ZM49.8964 61.9136C49.5607 61.9137 49.2351 61.7986 48.9742 61.5874C48.7133 61.3762 48.5327 61.0818 48.4629 60.7535C48.393 60.4252 48.438 60.0828 48.5903 59.7837C48.7427 59.4845 48.9931 59.2468 49.2998 59.1102L51.6194 58.0775C51.9743 57.9195 52.3774 57.9089 52.7401 58.0482C53.1028 58.1874 53.3953 58.465 53.5533 58.8199C53.7113 59.1748 53.7219 59.578 53.5827 59.9406C53.4434 60.3033 53.1658 60.5959 52.8109 60.7539L50.4913 61.7866C50.3041 61.8703 50.1014 61.9136 49.8964 61.9136ZM10.2856 79.5494C9.94992 79.5496 9.62437 79.4344 9.36343 79.2232C9.10249 79.012 8.92198 78.7177 8.85211 78.3893C8.78223 78.061 8.82723 77.7186 8.97957 77.4195C9.1319 77.1204 9.38235 76.8826 9.68899 76.746L12.0086 75.7133C12.3635 75.5553 12.7667 75.5447 13.1294 75.684C13.492 75.8232 13.7846 76.1008 13.9426 76.4557C14.1006 76.8106 14.1111 77.2138 13.9719 77.5765C13.8327 77.9392 13.5551 78.2317 13.2001 78.3897L10.8805 79.4224C10.6933 79.5061 10.4906 79.5494 10.2856 79.5494ZM23.0254 91.6401C22.7878 91.6399 22.5538 91.5819 22.3435 91.4712C22.1333 91.3604 21.9532 91.2002 21.8186 91.0044C21.6841 90.8085 21.5992 90.5829 21.5712 90.347C21.5432 90.111 21.573 89.8718 21.6581 89.6499L22.5681 87.2795C22.637 87.0999 22.7407 86.9356 22.8731 86.7961C23.0055 86.6565 23.1641 86.5444 23.3399 86.4662C23.5156 86.388 23.705 86.3451 23.8973 86.3401C24.0896 86.335 24.2811 86.3679 24.4606 86.4369C24.6402 86.5058 24.8045 86.6095 24.944 86.7419C25.0836 86.8743 25.1957 87.0329 25.2739 87.2087C25.3521 87.3844 25.395 87.5738 25.4 87.7661C25.4051 87.9585 25.3722 88.1499 25.3032 88.3295L24.3932 90.6999C24.287 90.9766 24.0994 91.2145 23.8552 91.3823C23.611 91.5502 23.3217 91.6401 23.0254 91.6401ZM38.564 51.1607C38.3263 51.1604 38.0924 51.1025 37.8821 50.9917C37.6719 50.881 37.4918 50.7208 37.3572 50.5249C37.2227 50.3291 37.1378 50.1034 37.1098 49.8675C37.0818 49.6315 37.1116 49.3923 37.1967 49.1704L38.1067 46.8C38.1756 46.6204 38.2793 46.4561 38.4117 46.3166C38.5441 46.1771 38.7027 46.065 38.8785 45.9867C39.0542 45.9085 39.2436 45.8656 39.4359 45.8606C39.6282 45.8556 39.8197 45.8885 39.9992 45.9574C40.1788 46.0264 40.3431 46.13 40.4826 46.2624C40.6222 46.3948 40.7343 46.5535 40.8125 46.7292C40.8907 46.9049 40.9336 47.0944 40.9386 47.2867C40.9437 47.479 40.9108 47.6704 40.8418 47.85L39.9318 50.2204C39.8256 50.4971 39.638 50.735 39.3938 50.9029C39.1496 51.0707 38.8603 51.1606 38.564 51.1607ZM52.6746 78.4395C52.4952 78.4394 52.3173 78.4063 52.1499 78.3418L49.7795 77.4318C49.5999 77.3629 49.4356 77.2592 49.2961 77.1268C49.1565 76.9944 49.0444 76.8358 48.9662 76.66C48.888 76.4843 48.8451 76.2949 48.8401 76.1026C48.835 75.9102 48.8679 75.7188 48.9369 75.5392C49.0058 75.3597 49.1095 75.1954 49.2419 75.0559C49.3743 74.9163 49.5329 74.8042 49.7087 74.726C49.8844 74.6478 50.0738 74.6049 50.2661 74.5999C50.4585 74.5948 50.6499 74.6277 50.8295 74.6967L53.1999 75.6067C53.5194 75.7294 53.7858 75.96 53.953 76.2587C54.1202 76.5573 54.1776 76.905 54.1152 77.2415C54.0528 77.578 53.8745 77.882 53.6114 78.1008C53.3483 78.3197 53.0168 78.4395 52.6746 78.4395ZM12.1951 62.9009C12.0157 62.9008 11.8379 62.8677 11.6704 62.8032L9.29999 61.8932C9.12039 61.8243 8.95614 61.7206 8.8166 61.5882C8.67707 61.4558 8.56498 61.2972 8.48674 61.1214C8.4085 60.9457 8.36564 60.7563 8.36061 60.564C8.35558 60.3717 8.38847 60.1802 8.45742 60.0007C8.52636 59.8211 8.63 59.6568 8.76243 59.5173C8.89485 59.3777 9.05346 59.2656 9.2292 59.1874C9.40494 59.1092 9.59437 59.0663 9.78668 59.0613C9.97898 59.0562 10.1704 59.0891 10.35 59.1581L12.7204 60.0681C13.0399 60.1908 13.3064 60.4214 13.4735 60.7201C13.6407 61.0187 13.6981 61.3664 13.6357 61.7029C13.5733 62.0394 13.3951 62.3434 13.1319 62.5622C12.8688 62.7811 12.5374 62.9009 12.1951 62.9009Z" fill="#58565D"/>
</svg>
