<svg width="100" height="100" viewBox="0 0 100 100" fill="none" xmlns="http://www.w3.org/2000/svg">
<path d="M65.5715 74.9981C60.943 79.6604 55.4321 83.354 49.3605 85.8633C48.8703 86.0644 48.3781 86.2559 47.884 86.4375C38.5754 89.8711 28.8176 90.0156 20.5695 86.6953C19.0934 86.1019 17.5197 85.7886 15.9289 85.7715L11.6906 85.7266C9.88456 85.6993 8.16011 84.9697 6.88289 83.6925C5.60566 82.4153 4.87608 80.6908 4.84883 78.8848L4.80391 74.6445C4.78658 73.0544 4.4733 71.4813 3.88008 70.0059C-1.69024 56.1719 2.4914 38.0879 15.5773 25.002C28.2238 12.3575 45.5344 8.02542 59.1691 12.7754C60.0573 13.0897 61.0044 13.2018 61.9414 13.1035C62.8784 13.0052 63.7816 12.6989 64.5851 12.2071L64.9094 12.0059C66.2605 11.1869 67.8483 10.8475 69.4162 11.0424C70.9841 11.2373 72.4405 11.9552 73.55 13.0801L77.4933 17.0254C78.619 18.134 79.3375 19.5901 79.5325 21.158C79.7274 22.7258 79.3874 24.3136 78.5676 25.6641L78.3684 25.9903C77.876 26.7936 77.5695 27.6969 77.4711 28.6339C77.3728 29.571 77.4851 30.5182 77.8 31.4063C78.0969 32.2578 78.3579 33.1231 78.5832 34.002C78.8634 35.0895 79.0883 36.1905 79.257 37.3008C81.1808 49.7773 76.4543 64.1153 65.5715 74.9981Z" fill="#FDD402"/>
<path d="M68.7412 89.1018C85.1911 89.1018 98.5264 75.7665 98.5264 59.3166C98.5264 42.8668 85.1911 29.5315 68.7412 29.5315C52.2913 29.5315 38.9561 42.8668 38.9561 59.3166C38.9561 75.7665 52.2913 89.1018 68.7412 89.1018Z" fill="#FDEB96"/>
<path d="M65.5713 74.9983C60.9428 79.6607 55.4319 83.3543 49.3604 85.8635C45.7814 84.0396 42.6082 81.5107 40.0318 78.4289C37.4553 75.3471 35.5287 71.7761 34.3678 67.9306C33.2069 64.0851 32.8358 60.0445 33.2767 56.0518C33.7175 52.0592 34.9613 48.1969 36.9333 44.6973C38.9052 41.1977 41.5646 38.1331 44.7514 35.6877C47.9382 33.2423 51.5866 31.4667 55.4773 30.4676C59.368 29.4685 63.4206 29.2666 67.3913 29.8741C71.3621 30.4815 75.1689 31.8857 78.583 34.0022C78.8632 35.0897 79.0881 36.1907 79.2568 37.301C81.1807 49.7776 76.4541 64.1155 65.5713 74.9983Z" fill="#FBBF13"/>
<path d="M68.7412 89.1018C85.1911 89.1018 98.5264 75.7665 98.5264 59.3166C98.5264 42.8668 85.1911 29.5315 68.7412 29.5315C52.2913 29.5315 38.9561 42.8668 38.9561 59.3166C38.9561 75.7665 52.2913 89.1018 68.7412 89.1018Z" fill="#FDDE47"/>
<path d="M68.7412 89.1018C52.3176 89.1018 38.9561 75.7403 38.9561 59.3167C38.9561 42.893 52.3176 29.5315 68.7412 29.5315C85.1648 29.5315 98.5264 42.893 98.5264 59.3167C98.5264 75.7403 85.1648 89.1018 68.7412 89.1018ZM68.7412 32.4708C53.9384 32.4708 41.8954 44.5138 41.8954 59.3167C41.8954 74.1195 53.9384 86.1625 68.7412 86.1625C83.544 86.1625 95.587 74.1195 95.587 59.3167C95.587 44.5138 83.544 32.4708 68.7412 32.4708Z" fill="#FFF4CA"/>
<path d="M69.2295 52.5784L65.2173 38.0997C65.1611 37.8967 65.1525 37.6834 65.1923 37.4765C65.2321 37.2696 65.3191 37.0747 65.4467 36.907C65.5742 36.7393 65.7388 36.6033 65.9276 36.5097C66.1163 36.4161 66.3242 36.3674 66.5349 36.3674H71.9241C72.1348 36.3674 72.3426 36.4161 72.5314 36.5097C72.7202 36.6033 72.8848 36.7393 73.0123 36.907C73.1399 37.0747 73.2269 37.2696 73.2667 37.4765C73.3065 37.6834 73.2979 37.8967 73.2417 38.0997L69.2295 52.5784ZM64.1195 54.695L51.0446 47.2941C50.8612 47.1903 50.7043 47.0455 50.5861 46.8711C50.468 46.6966 50.3917 46.4973 50.3633 46.2885C50.3349 46.0797 50.3552 45.8672 50.4225 45.6675C50.4898 45.4679 50.6023 45.2865 50.7513 45.1375L54.5621 41.3267C54.711 41.1778 54.8924 41.0652 55.0921 40.9979C55.2918 40.9306 55.5043 40.9104 55.713 40.9388C55.9218 40.9672 56.1212 41.0434 56.2956 41.1616C56.4701 41.2798 56.6148 41.4367 56.7186 41.62L64.1195 54.695ZM62.0029 59.8049L47.5243 63.8171C47.3212 63.8734 47.1079 63.8819 46.901 63.8421C46.6941 63.8024 46.4992 63.7153 46.3315 63.5878C46.1638 63.4602 46.0279 63.2956 45.9343 63.1069C45.8407 62.9181 45.792 62.7102 45.792 62.4995V57.1103C45.792 56.8996 45.8407 56.6918 45.9343 56.503C46.0279 56.3142 46.1638 56.1497 46.3315 56.0221C46.4992 55.8946 46.6941 55.8075 46.901 55.7677C47.1079 55.7279 47.3212 55.7365 47.5243 55.7928L62.0029 59.8049ZM64.1195 64.9149L56.7186 77.9899C56.6148 78.1732 56.4701 78.3301 56.2956 78.4483C56.1212 78.5664 55.9218 78.6427 55.713 78.6711C55.5043 78.6995 55.2918 78.6792 55.0921 78.6119C54.8924 78.5447 54.711 78.4321 54.5621 78.2831L50.7513 74.4724C50.6023 74.3234 50.4898 74.142 50.4225 73.9423C50.3552 73.7427 50.3349 73.5302 50.3633 73.3214C50.3917 73.1126 50.468 72.9132 50.5861 72.7388C50.7043 72.5644 50.8612 72.4196 51.0446 72.3158L64.1195 64.9149ZM69.2295 67.0315L73.2417 81.5101C73.2979 81.7132 73.3065 81.9265 73.2667 82.1334C73.2269 82.3403 73.1399 82.5352 73.0123 82.7029C72.8848 82.8706 72.7202 83.0066 72.5314 83.1002C72.3426 83.1937 72.1348 83.2424 71.9241 83.2424H66.5349C66.3242 83.2424 66.1163 83.1937 65.9276 83.1002C65.7388 83.0066 65.5742 82.8706 65.4467 82.7029C65.3191 82.5352 65.2321 82.3403 65.1923 82.1334C65.1525 81.9265 65.1611 81.7132 65.2173 81.5101L69.2295 67.0315ZM74.3394 64.9149L87.4144 72.3158C87.5978 72.4196 87.7547 72.5644 87.8728 72.7388C87.991 72.9132 88.0673 73.1126 88.0957 73.3214C88.1241 73.5302 88.1038 73.7427 88.0365 73.9423C87.9692 74.142 87.8567 74.3234 87.7077 74.4724L83.8969 78.2831C83.7479 78.4321 83.5665 78.5447 83.3669 78.6119C83.1672 78.6792 82.9547 78.6995 82.7459 78.6711C82.5372 78.6427 82.3378 78.5664 82.1634 78.4483C81.9889 78.3301 81.8442 78.1732 81.7404 77.9899L74.3394 64.9149ZM76.4561 59.8049L90.9347 55.7928C91.1377 55.7365 91.351 55.7279 91.5579 55.7677C91.7649 55.8075 91.9598 55.8946 92.1275 56.0221C92.2952 56.1497 92.4311 56.3142 92.5247 56.503C92.6183 56.6918 92.667 56.8996 92.667 57.1103V62.4995C92.667 62.7102 92.6183 62.9181 92.5247 63.1069C92.4311 63.2956 92.2952 63.4602 92.1275 63.5878C91.9598 63.7153 91.7649 63.8024 91.5579 63.8421C91.351 63.8819 91.1377 63.8734 90.9347 63.8171L76.4561 59.8049ZM74.3394 54.695L81.7404 41.62C81.8442 41.4366 81.9889 41.2798 82.1634 41.1616C82.3378 41.0434 82.5372 40.9672 82.7459 40.9388C82.9547 40.9104 83.1672 40.9306 83.3669 40.9979C83.5665 41.0652 83.7479 41.1778 83.8969 41.3267L87.7077 45.1375C87.8567 45.2865 87.9692 45.4679 88.0365 45.6675C88.1038 45.8672 88.1241 46.0797 88.0957 46.2885C88.0673 46.4973 87.991 46.6966 87.8728 46.8711C87.7547 47.0455 87.5978 47.1903 87.4144 47.2941L74.3394 54.695Z" fill="#FFF4CA"/>
</svg>
