<svg width="45" height="45" viewBox="0 0 45 45" fill="none" xmlns="http://www.w3.org/2000/svg">
<path d="M7.5 22.5C7.5 22.9973 7.69754 23.4742 8.04918 23.8258C8.40081 24.1775 8.87772 24.375 9.375 24.375H23.6063L19.2937 28.6687C19.118 28.8431 18.9785 29.0504 18.8833 29.2789C18.7881 29.5074 18.7391 29.7525 18.7391 30C18.7391 30.2475 18.7881 30.4926 18.8833 30.7211C18.9785 30.9496 19.118 31.1569 19.2937 31.3312C19.4681 31.507 19.6754 31.6465 19.9039 31.7417C20.1324 31.8369 20.3775 31.8859 20.625 31.8859C20.8725 31.8859 21.1176 31.8369 21.3461 31.7417C21.5746 31.6465 21.7819 31.507 21.9563 31.3312L29.4563 23.8313C29.627 23.6529 29.7608 23.4427 29.85 23.2125C30.0375 22.756 30.0375 22.244 29.85 21.7875C29.7608 21.5573 29.627 21.3471 29.4563 21.1687L21.9563 13.6687C21.7814 13.4939 21.5739 13.3553 21.3455 13.2606C21.1171 13.166 20.8722 13.1173 20.625 13.1173C20.3778 13.1173 20.1329 13.166 19.9045 13.2606C19.6761 13.3553 19.4686 13.4939 19.2937 13.6687C19.1189 13.8436 18.9803 14.0511 18.8856 14.2795C18.791 14.5079 18.7423 14.7528 18.7423 15C18.7423 15.2472 18.791 15.4921 18.8856 15.7205C18.9803 15.9489 19.1189 16.1564 19.2937 16.3313L23.6063 20.625H9.375C8.87772 20.625 8.40081 20.8225 8.04918 21.1742C7.69754 21.5258 7.5 22.0027 7.5 22.5ZM31.875 3.75H13.125C11.6332 3.75 10.2024 4.34263 9.14752 5.39752C8.09263 6.45242 7.5 7.88316 7.5 9.375V15C7.5 15.4973 7.69754 15.9742 8.04918 16.3258C8.40081 16.6775 8.87772 16.875 9.375 16.875C9.87228 16.875 10.3492 16.6775 10.7008 16.3258C11.0525 15.9742 11.25 15.4973 11.25 15V9.375C11.25 8.87772 11.4475 8.40081 11.7992 8.04918C12.1508 7.69754 12.6277 7.5 13.125 7.5H31.875C32.3723 7.5 32.8492 7.69754 33.2008 8.04918C33.5525 8.40081 33.75 8.87772 33.75 9.375V35.625C33.75 36.1223 33.5525 36.5992 33.2008 36.9508C32.8492 37.3025 32.3723 37.5 31.875 37.5H13.125C12.6277 37.5 12.1508 37.3025 11.7992 36.9508C11.4475 36.5992 11.25 36.1223 11.25 35.625V30C11.25 29.5027 11.0525 29.0258 10.7008 28.6742C10.3492 28.3225 9.87228 28.125 9.375 28.125C8.87772 28.125 8.40081 28.3225 8.04918 28.6742C7.69754 29.0258 7.5 29.5027 7.5 30V35.625C7.5 37.1168 8.09263 38.5476 9.14752 39.6025C10.2024 40.6574 11.6332 41.25 13.125 41.25H31.875C33.3668 41.25 34.7976 40.6574 35.8525 39.6025C36.9074 38.5476 37.5 37.1168 37.5 35.625V9.375C37.5 7.88316 36.9074 6.45242 35.8525 5.39752C34.7976 4.34263 33.3668 3.75 31.875 3.75Z" fill="#EA4335"/>
</svg>
