<svg width="30" height="30" viewBox="0 0 30 30" fill="none" xmlns="http://www.w3.org/2000/svg">
<g clip-path="url(#clip0_345_340)">
<g filter="url(#filter0_d_345_340)">
<path d="M15 1C12.2311 1 9.52431 1.82109 7.22202 3.35943C4.91973 4.89776 3.12532 7.08427 2.06569 9.64243C1.00607 12.2006 0.728819 15.0155 1.26901 17.7313C1.80921 20.447 3.14258 22.9416 5.10051 24.8995C7.05844 26.8574 9.55301 28.1908 12.2687 28.731C14.9845 29.2712 17.7994 28.9939 20.3576 27.9343C22.9157 26.8747 25.1022 25.0803 26.6406 22.778C28.1789 20.4757 29 17.7689 29 15C28.9969 11.2879 27.5209 7.72876 24.8961 5.10392C22.2712 2.47908 18.7121 1.00309 15 1ZM20.4145 15.896L13.4145 21.7293C13.2968 21.8275 13.161 21.9016 13.0147 21.9473C12.8684 21.993 12.7145 22.0095 12.5619 21.9957C12.4093 21.9819 12.2608 21.9382 12.1251 21.8671C11.9893 21.796 11.8689 21.6988 11.7707 21.5812C11.6725 21.4635 11.5984 21.3276 11.5527 21.1814C11.507 21.0351 11.4905 20.8812 11.5043 20.7286C11.5181 20.5759 11.5618 20.4275 11.6329 20.2917C11.704 20.156 11.8012 20.0355 11.9188 19.9373L17.8432 15L11.9188 10.0627C11.8012 9.96446 11.704 9.84404 11.6329 9.70828C11.5618 9.57252 11.5181 9.42408 11.5043 9.27144C11.4905 9.11879 11.507 8.96493 11.5527 8.81864C11.5984 8.67235 11.6725 8.5365 11.7707 8.41883C11.8689 8.30117 11.9893 8.204 12.1251 8.13287C12.2608 8.06175 12.4093 8.01806 12.5619 8.0043C12.7145 7.99054 12.8684 8.00698 13.0147 8.05269C13.161 8.09839 13.2968 8.17246 13.4145 8.27067L20.4145 14.104C20.5458 14.2135 20.6514 14.3505 20.7239 14.5053C20.7964 14.6602 20.834 14.829 20.834 15C20.834 15.171 20.7964 15.3398 20.7239 15.4947C20.6514 15.6495 20.5458 15.7865 20.4145 15.896Z" fill="black"/>
</g>
</g>
<defs>
<filter id="filter0_d_345_340" x="-2" y="-1" width="36" height="36" filterUnits="userSpaceOnUse" color-interpolation-filters="sRGB">
<feFlood flood-opacity="0" result="BackgroundImageFix"/>
<feColorMatrix in="SourceAlpha" type="matrix" values="0 0 0 0 0 0 0 0 0 0 0 0 0 0 0 0 0 0 127 0" result="hardAlpha"/>
<feOffset dx="1" dy="2"/>
<feGaussianBlur stdDeviation="2"/>
<feComposite in2="hardAlpha" operator="out"/>
<feColorMatrix type="matrix" values="0 0 0 0 0 0 0 0 0 0 0 0 0 0 0 0 0 0 0.25 0"/>
<feBlend mode="normal" in2="BackgroundImageFix" result="effect1_dropShadow_345_340"/>
<feBlend mode="normal" in="SourceGraphic" in2="effect1_dropShadow_345_340" result="shape"/>
</filter>
<clipPath id="clip0_345_340">
<rect width="30" height="30" fill="white"/>
</clipPath>
</defs>
</svg>
