<svg width="20" height="20" viewBox="0 0 20 20" fill="none" xmlns="http://www.w3.org/2000/svg">
<g clip-path="url(#clip0_229_1187)">
<path d="M8.26001 5.04008C8.02126 2.29383 5.15626 0.946331 5.03501 0.891331C4.92166 0.838048 4.79464 0.821024 4.67126 0.842581C1.36376 1.39133 0.86626 3.31633 0.84626 3.39633C0.819049 3.50781 0.823377 3.62467 0.85876 3.73383C4.80376 15.9738 13.0025 18.2426 15.6975 18.9888C15.905 19.0463 16.0763 19.0926 16.2063 19.1351C16.3546 19.1836 16.5158 19.1742 16.6575 19.1088C16.74 19.0713 18.6875 18.1538 19.1638 15.1613C19.1849 15.0307 19.1639 14.8967 19.1038 14.7788C19.0613 14.6963 18.0425 12.7576 15.2175 12.0726C15.1217 12.0481 15.0213 12.0472 14.9251 12.0701C14.8288 12.0929 14.7396 12.1388 14.665 12.2038C13.7738 12.9651 12.5425 13.7763 12.0113 13.8601C8.45001 12.1188 6.46126 8.77758 6.38626 8.14383C6.34251 7.78758 7.15876 6.53633 8.09751 5.51883C8.15651 5.45479 8.20145 5.37911 8.22944 5.29666C8.25743 5.2142 8.26784 5.1268 8.26001 5.04008Z" fill="white"/>
</g>
<defs>
<clipPath id="clip0_229_1187">
<rect width="20" height="20" fill="white"/>
</clipPath>
</defs>
</svg>
