<svg width="45" height="45" viewBox="0 0 45 45" fill="none" xmlns="http://www.w3.org/2000/svg">
<path d="M33.75 1.40625H11.25C8.92406 1.40625 7.03125 3.29906 7.03125 5.625V39.375C7.03125 41.7009 8.92406 43.5938 11.25 43.5938H33.75C36.0759 43.5938 37.9688 41.7009 37.9688 39.375V5.625C37.9688 3.29906 36.0759 1.40625 33.75 1.40625Z" fill="#E0E0E0"/>
<path d="M37.9688 5.62505V39.375C37.9688 41.6954 36.0703 43.5938 33.75 43.5938H11.25C8.92969 43.5938 7.03125 41.6954 7.03125 39.375V35.325C22.4297 31.3594 34.1859 18.3094 36.2391 2.22192C37.2797 2.99536 37.9688 4.23286 37.9688 5.62505Z" fill="#9E9E9E"/>
<path d="M22.5 14.0625C24.83 14.0625 26.7188 12.1737 26.7188 9.84375C26.7188 7.5138 24.83 5.625 22.5 5.625C20.17 5.625 18.2812 7.5138 18.2812 9.84375C18.2812 12.1737 20.17 14.0625 22.5 14.0625Z" fill="#607D8B"/>
<path d="M25.3125 15.4688H19.6875C17.3616 15.4688 15.4688 17.3616 15.4688 19.6875V21.0938C15.4688 21.87 16.0988 22.5 16.875 22.5H28.125C28.9027 22.5 29.5312 21.87 29.5312 21.0938V19.6875C29.5312 17.3616 27.6384 15.4688 25.3125 15.4688Z" fill="#607D8B"/>
<path d="M29.5312 19.6313V21.0938C29.5312 21.8673 28.8983 22.5001 28.1249 22.5001H27.3374C28.1108 21.586 28.8421 20.6298 29.5312 19.6313Z" fill="#455A64"/>
<path d="M33.75 1.40625H11.25C8.92406 1.40625 7.03125 3.29906 7.03125 5.625V39.375C7.03125 41.7009 8.92406 43.5938 11.25 43.5938H33.75C36.0759 43.5938 37.9688 41.7009 37.9688 39.375V5.625C37.9688 3.29906 36.0759 1.40625 33.75 1.40625ZM11.25 4.21875H33.75C34.5262 4.21875 35.1562 4.85016 35.1562 5.625V23.9062H9.84375V5.625C9.84375 4.85016 10.4752 4.21875 11.25 4.21875Z" fill="#2196F3"/>
<path d="M37.9688 5.62505V39.375C37.9688 41.6954 36.0703 43.5938 33.75 43.5938H11.25C8.92969 43.5938 7.03125 41.6954 7.03125 39.375V35.325C14.4703 33.4125 21.0516 29.3766 26.1141 23.9063H35.1562V7.62192C35.6484 5.86411 36.0141 4.06411 36.2391 2.22192C37.2797 2.99536 37.9688 4.23286 37.9688 5.62505Z" fill="#1976D2"/>
<path d="M15.4688 36.5625C17.7987 36.5625 19.6875 34.6737 19.6875 32.3438C19.6875 30.0138 17.7987 28.125 15.4688 28.125C13.1388 28.125 11.25 30.0138 11.25 32.3438C11.25 34.6737 13.1388 36.5625 15.4688 36.5625Z" fill="#FFC107"/>
<path d="M19.6876 32.3437C19.6876 34.664 17.7892 36.5625 15.4688 36.5625C13.6829 36.5625 12.1501 35.4375 11.5454 33.8625C14.1751 32.8359 16.6501 31.5281 18.9704 29.9812C19.4204 30.6562 19.6876 31.4718 19.6876 32.3437Z" fill="#FFA000"/>
<path d="M22.5 31.0486H32.3438C33.1214 31.0486 33.75 30.4186 33.75 29.6423C33.75 28.8661 33.1214 28.2361 32.3438 28.2361H22.5C21.7238 28.2361 21.0938 28.8661 21.0938 29.6423C21.0938 30.4186 21.7238 31.0486 22.5 31.0486ZM32.3438 32.3437H22.5C21.7238 32.3437 21.0938 32.9737 21.0938 33.75C21.0938 34.5262 21.7238 35.1562 22.5 35.1562H32.3438C33.1214 35.1562 33.75 34.5262 33.75 33.75C33.75 32.9737 33.1214 32.3437 32.3438 32.3437ZM32.3438 36.5625H22.5C21.7238 36.5625 21.0938 37.1925 21.0938 37.9687C21.0938 38.745 21.7238 39.375 22.5 39.375H32.3438C33.1214 39.375 33.75 38.745 33.75 37.9687C33.75 37.1925 33.1214 36.5625 32.3438 36.5625Z" fill="#9E9E9E"/>
</svg>
