<svg width="65" height="65" viewBox="0 0 65 65" fill="none" xmlns="http://www.w3.org/2000/svg">
<path fill-rule="evenodd" clip-rule="evenodd" d="M36.3494 3.69948L40.2197 6.59656C41.2782 7.38887 42.3924 7.79436 43.7125 7.86786L48.5394 8.13637C51.4298 8.29709 53.7773 10.2668 54.4374 13.0854L55.5401 17.7924C55.8417 19.0797 56.4345 20.1065 57.3986 21.0113L60.9237 24.3198C63.0344 26.3008 63.5665 29.3186 62.2607 31.9021L60.0797 36.2166C59.4833 37.3967 59.2774 38.5642 59.4343 39.8771L60.0081 44.6774C60.3517 47.5518 58.8195 50.2055 56.1585 51.3451L51.7144 53.2484C50.499 53.7689 49.5907 54.531 48.8671 55.6375L46.221 59.6835C44.6366 62.1062 41.7571 63.1542 38.9862 62.3168L34.3585 60.9183C33.0929 60.5358 31.9073 60.5358 30.6416 60.9183L26.0139 62.3168C23.243 63.1542 20.3635 62.1062 18.7791 59.6835L16.133 55.6375C15.4092 54.531 14.501 53.7689 13.2857 53.2484L8.84132 51.3449C6.18038 50.2052 4.64818 47.5515 4.99172 44.6772L5.56555 39.8768C5.72246 38.564 5.51654 37.3964 4.92012 36.2164L2.73919 31.9019C1.43335 29.3185 1.96541 26.3007 4.07613 24.3196L7.60124 21.0111C8.56532 20.1063 9.15807 19.0795 9.45958 17.7922L10.5623 13.0851C11.2224 10.2666 13.5699 8.29697 16.4603 8.13612L21.2872 7.86761C22.6074 7.79423 23.7215 7.38862 24.78 6.5963L28.6503 3.69923C30.9676 1.9648 34.032 1.9648 36.3494 3.69948Z" fill="#FFE177"/>
<path fill-rule="evenodd" clip-rule="evenodd" d="M36.3496 3.69962L40.2199 6.59669C41.2784 7.389 42.3926 7.79449 43.7128 7.868L48.5396 8.1365C51.43 8.29723 53.7775 10.2669 54.4376 13.0855L55.5403 17.7926C55.8419 19.0799 56.4347 20.1067 57.3988 21.0115L60.9239 24.32C63.0346 26.301 63.5667 29.3188 62.2609 31.9023L60.0799 36.2168C59.4835 37.3968 59.2776 38.5644 59.4345 39.8772L60.0083 44.6775C60.3519 47.5519 58.8197 50.2056 56.1587 51.3453L51.7146 53.2485C50.4992 53.769 49.5909 54.5311 48.8673 55.6377L46.2212 59.6837C44.7566 61.9232 42.1853 62.9879 39.6161 62.4745C41.2436 62.1431 42.7078 61.1735 43.6822 59.6837L46.3282 55.6377C47.0519 54.5311 47.9601 53.7689 49.1755 53.2485L53.6197 51.3453C56.2807 50.2056 57.8128 47.5519 57.4693 44.6775L56.8954 39.8772C56.7385 38.5644 56.9444 37.3968 57.5409 36.2168L59.7218 31.9023C61.0276 29.3189 60.4956 26.3011 58.3849 24.32L54.8597 21.0115C53.8957 20.1067 53.3029 19.0799 53.0013 17.7926L51.8986 13.0855C51.2384 10.267 48.8909 8.29735 46.0006 8.1365L41.1737 7.868C39.8535 7.79462 38.7394 7.389 37.6808 6.59669L33.8105 3.69962C33.018 3.10637 32.1381 2.71611 31.2306 2.5286C32.9765 2.16793 34.8248 2.55818 36.3496 3.69962ZM31.2305 60.7667C31.0321 60.8088 30.8357 60.8593 30.6417 60.9182L26.014 62.3167C24.9471 62.6391 23.8641 62.6817 22.8452 62.4742C23.0575 62.4318 23.2676 62.3792 23.4748 62.3167L28.1025 60.9182C29.17 60.5956 30.1807 60.545 31.2305 60.7667Z" fill="#FFD064"/>
<path d="M46.4633 46.463C54.1749 38.7512 54.1747 26.2481 46.4628 18.5365C38.751 10.8249 26.2478 10.8251 18.5363 18.537C10.8247 26.2488 10.8249 38.7519 18.5368 46.4635C26.2486 54.1751 38.7517 54.1749 46.4633 46.463Z" fill="#FFD064"/>
<path fill-rule="evenodd" clip-rule="evenodd" d="M32.4999 12.7529C32.9265 12.7529 33.3496 12.768 33.7694 12.7947C23.4552 13.4494 15.292 22.0206 15.292 32.5C15.292 42.9793 23.4553 51.5506 33.7695 52.2053C33.3497 52.2319 32.9265 52.247 32.5 52.247C21.5939 52.247 12.7529 43.406 12.7529 32.5C12.7528 21.5941 21.5938 12.7529 32.4999 12.7529Z" fill="#FFC338"/>
<path fill-rule="evenodd" clip-rule="evenodd" d="M30.0309 34.158L39.171 24.9267C40.2529 23.834 42.0181 23.8309 43.1076 24.9145C44.197 25.9978 44.2004 27.7579 43.1196 28.8487C39.4133 32.5894 35.7319 36.3549 32.0083 40.0785C30.9197 41.1671 29.154 41.167 28.0654 40.0785L21.8878 33.9009C20.7991 32.8123 20.7991 31.0466 21.8878 29.958C22.9763 28.8694 24.7422 28.8694 25.8307 29.958L30.0309 34.158Z" fill="#ECEFF1"/>
</svg>
