<svg width="25" height="25" viewBox="0 0 25 25" fill="none" xmlns="http://www.w3.org/2000/svg">
<path d="M1.99683 5.73286C1.99683 6.04366 2.12029 6.34173 2.34006 6.5615C2.55983 6.78127 2.8579 6.90474 3.1687 6.90474H3.7937V20.7524C3.79473 21.7749 4.20132 22.7552 4.92427 23.4783C5.64721 24.2014 6.62746 24.6082 7.64995 24.6094H17.35C18.3724 24.6082 19.3527 24.2014 20.0756 23.4783C20.7986 22.7552 21.2052 21.7749 21.2062 20.7524V6.90474H21.8312C22.142 6.90474 22.4401 6.78127 22.6598 6.5615C22.8796 6.34173 23.0031 6.04366 23.0031 5.73286C23.0031 5.42206 22.8796 5.12399 22.6598 4.90422C22.4401 4.68445 22.142 4.56099 21.8312 4.56099H17.7296V3.35161C17.7296 1.7188 16.4015 0.389893 14.7687 0.389893H10.2312C8.59839 0.389893 7.27026 1.71802 7.27026 3.35161V4.5602H3.1687C2.8579 4.5602 2.55983 4.68367 2.34006 4.90344C2.12029 5.12321 1.99683 5.42206 1.99683 5.73286ZM9.61401 3.35239C9.61401 3.01099 9.89058 2.73442 10.2312 2.73442H14.7687C15.1093 2.73442 15.3859 3.01099 15.3859 3.35239V4.56099H9.61323V3.35161L9.61401 3.35239ZM6.13745 6.90474H18.8625V20.7524C18.862 21.1535 18.7026 21.538 18.419 21.8217C18.1355 22.1054 17.751 22.2651 17.35 22.2657H7.64995C7.24887 22.2651 6.8644 22.1054 6.58086 21.8217C6.29732 21.538 6.13786 21.1535 6.13745 20.7524V6.90474Z" fill="black"/>
<path d="M9.58752 20.107C9.89833 20.107 10.1964 19.9835 10.4162 19.7637C10.6359 19.544 10.7594 19.2459 10.7594 18.9351V10.2351C10.7594 9.92431 10.6359 9.62624 10.4162 9.40647C10.1964 9.1867 9.89833 9.06323 9.58752 9.06323C9.27672 9.06323 8.97865 9.1867 8.75888 9.40647C8.53911 9.62624 8.41565 9.92431 8.41565 10.2351V18.9351C8.41565 19.2459 8.53911 19.544 8.75888 19.7637C8.97865 19.9835 9.27672 20.107 9.58752 20.107ZM15.4125 20.107C15.7233 20.107 16.0214 19.9835 16.2412 19.7637C16.4609 19.544 16.5844 19.2459 16.5844 18.9351V10.2351C16.5844 9.92431 16.4609 9.62624 16.2412 9.40647C16.0214 9.1867 15.7233 9.06323 15.4125 9.06323C15.1017 9.06323 14.8037 9.1867 14.5839 9.40647C14.3641 9.62624 14.2407 9.92431 14.2407 10.2351V18.9351C14.2407 19.2459 14.3641 19.544 14.5839 19.7637C14.8037 19.9835 15.1017 20.107 15.4125 20.107Z" fill="black"/>
</svg>
