<svg width="25" height="25" viewBox="0 0 25 25" fill="none" xmlns="http://www.w3.org/2000/svg">
<g clip-path="url(#clip0_345_613)">
<g filter="url(#filter0_d_345_613)">
<path d="M13.5197 3.25297L15.8427 7.9103C16.0102 8.2491 16.337 8.48487 16.7161 8.54041L21.9194 9.29836C22.2253 9.34127 22.5012 9.50221 22.6861 9.74558C22.8709 9.98894 22.9495 10.2947 22.9043 10.5951C22.8683 10.8441 22.7509 11.0749 22.5698 11.2526L18.7974 14.9054C18.5211 15.1637 18.3954 15.5411 18.4629 15.9099L19.3921 21.0513C19.4947 21.6663 19.0844 22.2511 18.4629 22.3754C18.2086 22.4153 17.9479 22.3737 17.7196 22.2567L13.0737 19.8367C12.7297 19.6628 12.3214 19.6628 11.9773 19.8367L7.33149 22.2567C6.75923 22.561 6.04429 22.3527 5.73332 21.791C5.61549 21.5661 5.5732 21.3103 5.61253 21.0604L6.5417 15.9191C6.60918 15.5503 6.48349 15.1728 6.20719 14.9145L2.43477 11.2617C2.21346 11.0472 2.08887 10.7545 2.08887 10.449C2.08887 10.1435 2.21346 9.85076 2.43477 9.63625C2.61306 9.45484 2.84913 9.33883 3.10377 9.3075L8.30711 8.54954C8.6862 8.494 9.01301 8.25824 9.18053 7.91943L11.4198 3.25297C11.6157 2.85493 12.0293 2.6053 12.4791 2.61373H12.6185C13.0099 2.66253 13.3493 2.90327 13.5197 3.25297Z" fill="#FDD402"/>
<path d="M12.5065 19.6996C12.303 19.6983 12.1116 19.7653 11.9306 19.8566L7.2994 22.2707C6.74395 22.5506 6.03864 22.3257 5.73286 21.7909C5.61451 21.5695 5.57214 21.3164 5.61207 21.0694L6.54124 15.9373C6.60364 15.566 6.47893 15.1882 6.20674 14.9236L2.42503 11.2708C1.969 10.8216 1.969 10.0945 2.42503 9.6453C2.6034 9.46906 2.83467 9.35382 3.08474 9.31655L8.30666 8.54946C8.70907 8.49106 8.99668 8.26856 9.18008 7.91935L11.4486 3.19941C11.6215 2.81545 12.2027 2.55011 12.5158 2.61366C12.5065 2.92414 12.5065 19.4896 12.5065 19.6996Z" fill="#FDD402"/>
</g>
</g>
<defs>
<filter id="filter0_d_345_613" x="-1.91699" y="-0.395752" width="28.834" height="27.7925" filterUnits="userSpaceOnUse" color-interpolation-filters="sRGB">
<feFlood flood-opacity="0" result="BackgroundImageFix"/>
<feColorMatrix in="SourceAlpha" type="matrix" values="0 0 0 0 0 0 0 0 0 0 0 0 0 0 0 0 0 0 127 0" result="hardAlpha"/>
<feOffset dy="1"/>
<feGaussianBlur stdDeviation="2"/>
<feComposite in2="hardAlpha" operator="out"/>
<feColorMatrix type="matrix" values="0 0 0 0 0 0 0 0 0 0 0 0 0 0 0 0 0 0 0.25 0"/>
<feBlend mode="normal" in2="BackgroundImageFix" result="effect1_dropShadow_345_613"/>
<feBlend mode="normal" in="SourceGraphic" in2="effect1_dropShadow_345_613" result="shape"/>
</filter>
<clipPath id="clip0_345_613">
<rect width="25" height="25" fill="white"/>
</clipPath>
</defs>
</svg>
