<svg width="25" height="25" viewBox="0 0 25 25" fill="none" xmlns="http://www.w3.org/2000/svg">
<path d="M13.5195 3.25297L15.8424 7.9103C16.0099 8.2491 16.3367 8.48487 16.7158 8.54041L21.9192 9.29836C22.2251 9.34127 22.501 9.50221 22.6858 9.74558C22.8707 9.98894 22.9492 10.2947 22.9041 10.5951C22.8681 10.8441 22.7507 11.0749 22.5696 11.2526L18.7972 14.9054C18.5209 15.1637 18.3952 15.5411 18.4627 15.9099L19.3918 21.0513C19.4945 21.6663 19.0841 22.2511 18.4627 22.3754C18.2084 22.4153 17.9477 22.3737 17.7193 22.2567L13.0735 19.8367C12.7294 19.6628 12.3211 19.6628 11.9771 19.8367L7.33124 22.2567C6.75898 22.561 6.04404 22.3527 5.73308 21.791C5.61525 21.5661 5.57296 21.3103 5.61228 21.0604L6.54145 15.9191C6.60894 15.5503 6.48325 15.1728 6.20695 14.9145L2.43453 11.2617C2.21322 11.0472 2.08862 10.7545 2.08862 10.449C2.08862 10.1435 2.21322 9.85076 2.43453 9.63625C2.61282 9.45484 2.84889 9.33883 3.10353 9.3075L8.30687 8.54954C8.68596 8.494 9.01277 8.25824 9.18029 7.91943L11.4196 3.25297C11.6154 2.85493 12.0291 2.6053 12.4788 2.61373H12.6182C13.0096 2.66253 13.349 2.90327 13.5195 3.25297Z" fill="white"/>
<path d="M12.5067 19.6996C12.3032 19.6983 12.1119 19.7653 11.9308 19.8566L7.29964 22.2707C6.74419 22.5506 6.03888 22.3257 5.73311 21.7909C5.61476 21.5695 5.57239 21.3164 5.61232 21.0694L6.54148 15.9373C6.60388 15.566 6.47918 15.1882 6.20698 14.9236L2.42527 11.2708C1.96925 10.8216 1.96925 10.0945 2.42527 9.6453C2.60364 9.46906 2.83491 9.35382 3.08498 9.31655L8.3069 8.54946C8.70931 8.49106 8.99692 8.26856 9.18032 7.91935L11.4488 3.19941C11.6217 2.81545 12.2029 2.55011 12.516 2.61366C12.5067 2.92414 12.5067 19.4896 12.5067 19.6996Z" fill="white"/>
</svg>
