<svg width="120" height="120" viewBox="0 0 120 120" fill="none" xmlns="http://www.w3.org/2000/svg">
<path d="M90 45H80C77 45 75 47 75 50C75 53 77 55 80 55H90C93 55 95 57 95 60V95C95 98 93 100 90 100H30C27 100 25 98 25 95V60C25 57 27 55 30 55H40C43 55 45 53 45 50C45 47 43 45 40 45H30C21.5 45 15 51.5 15 60V95C15 103.5 21.5 110 30 110H90C98.5 110 105 103.5 105 95V60C105 51.5 98.5 45 90 45ZM48.5 33.5L55 27V85C55 88 57 90 60 90C63 90 65 88 65 85V27L71.5 33.5C72.5 34.5 73.5 35 75 35C76.5 35 77.5 34.5 78.5 33.5C80.5 31.5 80.5 28.5 78.5 26.5L63.5 11.5C61.5 9.5 58.5 9.5 56.5 11.5L41.5 26.5C39.5 28.5 39.5 31.5 41.5 33.5C43.5 35.5 46.5 35.5 48.5 33.5Z" fill="#EA4335"/>
</svg>
