<svg width="732" height="170" viewBox="0 0 732 170" fill="none" xmlns="http://www.w3.org/2000/svg">
<g filter="url(#filter0_i_90_94)">
<path d="M275 99C218.618 108.977 117.17 96.6427 46.5 1H0.5V169.5H730.5C717.62 146.095 651.429 136.617 621.5 131.5C591.571 126.383 551.5 131.5 480 99C408.5 66.5 403.11 84.8579 275 99Z" fill="white"/>
</g>
<path d="M275 99C218.618 108.977 117.17 96.6427 46.5 1H0.5V169.5H730.5C717.62 146.095 651.429 136.617 621.5 131.5C591.571 126.383 551.5 131.5 480 99C408.5 66.5 403.11 84.8579 275 99Z" stroke="#63D381"/>
<defs>
<filter id="filter0_i_90_94" x="0" y="0.5" width="731.346" height="173.5" filterUnits="userSpaceOnUse" color-interpolation-filters="sRGB">
<feFlood flood-opacity="0" result="BackgroundImageFix"/>
<feBlend mode="normal" in="SourceGraphic" in2="BackgroundImageFix" result="shape"/>
<feColorMatrix in="SourceAlpha" type="matrix" values="0 0 0 0 0 0 0 0 0 0 0 0 0 0 0 0 0 0 127 0" result="hardAlpha"/>
<feOffset dy="4"/>
<feGaussianBlur stdDeviation="2"/>
<feComposite in2="hardAlpha" operator="arithmetic" k2="-1" k3="1"/>
<feColorMatrix type="matrix" values="0 0 0 0 0 0 0 0 0 0 0 0 0 0 0 0 0 0 0.25 0"/>
<feBlend mode="normal" in2="shape" result="effect1_innerShadow_90_94"/>
</filter>
</defs>
</svg>
