<svg width="55" height="55" viewBox="0 0 55 55" fill="none" xmlns="http://www.w3.org/2000/svg">
<g clip-path="url(#clip0_213_769)">
<path d="M31.0408 34.3922C30.3877 35.1656 29.7775 36.0164 29.2189 36.9531C28.1791 38.6805 27.6979 41.3789 27.5002 43.9914C27.3025 41.3789 26.8213 38.6805 25.7814 36.9531C25.2229 36.0164 24.6127 35.1656 23.9596 34.3922C22.1377 32.2008 19.9979 30.6023 17.7721 29.4422C16.1994 28.6086 14.5752 27.9984 12.9854 27.5602L13.0025 27.5C17.8322 14.1797 27.5002 0.859375 27.5002 0.859375C27.5002 0.859375 37.1939 14.2141 42.0236 27.5516C40.4338 27.9984 38.8096 28.6086 37.2283 29.4422C35.0025 30.6023 32.8627 32.2008 31.0408 34.3922Z" fill="#40BCB2"/>
<path d="M28.2143 35.395C28.136 35.5127 28.0298 35.6093 27.9052 35.676C27.7806 35.7428 27.6415 35.7777 27.5001 35.7777C27.3588 35.7777 27.2196 35.7428 27.095 35.676C26.9704 35.6093 26.8643 35.5127 26.786 35.395C26.3013 34.6654 25.6782 33.7631 25.2726 33.2835C23.4559 31.0982 21.1966 29.29 18.5669 27.9185C17.7533 27.4885 16.9158 27.1054 16.0584 26.7712C15.9508 26.7307 15.8524 26.6693 15.7688 26.5905C15.6851 26.5117 15.618 26.417 15.5712 26.3121C15.5245 26.2071 15.499 26.0939 15.4963 25.979C15.4937 25.8641 15.5138 25.7499 15.5557 25.6428C18.933 17.3078 23.9672 9.20042 26.7851 4.94479C26.8633 4.82673 26.9696 4.72987 27.0943 4.66287C27.2191 4.59586 27.3585 4.56079 27.5001 4.56079C27.6417 4.56079 27.7811 4.59586 27.9059 4.66287C28.0307 4.72987 28.1369 4.82673 28.2151 4.94479C31.0304 9.19698 36.0586 17.2974 39.4514 25.6506C39.4934 25.7567 39.5137 25.87 39.5112 25.9841C39.5088 26.0981 39.4836 26.2105 39.4372 26.3147C39.3908 26.4189 39.3241 26.5128 39.2409 26.5909C39.1578 26.669 39.0599 26.7297 38.953 26.7695C38.0905 27.1067 37.2473 27.4914 36.4273 27.9219C33.8036 29.29 31.5443 31.0982 29.719 33.2939C29.3185 33.7674 28.6981 34.6671 28.2143 35.395Z" fill="#6CCFCA"/>
<path d="M31.0408 34.3922C30.3877 35.1656 29.7775 36.0164 29.2189 36.9531C28.1791 38.6805 27.6979 41.3789 27.5002 43.9914C27.3025 41.3789 26.8213 38.6805 25.7814 36.9531C25.2229 36.0164 24.6127 35.1656 23.9596 34.3922C22.1377 32.2008 19.9979 30.6023 17.7721 29.4422C16.1994 28.6086 14.5752 27.9984 12.9854 27.5602L13.0025 27.5C17.8322 14.1797 27.5002 0.859375 27.5002 0.859375C27.5002 0.859375 37.1939 14.2141 42.0236 27.5516C40.4338 27.9984 38.8096 28.6086 37.2283 29.4422C35.0025 30.6023 32.8627 32.2008 31.0408 34.3922Z" fill="#40BCB2"/>
<path d="M28.2143 35.395C28.136 35.5127 28.0298 35.6093 27.9052 35.676C27.7806 35.7428 27.6415 35.7777 27.5001 35.7777C27.3588 35.7777 27.2196 35.7428 27.095 35.676C26.9704 35.6093 26.8643 35.5127 26.786 35.395C26.3013 34.6654 25.6782 33.7631 25.2726 33.2835C23.4559 31.0982 21.1966 29.29 18.5669 27.9185C17.7533 27.4885 16.9158 27.1054 16.0584 26.7712C15.9508 26.7307 15.8524 26.6693 15.7688 26.5905C15.6851 26.5117 15.618 26.417 15.5712 26.3121C15.5245 26.2071 15.499 26.0939 15.4963 25.979C15.4937 25.8641 15.5138 25.7499 15.5557 25.6428C18.933 17.3078 23.9672 9.20042 26.7851 4.94479C26.8633 4.82673 26.9696 4.72987 27.0943 4.66287C27.2191 4.59586 27.3585 4.56079 27.5001 4.56079C27.6417 4.56079 27.7811 4.59586 27.9059 4.66287C28.0307 4.72987 28.1369 4.82673 28.2151 4.94479C31.0304 9.19698 36.0586 17.2974 39.4514 25.6506C39.4934 25.7567 39.5137 25.87 39.5112 25.9841C39.5088 26.0981 39.4836 26.2105 39.4372 26.3147C39.3908 26.4189 39.3241 26.5128 39.2409 26.5909C39.1578 26.669 39.0599 26.7297 38.953 26.7695C38.0905 27.1067 37.2473 27.4914 36.4273 27.9219C33.8036 29.29 31.5443 31.0982 29.719 33.2939C29.3185 33.7674 28.6981 34.6671 28.2143 35.395Z" fill="#6CCFCA"/>
<path d="M34.8141 12.3777C32.6193 20.2092 27.683 27.6471 20.7178 31.3071C21.9135 32.2073 23.0012 33.2425 23.9593 34.3923C24.6125 35.1657 25.2226 36.0165 25.7812 36.9532C26.8211 38.6806 27.3023 41.379 27.5 43.9915C27.6976 41.379 28.1789 38.6806 29.2187 36.9532C29.7773 36.0165 30.3875 35.1657 31.0406 34.3923C32.8625 32.2009 35.0023 30.6024 37.2281 29.4423C38.8093 28.6087 40.4336 27.9985 42.0234 27.5517C40.0889 22.2089 37.3742 16.8662 34.8141 12.3777Z" fill="#2B9E90"/>
<path d="M39.4515 25.6499C37.8909 21.8059 35.983 18.0212 34.1045 14.6353C31.8615 21.0075 27.7975 26.8856 22.3164 30.3773C23.3948 31.2467 24.385 32.2202 25.2727 33.2837C25.6783 33.7641 26.3013 34.6664 26.786 35.3952C26.8643 35.5129 26.9705 35.6094 27.095 35.6762C27.2196 35.7429 27.3588 35.7779 27.5002 35.7779C27.6415 35.7779 27.7807 35.7429 27.9053 35.6762C28.0299 35.6094 28.136 35.5129 28.2143 35.3952C28.6981 34.6673 29.3186 33.7675 29.7191 33.2931C31.5444 31.0974 33.8028 29.2893 36.4273 27.9212C37.247 27.49 38.0902 27.1052 38.953 26.7688C39.0599 26.729 39.1578 26.6683 39.241 26.5902C39.3241 26.5121 39.3908 26.4182 39.4373 26.314C39.4837 26.2098 39.5088 26.0974 39.5113 25.9834C39.5137 25.8693 39.4934 25.7559 39.4515 25.6499Z" fill="#40BCB2"/>
<path d="M49.6719 26.4516C48.2625 26.486 46.6039 26.6149 44.8336 26.9242C42.8656 27.268 40.7516 27.8352 38.6719 28.7461C38.182 28.961 37.7008 29.1844 37.2281 29.4422C35.757 30.2049 34.3835 31.1427 33.1375 32.2352C32.3984 32.8797 31.7023 33.6016 31.0406 34.3922C30.3875 35.1656 29.7773 36.0164 29.2188 36.9531C28.1875 38.6719 27.7062 41.3531 27.5 43.9485C27.2938 41.3446 26.8125 38.6719 25.7812 36.9531C25.2227 36.0164 24.6125 35.1656 23.9594 34.3922C22.2148 32.2953 20.1867 30.7399 18.0641 29.5883C17.9695 29.5367 17.875 29.4852 17.7719 29.4422C15.2453 28.1102 12.5984 27.3453 10.1664 26.9242C8.39609 26.6149 6.7375 26.486 5.32812 26.4516C2.64687 26.3742 0.859375 26.6406 0.859375 26.6406L0.867969 26.6492C1.03984 26.7953 2.97344 28.4883 4.45156 32.9571C5.04453 34.7531 5.56875 36.9875 5.86953 39.7547C5.92969 40.236 5.97266 40.7344 6.01562 41.25C6.04141 41.5336 6.06719 41.8172 6.10156 42.1008C6.35078 44.2149 6.91797 46.0969 7.76016 47.7039C9.10078 50.2735 11.1203 52.1555 13.6211 53.1867C15.5375 53.9774 17.7289 54.2781 20.1094 54.0117C22.4211 53.7453 24.9133 52.9547 27.5 51.5625C30.0781 52.9547 32.5703 53.7453 34.882 54.0031C38.0531 54.3641 40.8977 53.7196 43.1836 52.2328H43.1922C44.8594 51.15 46.243 49.6203 47.2398 47.7039C48.082 46.0969 48.6492 44.2149 48.8984 42.1008C48.9328 41.8172 48.9586 41.5336 48.9844 41.25C49.0273 40.7344 49.0703 40.236 49.1305 39.7547C49.4312 36.9875 49.9555 34.7531 50.5484 32.9571C52.0266 28.4883 53.9602 26.7953 54.132 26.6492L54.1406 26.6406C54.1406 26.6406 52.3531 26.3742 49.6719 26.4516Z" fill="#90B541"/>
<path d="M27.4915 51.511H27.5001C29.2145 51.2652 30.892 50.6637 32.4724 49.7751C30.7769 48.7318 29.1449 47.2124 27.3892 46.0256C27.3024 48.8091 27.464 51.1303 27.4915 51.511ZM13.7501 39.5313C14.0509 40.2618 14.386 40.9751 14.7642 41.6626C11.8681 38.7665 8.37041 38.9985 5.86963 39.7548C5.56885 36.9876 5.04463 34.7532 4.45166 32.9571C6.82353 32.9055 9.59932 33.2837 11.3009 34.968L11.3095 34.9766C12.2032 36.2915 13.0368 37.804 13.7501 39.5313Z" fill="#76991F"/>
<path d="M20.1096 54.0117C17.7291 54.2781 15.5377 53.9773 13.6213 53.1867C11.1205 52.1554 9.10098 50.2734 7.76035 47.7039C11.1549 46.6898 15.701 46.0453 19.7658 47.85C22.0775 49.8007 24.7416 51.1156 27.4916 51.5109C27.5002 51.5453 27.5002 51.5625 27.5002 51.5625C24.9135 52.9546 22.4213 53.7453 20.1096 54.0117ZM3.4377 28.3593C4.69066 29.7919 5.6059 31.3749 6.34324 33.0197C5.71446 32.9628 5.08293 32.9419 4.45176 32.957C2.97363 28.4882 1.04004 26.7953 0.868164 26.6492C0.916289 26.6629 1.12426 26.7308 1.43793 26.8511C2.3841 27.2456 3.13176 27.7466 3.4377 28.3593Z" fill="#76991F"/>
<path d="M7.76885 47.704H7.76025C6.91807 46.097 6.35088 44.215 6.10166 42.1009C6.06729 41.8173 6.0415 41.5337 6.01572 41.2501C5.97275 40.7345 5.92979 40.236 5.86963 39.7548C6.7419 39.4862 7.6438 39.3254 8.55518 39.2761C9.42916 42.0382 10.3392 44.6833 11.9832 46.8283C10.555 46.9929 9.14446 47.286 7.76885 47.704ZM27.4915 51.511C25.7728 51.2618 24.1056 50.6603 22.5243 49.7751C24.1571 48.7782 25.7212 47.3431 27.3884 46.1829C27.311 48.8985 27.4657 51.1415 27.4915 51.511Z" fill="#76991F"/>
<path d="M5.86963 39.7547C5.56885 36.9875 5.04463 34.7531 4.45166 32.957C5.06354 32.9433 5.70291 32.9613 6.34314 33.0197C7.25838 35.0616 7.89861 37.2006 8.55518 39.276C7.6438 39.3253 6.7419 39.486 5.86963 39.7547ZM15.4688 49.8437C18.1699 51.645 20.3999 51.0855 22.5278 49.775C24.1073 50.6627 25.7848 51.2651 27.5001 51.5109H27.5087C27.5001 51.5453 27.5001 51.5625 27.5001 51.5625C24.922 52.9547 22.4298 53.7453 20.1181 54.0031C16.947 54.364 14.1024 53.7195 11.8165 52.2328H11.8079C10.1407 51.15 8.75713 49.6203 7.76025 47.7039H7.76885C9.14446 47.2859 10.555 46.9928 11.9832 46.8282C12.9221 48.0655 14.1094 49.0926 15.4688 49.8437Z" fill="#627C12"/>
<path d="M54.1406 26.6406L54.132 26.6492C53.8398 26.7352 48.0477 28.5656 43.6992 34.968C43.7938 34.693 45.1945 30.9289 44.8336 26.9242C46.6039 26.6149 48.2625 26.486 49.6719 26.4516C52.3531 26.3742 54.1406 26.6406 54.1406 26.6406Z" fill="#76991F"/>
<path d="M43.699 34.968C45.4006 33.2837 48.1764 32.9055 50.5482 32.9571C49.9553 34.7532 49.4311 36.9876 49.1303 39.7548C46.6295 38.9985 43.1318 38.7665 40.2357 41.6626C40.6139 40.9751 40.949 40.2618 41.2498 39.5313C41.9631 37.804 42.7967 36.2915 43.6904 34.9766L43.699 34.968ZM27.4998 51.511C30.2584 51.1157 32.9225 49.8009 35.2342 47.8501C39.299 46.0454 43.8451 46.6899 47.2311 47.704H47.2396C46.2428 49.6204 44.8592 51.1501 43.192 52.2329H43.1834C40.8975 53.7196 38.0529 54.3641 34.8818 54.0032C32.5701 53.7454 30.0779 52.9548 27.4998 51.5626C27.4998 51.5626 27.4998 51.5454 27.4912 51.511H27.4998Z" fill="#76991F"/>
<path d="M51.5627 28.3593C50.3097 29.7919 49.3945 31.3749 48.6572 33.0197C49.286 32.9628 49.9175 32.9419 50.5487 32.957C52.0268 28.4882 53.9604 26.7953 54.1322 26.6492C54.0841 26.6629 53.8762 26.7308 53.5625 26.8511C52.6163 27.2456 51.8687 27.7466 51.5627 28.3593ZM47.2315 47.7039H47.2401C48.0822 46.0968 48.6494 44.2148 48.8987 42.1007C48.933 41.8171 48.9588 41.5335 48.9846 41.25C49.0276 40.7343 49.0705 40.2359 49.1307 39.7546C48.2584 39.486 47.3565 39.3252 46.4451 39.276C45.5712 42.038 44.6611 44.6832 43.0171 46.8282C44.4453 46.9928 45.8558 47.2859 47.2315 47.7039Z" fill="#76991F"/>
<path d="M49.1304 39.7546C49.4312 36.9874 49.9554 34.753 50.5483 32.9569C49.9172 32.9422 49.2857 32.9632 48.6569 33.0197C47.7416 35.0615 47.1014 37.2005 46.4448 39.2759C47.4082 39.3223 48.3217 39.5097 49.1304 39.7546Z" fill="#627C12"/>
<path d="M35.2343 47.85C37.2108 46.1914 38.9296 44.0687 40.2358 41.6625C40.2358 41.6625 39.9608 34.4523 37.2366 29.4679L37.228 29.4421C35.7569 30.2048 34.3834 31.1426 33.1374 32.2351C32.3983 32.8796 31.7022 33.6015 31.0405 34.3921C35.3632 38.964 35.2343 47.85 35.2343 47.85Z" fill="#76991F"/>
<path d="M39.5311 49.8437C36.83 51.6449 34.6 51.0855 32.4721 49.7749C30.8926 50.6627 29.2151 51.2651 27.4998 51.5109H27.4912C27.4998 51.5452 27.4998 51.5624 27.4998 51.5624C30.0779 52.9546 32.5701 53.7452 34.8818 54.003C38.0529 54.364 40.8975 53.7195 43.1834 52.2327H43.192C44.8592 51.1499 46.2428 49.6202 47.2396 47.7038H47.2311C45.8554 47.2858 44.4449 46.9928 43.0167 46.8281C42.0778 48.0654 40.8905 49.0926 39.5311 49.8437Z" fill="#627C12"/>
<path d="M0.859375 26.6406C0.859375 26.6406 2.64687 26.3742 5.32812 26.4516C6.7375 26.486 8.39609 26.6149 10.1664 26.9242C9.80547 30.9289 11.2062 34.693 11.3008 34.968C6.95234 28.5656 1.16016 26.7352 0.867969 26.6492L0.859375 26.6406ZM18.0641 29.5883C20.1867 30.7399 22.2148 32.2953 23.9594 34.3922C19.6367 38.9641 19.7656 47.85 19.7656 47.85C17.7891 46.1914 16.0703 44.0688 14.7641 41.6625C14.7641 41.6625 15.0391 34.4524 17.7633 29.468L17.7719 29.4422C17.875 29.4852 17.9695 29.5367 18.0641 29.5883Z" fill="#76991F"/>
<path d="M19.2895 20.9895C17.9325 19.4469 15.5555 23.2041 16.915 24.7492C17.5578 25.4797 17.8595 24.1554 18.5607 23.4619C19.341 22.6902 20.0062 21.8033 19.2895 20.9895ZM16.7852 25.3903C15.9981 25.0895 15.5606 26.4637 16.3495 26.7645C17.1359 27.0652 17.5733 25.692 16.7852 25.3903Z" fill="#BDEFEB"/>
<path d="M54.2676 25.7904C54.1696 25.7767 48.7444 25.0179 42.5681 26.5596C37.6739 13.4936 28.2913 0.486991 28.195 0.354647C28.1156 0.244561 28.0112 0.154899 27.8904 0.0930328C27.7695 0.0311665 27.6357 -0.00113664 27.5 -0.00122054C27.3643 -0.00130444 27.2304 0.0308333 27.1095 0.0925502C26.9886 0.154267 26.8841 0.2438 26.8045 0.353788C26.7616 0.413085 22.4484 6.37801 18.1867 14.1975C18.1284 14.2968 18.0906 14.4068 18.0756 14.521C18.0606 14.6352 18.0687 14.7512 18.0994 14.8622C18.1301 14.9732 18.1829 15.0769 18.2545 15.1671C18.3261 15.2573 18.4151 15.3323 18.5162 15.3874C18.6173 15.4425 18.7285 15.4768 18.8431 15.4881C18.9577 15.4994 19.0735 15.4876 19.1834 15.4533C19.2934 15.419 19.3953 15.363 19.4832 15.2885C19.5711 15.2141 19.6431 15.1227 19.6949 15.0199C22.0788 10.6668 24.6838 6.43862 27.4998 2.35183C29.7419 5.59254 36.8558 16.2892 40.9026 27.0279C36.366 28.4579 31.6497 31.2303 28.482 36.5103C28.0996 37.1479 27.7739 37.9325 27.5006 38.8469C27.2411 37.9755 26.9197 37.1789 26.5192 36.5103C23.3524 31.232 18.6362 28.4596 14.1004 27.0296C15.2116 24.0803 16.6252 20.9118 18.3406 17.5808C18.3922 17.4804 18.4237 17.3709 18.433 17.2583C18.4423 17.1458 18.4294 17.0325 18.395 16.925C18.3605 16.8175 18.3053 16.7178 18.2323 16.6316C18.1593 16.5455 18.0701 16.4745 17.9697 16.4228C17.8694 16.3711 17.7598 16.3397 17.6472 16.3304C17.5347 16.321 17.4215 16.334 17.3139 16.3684C17.2064 16.4028 17.1067 16.4581 17.0205 16.5311C16.9344 16.604 16.8634 16.6932 16.8117 16.7936C15.0406 20.2354 13.5805 23.5114 12.4392 26.5621C6.26033 25.0187 0.830794 25.7767 0.732825 25.7904C0.567931 25.8159 0.414003 25.8888 0.289756 26.0002C0.165509 26.1116 0.0762951 26.2566 0.0329626 26.4178C-0.01037 26.5789 -0.00595484 26.7491 0.0456711 26.9078C0.0972971 27.0665 0.19391 27.2067 0.323763 27.3115C0.363294 27.3433 4.33876 30.639 5.15947 41.3159C5.58915 46.9018 8.06072 51.1996 12.1187 53.4168C14.0231 54.4566 16.1526 54.9739 18.4248 54.9739C21.2805 54.9739 24.3613 54.1472 27.5006 52.5247C30.6391 54.1472 33.7199 54.9739 36.5765 54.9739C38.8487 54.9739 40.9791 54.4557 42.8826 53.4168C46.9406 51.1996 49.4121 46.9018 49.8418 41.3159C50.6548 30.7421 54.6423 27.3399 54.6775 27.3115C54.8081 27.2071 54.9054 27.0668 54.9575 26.9078C55.0095 26.7489 55.014 26.5783 54.9705 26.4168C54.927 26.2553 54.8373 26.11 54.7125 25.9988C54.5876 25.8875 54.433 25.8151 54.2676 25.7904ZM38.3915 29.8415C40.2718 28.9512 42.1977 28.36 44.029 27.9741C44.0874 31.1718 43.1086 34.0542 42.9187 34.581C42.099 35.8073 41.3849 37.101 40.784 38.4482C40.4514 36.0539 39.7699 32.7127 38.3915 29.8415ZM44.3882 35.5134C45.6567 34.318 47.6281 33.9218 49.3769 33.8385C48.9833 35.2246 48.6421 36.8308 48.3938 38.6742C46.6097 38.2797 44.4656 38.2153 42.3704 39.1486C42.9362 37.8806 43.6114 36.6643 44.3882 35.5134ZM46.8821 32.442C48.2183 31.0643 49.7308 29.8691 51.3801 28.8876C50.8054 29.919 50.3195 30.9974 49.9277 32.1111C48.808 32.124 47.7931 32.2349 46.8821 32.442ZM50.6324 27.3029C48.7345 28.4026 47.0041 29.7689 45.4942 31.36C45.673 30.2497 45.7907 28.9856 45.7426 27.6647C47.3614 27.4237 48.9958 27.3028 50.6324 27.3029ZM36.8635 30.639C38.8624 34.8422 39.2913 40.3018 39.3609 41.4603C38.45 43.09 37.3261 44.591 36.0188 45.9239C35.8142 43.1154 35.0425 37.8947 32.1851 34.3945C33.539 32.9062 35.1176 31.639 36.8635 30.639ZM29.955 37.3954C30.2969 36.8271 30.6678 36.2766 31.0662 35.7463C33.9786 39.5782 34.3275 45.7623 34.3679 47.4209C32.5306 48.9016 30.4999 49.9638 28.4305 50.4596C28.501 49.0494 28.5663 46.5607 28.3617 43.9585C28.6015 41.0031 29.1515 38.7335 29.955 37.3954ZM22.8145 34.3954C19.9519 37.9025 19.1827 43.1378 18.9799 45.9419C17.6691 44.6011 16.5454 43.0892 15.6395 41.4474C15.7117 40.2589 16.144 34.8259 18.1352 30.639C19.8814 31.6393 21.4603 32.9067 22.8145 34.3954ZM10.6492 35.5461C11.4102 36.6892 12.0735 37.8946 12.6317 39.1494C10.5357 38.2153 8.39072 38.2806 6.60579 38.6742C6.35743 36.83 6.0154 35.2238 5.62181 33.8376C7.38353 33.9201 9.38243 34.3232 10.6492 35.5461ZM5.07181 32.112C4.67499 30.9846 4.1819 29.8935 3.59798 28.8507C5.27519 29.8367 6.80892 31.0486 8.15611 32.4523C7.23314 32.2383 6.20447 32.1249 5.07181 32.112ZM12.0989 34.63C11.9588 34.2518 10.9087 31.2878 10.9706 27.9741C12.8019 28.3591 14.7277 28.9512 16.6081 29.8415C15.2236 32.7239 14.543 36.0789 14.2121 38.4748C13.6176 37.1358 12.9106 35.8496 12.0989 34.63ZM9.25611 27.6647C9.20798 28.9968 9.32743 30.2695 9.50876 31.3867C7.98965 29.7851 6.24857 28.4099 4.33876 27.3029C5.98459 27.3012 7.62825 27.4222 9.25611 27.6647ZM6.80087 40.4067C9.70384 39.7097 12.1642 40.3139 14.1107 42.2303C14.8662 43.6024 15.761 44.8931 16.7808 46.082C13.7042 45.5681 10.6414 46.0313 8.23517 46.6801C7.5047 45.0757 7.03118 43.2366 6.87306 41.1836C6.85158 40.9171 6.82493 40.6645 6.80087 40.4067ZM12.942 51.9077C11.3624 51.0449 10.076 49.7876 9.08251 48.2347C12.025 47.4931 15.8922 47.0978 19.3563 48.6137C19.8857 49.0566 20.4382 49.4711 21.0115 49.8555C21.2018 49.9805 21.4339 50.0249 21.657 49.9792C21.8801 49.9335 22.0759 49.8012 22.2017 49.6114C22.3272 49.4211 22.3719 49.1887 22.3262 48.9654C22.2804 48.7421 22.1479 48.546 21.9577 48.4204C21.5004 48.1155 21.0576 47.7895 20.6308 47.4432C20.6677 45.8207 21.0072 39.5954 23.9334 35.7446C24.3227 36.2636 24.6948 36.8111 25.0445 37.3937C26.9988 40.6507 26.8389 47.8489 26.7049 50.4889C25.9152 50.3113 25.1437 50.0614 24.4 49.7421C24.2958 49.6949 24.1832 49.669 24.0688 49.6659C23.9544 49.6629 23.8406 49.6827 23.734 49.7242C23.6274 49.7657 23.5301 49.828 23.4479 49.9076C23.3657 49.9872 23.3002 50.0824 23.2553 50.1876C23.2104 50.2928 23.1869 50.406 23.1863 50.5204C23.1857 50.6348 23.208 50.7482 23.2517 50.8539C23.2955 50.9596 23.36 51.0555 23.4413 51.1359C23.5226 51.2164 23.6192 51.2798 23.7254 51.3225C24.1508 51.5038 24.5796 51.6576 25.0102 51.7977C20.5242 53.6883 16.2995 53.7442 12.942 51.9077ZM42.0576 51.9077C38.7009 53.7433 34.4762 53.69 29.9911 51.802C32.002 51.148 33.9322 50.048 35.6827 48.5982C39.1374 47.1021 42.9866 47.4957 45.917 48.2347C44.9236 49.7876 43.6371 51.0449 42.0576 51.9077ZM46.7644 46.6801C44.3633 46.0322 41.3082 45.5689 38.2368 46.0786C39.2616 44.8831 40.1598 43.5849 40.9172 42.2045C42.8585 40.3096 45.3077 39.7149 48.1978 40.4067C48.1738 40.6645 48.1463 40.9171 48.1265 41.1836C47.9692 43.2366 47.4957 45.0757 46.7644 46.6801Z" fill="#472B3C"/>
</g>
<defs>
<clipPath id="clip0_213_769">
<rect width="55" height="55" fill="white"/>
</clipPath>
</defs>
</svg>
